<svg width="66" height="54" viewBox="0 0 66 54" fill="none" xmlns="http://www.w3.org/2000/svg">
<path d="M65.5356 6.27419C63.1096 7.37844 60.4996 8.04768 57.8561 8.29865C60.6502 6.67574 62.7248 4.08242 63.7287 1.02063C61.0852 2.59335 58.2074 3.68087 55.2126 4.24973C52.7698 1.57276 49.3232 0.0334973 45.7093 3.51618e-05C38.3476 -0.0166959 32.3579 5.93957 32.3412 13.318C32.3412 13.3347 32.3412 13.4853 32.3412 13.502C32.3746 14.5393 32.5085 15.5767 32.7595 16.5973C21.8341 16.0117 11.6448 10.8418 4.71816 2.35912C3.48006 4.41704 2.84428 6.77612 2.86101 9.16867C2.89448 13.7028 5.11971 17.919 8.85074 20.5123C6.6757 20.4956 4.55085 19.9268 2.67697 18.856V19.4081C2.71043 25.7826 7.22783 31.2537 13.502 32.4751C12.3643 32.7093 11.1931 32.8431 10.0219 32.8766C9.2021 32.9101 8.38227 32.8431 7.56245 32.6758C9.33594 38.1134 14.3051 41.8779 20.0271 42.0954C15.2587 45.8767 9.35268 47.9011 3.26256 47.8175C2.17504 47.8509 1.07079 47.784 0 47.6167C6.27416 51.4481 13.4852 53.4893 20.8469 53.5395C41.7942 53.7068 58.8934 36.8586 59.0607 15.9113C59.0607 15.7105 59.0607 14.9576 59.0607 14.7568V13.1507C61.5202 11.1597 63.6952 8.85078 65.5356 6.27419Z" fill="#3C467E"/>
</svg>
