<svg width="185" height="65" viewBox="0 0 185 65" fill="none" xmlns="http://www.w3.org/2000/svg">
<path d="M25.5905 24.1327L29.0188 1.64728H36.1778L29.8254 37.4425H22.5655L18.4314 16.3687L14.2973 37.4425H7.03746L0.685059 1.64728H7.84411L11.1715 24.1327L15.4065 1.64728H21.4564L25.5905 24.1327Z" fill="#A70050"/>
<path d="M55.7392 25.5444H46.3618V31.6951H57.4533V37.4425H39.4044V8.8063H57.4533V14.5537H46.3618V19.6961H55.7392V25.5444Z" fill="#A70050"/>
<path d="M61.5148 37.4425V8.8063H71.1946C74.5221 8.8063 77.0428 9.51213 78.8578 10.8229C80.6728 12.1337 81.4794 14.1504 81.4794 16.6712C81.4794 18.0828 81.1769 19.3936 80.4711 20.5028C79.8661 21.6119 78.8578 22.4186 77.6478 22.9227C78.9586 23.3261 80.0678 24.0319 80.7736 25.141C81.4794 26.2502 81.8828 27.561 81.8828 29.1743C81.8828 31.9976 81.0761 34.115 79.362 35.4259C77.7487 36.7367 75.2279 37.3417 71.9004 37.3417H61.5148V37.4425ZM68.4721 20.7044H71.7996C73.6146 20.7044 74.6229 19.6961 74.6229 17.7803C74.6229 16.6712 74.4212 15.8645 73.9171 15.3604C73.4129 14.8562 72.7071 14.6545 71.7996 14.6545H68.4721V20.7044ZM68.4721 25.5444V31.6951H72.0013C73.0096 31.6951 73.7154 31.3926 74.2196 30.8884C74.7237 30.3843 75.0262 29.6785 75.0262 28.6701C75.0262 26.5527 74.2196 25.5444 72.5054 25.4435H68.4721V25.5444Z" fill="#A70050"/>
<path d="M110.188 25.4435C109.987 29.4768 108.877 32.6026 106.76 34.72C104.643 36.8375 101.618 37.8458 97.786 37.8458C93.7527 37.8458 90.6269 36.535 88.5095 33.8126C86.392 31.1909 85.2828 27.3593 85.2828 22.4186V16.3687C85.2828 11.4279 86.392 7.69716 88.6103 4.9747C90.8286 2.35308 93.9544 0.941437 97.8868 0.941437C101.819 0.941437 104.743 2.05059 106.76 4.16805C108.777 6.38635 109.886 9.51213 110.188 13.5454H102.928C102.828 11.0246 102.525 9.31047 101.718 8.30215C101.013 7.29383 99.7018 6.8905 97.786 6.8905C95.8702 6.8905 94.4585 7.59633 93.6519 8.90714C92.8452 10.2179 92.4419 12.4362 92.3411 15.562V22.3177C92.3411 25.8469 92.7444 28.2668 93.551 29.6785C94.3577 30.9893 95.6685 31.6951 97.6851 31.6951C99.6009 31.6951 100.912 31.1909 101.618 30.2835C102.323 29.376 102.727 27.6618 102.828 25.2419H110.188V25.4435Z" fill="#A70050"/>
<path d="M136.405 23.6286C136.405 26.4519 135.9 28.8718 134.993 30.9893C134.085 33.1067 132.674 34.8209 130.96 35.93C129.245 37.14 127.229 37.6442 125.011 37.6442C122.792 37.6442 120.776 37.0392 119.061 35.93C117.347 34.8209 115.936 33.1067 114.927 30.9893C113.919 28.8718 113.516 26.351 113.516 23.5277V22.4186C113.516 19.5953 114.02 17.0745 114.927 14.957C115.835 12.8396 117.247 11.1254 118.961 10.0163C120.675 8.80631 122.691 8.30215 124.91 8.30215C128.136 8.30215 130.859 9.51213 132.976 11.8313C135.094 14.2512 136.203 17.377 136.405 21.4103V23.6286ZM129.447 22.5194C129.447 19.797 129.044 17.7803 128.237 16.2679C127.431 14.8562 126.321 14.0496 124.91 14.0496C123.397 14.0496 122.288 14.7554 121.481 16.2679C120.675 17.6795 120.372 19.797 120.372 22.5194V23.6286C120.372 26.351 120.776 28.4685 121.582 29.8801C122.389 31.2918 123.498 32.0984 124.91 32.0984C126.321 32.0984 127.431 31.3926 128.237 29.8801C129.044 28.3677 129.447 26.351 129.447 23.7294V22.5194Z" fill="#A70050"/>
<path d="M162.217 37.4425H155.26L147.193 19.6961V37.4425H140.236V8.8063H147.193L155.26 26.5527V8.8063H162.217V37.4425Z" fill="#A70050"/>
<path d="M183.19 26.2502H173.712V37.3417H166.755V8.8063H184.199V14.5537H173.712V20.5028H183.19V26.2502Z" fill="#A70050"/>
<path d="M6.25919 59.0225V43.8218H7.53708V57.8992H13.6586V59.0225H6.25919ZM27.0252 59.0225L31.3432 43.7702H33.3116L37.5987 59.0225H36.2693L35.1048 54.7869H29.5295L28.3546 59.0225H27.0252ZM29.8386 53.6636H34.7956L32.3223 44.6874L29.8386 53.6636ZM58.4631 44.9451H54.3924V59.0225H53.1248V44.9451H49.0541V43.8218H58.4631V44.9451ZM69.9358 59.0225L74.2538 43.7702H76.2222L80.5093 59.0225H79.1799L78.0153 54.7869H72.44L71.2652 59.0225H69.9358ZM72.7492 53.6636H77.7062L75.2328 44.6874L72.7492 53.6636ZM105.001 43.8218H107.186V59.0225H105.97V45.0172L101.786 59.0225H99.9306L95.7362 45.0172V59.0225H94.5202V43.8218H96.7049L100.848 57.9713L105.001 43.8218Z" fill="#272D5B"/>
<path d="M122.512 59.0225V56.4048C122.574 56.2537 122.752 56.0304 123.048 55.735C123.35 55.4327 123.721 55.0926 124.161 54.7147C124.601 54.3369 125.057 53.9521 125.532 53.5605C126.006 53.162 126.445 52.7945 126.851 52.4578C127.332 52.0593 127.799 51.6471 128.252 51.2212C128.712 50.7883 129.09 50.3314 129.386 49.8505C129.681 49.3696 129.829 48.8577 129.829 48.315C129.829 47.6417 129.667 47.1024 129.345 46.697C129.022 46.2917 128.517 46.089 127.83 46.089C126.991 46.089 126.411 46.3569 126.088 46.8928C125.765 47.4287 125.604 48.1329 125.604 49.0055H122.409C122.409 47.3428 122.88 46.0272 123.821 45.0584C124.762 44.0828 126.115 43.595 127.881 43.595C129.022 43.595 129.973 43.8046 130.736 44.2237C131.505 44.6428 132.082 45.213 132.467 45.9344C132.852 46.6489 133.044 47.4528 133.044 48.3459C133.044 48.9574 132.927 49.5276 132.694 50.0566C132.46 50.5788 132.161 51.0631 131.797 51.5097C131.433 51.9494 131.042 52.3548 130.622 52.7258C130.203 53.0899 129.808 53.4197 129.437 53.7151C128.496 54.4571 127.744 55.0686 127.18 55.5495C126.624 56.0304 126.301 56.3739 126.212 56.58H132.952V59.0225H122.512ZM145.528 59.2698C144.559 59.2698 143.735 59.0602 143.055 58.6412C142.382 58.2221 141.835 57.6484 141.416 56.9201C140.997 56.1919 140.688 55.3606 140.489 54.4262C140.296 53.4849 140.2 52.4956 140.2 51.4582C140.2 50.4208 140.296 49.4314 140.489 48.4902C140.688 47.5421 140.997 46.7004 141.416 45.9653C141.835 45.2302 142.382 44.6531 143.055 44.234C143.735 43.808 144.559 43.595 145.528 43.595C146.497 43.595 147.318 43.808 147.991 44.234C148.671 44.6531 149.221 45.2302 149.64 45.9653C150.066 46.7004 150.375 47.5421 150.568 48.4902C150.76 49.4314 150.856 50.4208 150.856 51.4582C150.856 52.4956 150.76 53.4849 150.568 54.4262C150.375 55.3606 150.066 56.1919 149.64 56.9201C149.221 57.6484 148.671 58.2221 147.991 58.6412C147.318 59.0602 146.497 59.2698 145.528 59.2698ZM145.528 56.7862C146.215 56.7862 146.737 56.3774 147.095 55.5598C147.452 54.7422 147.63 53.375 147.63 51.4582C147.63 49.5413 147.452 48.1741 147.095 47.3566C146.737 46.5321 146.215 46.1199 145.528 46.1199C144.841 46.1199 144.319 46.5321 143.962 47.3566C143.604 48.1741 143.426 49.5413 143.426 51.4582C143.426 53.3819 143.604 54.7525 143.962 55.5701C144.319 56.3808 144.841 56.7862 145.528 56.7862ZM157.837 59.0225V56.4048C157.899 56.2537 158.077 56.0304 158.373 55.735C158.675 55.4327 159.046 55.0926 159.486 54.7147C159.925 54.3369 160.382 53.9521 160.856 53.5605C161.33 53.162 161.77 52.7945 162.175 52.4578C162.656 52.0593 163.123 51.6471 163.577 51.2212C164.037 50.7883 164.415 50.3314 164.71 49.8505C165.006 49.3696 165.154 48.8577 165.154 48.315C165.154 47.6417 164.992 47.1024 164.669 46.697C164.346 46.2917 163.841 46.089 163.154 46.089C162.316 46.089 161.736 46.3569 161.413 46.8928C161.09 47.4287 160.928 48.1329 160.928 49.0055H157.734C157.734 47.3428 158.204 46.0272 159.145 45.0584C160.087 44.0828 161.44 43.595 163.206 43.595C164.346 43.595 165.298 43.8046 166.061 44.2237C166.83 44.6428 167.407 45.213 167.792 45.9344C168.177 46.6489 168.369 47.4528 168.369 48.3459C168.369 48.9574 168.252 49.5276 168.019 50.0566C167.785 50.5788 167.486 51.0631 167.122 51.5097C166.758 51.9494 166.366 52.3548 165.947 52.7258C165.528 53.0899 165.133 53.4197 164.762 53.7151C163.821 54.4571 163.068 55.0686 162.505 55.5495C161.949 56.0304 161.626 56.3739 161.536 56.58H168.276V59.0225H157.837ZM182.007 43.8012V59.0225H178.833V46.7898C178.744 46.8585 178.551 46.9478 178.256 47.0577C177.967 47.1608 177.62 47.2604 177.215 47.3566C176.81 47.4528 176.391 47.518 175.958 47.5524V45.0378C176.391 44.9897 176.81 44.897 177.215 44.7596C177.627 44.6222 177.984 44.4676 178.287 44.2958C178.589 44.1241 178.788 43.9592 178.884 43.8012H182.007Z" fill="#272D5B"/>
</svg>
