<svg width="16" height="12" viewBox="0 0 16 12" fill="none" xmlns="http://www.w3.org/2000/svg">
<mask id="mask0" mask-type="alpha" maskUnits="userSpaceOnUse" x="0" y="0" width="16" height="12">
<rect width="16" height="12" fill="white"/>
</mask>
<g mask="url(#mask0)">
<path fill-rule="evenodd" clip-rule="evenodd" d="M4 0H12.5V12H4V0Z" fill="#F7FCFF"/>
<path fill-rule="evenodd" clip-rule="evenodd" d="M12 0H16V12H12V0Z" fill="#F50101"/>
<path fill-rule="evenodd" clip-rule="evenodd" d="M0 0H4V12H0V0Z" fill="#F50101"/>
<path d="M7.87059 4.37257L7.88734 4.55355C7.38811 4.60404 7.11841 4.36011 7.11841 3.85384C7.11841 3.35148 7.38229 3.08446 7.87843 3.0813L7.87949 3.26311C7.47751 3.26567 7.29232 3.45307 7.29232 3.85384C7.29232 4.2507 7.47168 4.41292 7.87059 4.37257Z" fill="#A2BB6A"/>
<path d="M8.09157 4.37257L8.07482 4.55355C8.57404 4.60404 8.84375 4.36011 8.84375 3.85384C8.84375 3.35148 8.57987 3.08446 8.08372 3.0813L8.08267 3.26311C8.48465 3.26567 8.66984 3.45307 8.66984 3.85384C8.66984 4.2507 8.49048 4.41292 8.09157 4.37257Z" fill="#A2BB6A"/>
<mask id="path-7-outside-1" maskUnits="userSpaceOnUse" x="5.58838" y="3.4408" width="5" height="6" fill="black">
<rect fill="white" x="5.58838" y="3.4408" width="5" height="6"/>
<path fill-rule="evenodd" clip-rule="evenodd" d="M8.04328 4.45277C8.05659 4.44522 8.06401 4.4408 8.06401 4.4408V4.46436C8.16027 4.51747 8.40264 4.64191 8.56023 4.64191C8.76058 4.64191 9.03289 4.4408 9.03289 4.4408L9.48854 5.08416C9.48854 5.08416 9.18168 5.72731 9.41648 6.51322C9.65128 7.29912 9.40405 7.90511 8.35989 7.9724C8.35989 7.9724 8.15415 8.01149 8.06401 8.07379V8.13135C8.06401 8.11703 8.05633 8.10342 8.04328 8.09062C8.03023 8.10342 8.02254 8.11703 8.02254 8.13135V8.07379C7.9324 8.01149 7.72666 7.9724 7.72666 7.9724C6.68251 7.90511 6.43528 7.29912 6.67008 6.51322C6.90488 5.72731 6.59802 5.08416 6.59802 5.08416L7.05367 4.4408C7.05367 4.4408 7.32598 4.64191 7.52632 4.64191C7.68391 4.64191 7.92628 4.51747 8.02254 4.46436V4.4408C8.02254 4.4408 8.02997 4.44522 8.04328 4.45277Z"/>
</mask>
<path fill-rule="evenodd" clip-rule="evenodd" d="M8.04328 4.45277C8.05659 4.44522 8.06401 4.4408 8.06401 4.4408V4.46436C8.16027 4.51747 8.40264 4.64191 8.56023 4.64191C8.76058 4.64191 9.03289 4.4408 9.03289 4.4408L9.48854 5.08416C9.48854 5.08416 9.18168 5.72731 9.41648 6.51322C9.65128 7.29912 9.40405 7.90511 8.35989 7.9724C8.35989 7.9724 8.15415 8.01149 8.06401 8.07379V8.13135C8.06401 8.11703 8.05633 8.10342 8.04328 8.09062C8.03023 8.10342 8.02254 8.11703 8.02254 8.13135V8.07379C7.9324 8.01149 7.72666 7.9724 7.72666 7.9724C6.68251 7.90511 6.43528 7.29912 6.67008 6.51322C6.90488 5.72731 6.59802 5.08416 6.59802 5.08416L7.05367 4.4408C7.05367 4.4408 7.32598 4.64191 7.52632 4.64191C7.68391 4.64191 7.92628 4.51747 8.02254 4.46436V4.4408C8.02254 4.4408 8.02997 4.44522 8.04328 4.45277Z" fill="#E8AA00"/>
<path d="M8.06401 4.4408H8.56401V3.56062L7.80798 4.01132L8.06401 4.4408ZM8.04328 4.45277L7.79672 4.88775L8.04328 5.0275L8.28984 4.88775L8.04328 4.45277ZM8.06401 4.46436H7.56401V4.75955L7.82248 4.90215L8.06401 4.46436ZM9.03289 4.4408L9.44093 4.15182L9.14614 3.73558L8.73585 4.03859L9.03289 4.4408ZM9.48854 5.08416L9.9398 5.29947L10.0662 5.03464L9.89657 4.79519L9.48854 5.08416ZM9.41648 6.51322L8.9374 6.65635L8.9374 6.65635L9.41648 6.51322ZM8.35989 7.9724L8.32774 7.47343L8.29691 7.47542L8.26655 7.48119L8.35989 7.9724ZM8.06401 8.07379L7.77972 7.66248L7.56401 7.81157V8.07379H8.06401ZM8.04328 8.09062L8.39339 7.73365L8.04328 7.39026L7.69317 7.73365L8.04328 8.09062ZM8.02254 8.07379H8.52254V7.81157L8.30683 7.66248L8.02254 8.07379ZM7.72666 7.9724L7.82 7.48119L7.78965 7.47542L7.75882 7.47343L7.72666 7.9724ZM6.59802 5.08416L6.18999 4.79519L6.0204 5.03464L6.14675 5.29947L6.59802 5.08416ZM7.05367 4.4408L7.3507 4.03859L6.94042 3.73558L6.64563 4.15182L7.05367 4.4408ZM8.02254 4.46436L8.26408 4.90215L8.52254 4.75955V4.46436H8.02254ZM8.02254 4.4408L8.27857 4.01132L7.52254 3.56062V4.4408H8.02254ZM8.06401 4.4408C7.80798 4.01132 7.80799 4.01132 7.808 4.01131C7.808 4.01131 7.80801 4.0113 7.80802 4.0113C7.80803 4.0113 7.80804 4.01129 7.80805 4.01128C7.80807 4.01127 7.80809 4.01126 7.80811 4.01125C7.80815 4.01122 7.80819 4.0112 7.80822 4.01118C7.8083 4.01114 7.80836 4.0111 7.80842 4.01106C7.80854 4.01099 7.80863 4.01094 7.8087 4.0109C7.80882 4.01082 7.80885 4.01081 7.80876 4.01086C7.80859 4.01096 7.80801 4.0113 7.80704 4.01187C7.80508 4.01301 7.80158 4.01503 7.79672 4.01779L8.28984 4.88775C8.29828 4.88296 8.30515 4.879 8.31024 4.87604C8.31278 4.87456 8.31489 4.87332 8.31653 4.87235C8.31735 4.87187 8.31806 4.87145 8.31864 4.8711C8.31894 4.87093 8.3192 4.87077 8.31943 4.87063C8.31955 4.87056 8.31966 4.8705 8.31976 4.87044C8.31981 4.87041 8.31986 4.87038 8.31991 4.87035C8.31993 4.87034 8.31996 4.87032 8.31998 4.87031C8.31999 4.8703 8.32 4.8703 8.32001 4.87029C8.32002 4.87029 8.32003 4.87028 8.32003 4.87028C8.32004 4.87028 8.32004 4.87027 8.06401 4.4408ZM8.56401 4.46436V4.4408H7.56401V4.46436H8.56401ZM7.82248 4.90215C7.87922 4.93345 7.98262 4.98791 8.0999 5.03586C8.20125 5.0773 8.3779 5.14191 8.56023 5.14191V4.14191C8.58117 4.14191 8.58327 4.14516 8.55981 4.13884C8.53941 4.13335 8.51181 4.12392 8.47835 4.11024C8.41099 4.08269 8.34507 4.04837 8.30555 4.02657L7.82248 4.90215ZM8.56023 5.14191C8.79418 5.14191 9.0073 5.03636 9.10924 4.98132C9.17161 4.94764 9.22459 4.91455 9.26201 4.88993C9.28096 4.87747 9.29652 4.86678 9.30798 4.85874C9.31373 4.8547 9.31848 4.85131 9.32216 4.84866C9.324 4.84733 9.32558 4.84619 9.32687 4.84524C9.32752 4.84477 9.3281 4.84434 9.32861 4.84397C9.32887 4.84378 9.3291 4.84361 9.32932 4.84345C9.32943 4.84337 9.32954 4.84329 9.32964 4.84321C9.32969 4.84318 9.32976 4.84312 9.32979 4.8431C9.32986 4.84305 9.32993 4.843 9.03289 4.4408C8.73585 4.03859 8.73592 4.03854 8.73599 4.03849C8.73601 4.03848 8.73608 4.03843 8.73612 4.0384C8.7362 4.03833 8.73628 4.03827 8.73636 4.03822C8.73651 4.0381 8.73665 4.038 8.73677 4.03791C8.73702 4.03773 8.73721 4.0376 8.73733 4.0375C8.73759 4.03732 8.73761 4.0373 8.73741 4.03745C8.737 4.03775 8.73571 4.03867 8.73361 4.04014C8.7294 4.0431 8.72213 4.04811 8.71241 4.0545C8.69251 4.0676 8.66489 4.08478 8.63415 4.10138C8.60241 4.11852 8.57439 4.1312 8.55298 4.13871C8.52795 4.1475 8.53273 4.14191 8.56023 4.14191V5.14191ZM8.62486 4.72977L9.0805 5.37314L9.89657 4.79519L9.44093 4.15182L8.62486 4.72977ZM9.48854 5.08416C9.03727 4.86885 9.03719 4.86903 9.0371 4.8692C9.03707 4.86926 9.03699 4.86944 9.03693 4.86957C9.03681 4.86981 9.03669 4.87007 9.03656 4.87034C9.03631 4.87088 9.03604 4.87146 9.03575 4.87207C9.03516 4.87331 9.03451 4.87472 9.03378 4.87628C9.03234 4.87942 9.03061 4.8832 9.02863 4.88763C9.02468 4.89648 9.01972 4.90789 9.01397 4.92175C9.00249 4.94943 8.9878 4.98703 8.97172 5.03351C8.93966 5.12621 8.90153 5.25587 8.87261 5.41404C8.81496 5.72929 8.79192 6.16941 8.9374 6.65635L9.89555 6.37009C9.80623 6.07111 9.81922 5.79671 9.8563 5.59391C9.87474 5.49305 9.89866 5.41281 9.9168 5.36036C9.92582 5.33427 9.93327 5.31548 9.93765 5.30492C9.93983 5.29966 9.94123 5.29649 9.94166 5.29553C9.94187 5.29505 9.94184 5.29513 9.94154 5.29578C9.94139 5.29611 9.94117 5.29658 9.94088 5.29719C9.94074 5.2975 9.94058 5.29784 9.9404 5.29822C9.94031 5.29841 9.94021 5.29861 9.94011 5.29882C9.94006 5.29892 9.93999 5.29909 9.93996 5.29914C9.93988 5.29931 9.9398 5.29947 9.48854 5.08416ZM8.9374 6.65635C9.03617 6.98695 8.99675 7.1634 8.945 7.24536C8.90185 7.31371 8.76723 7.44511 8.32774 7.47343L8.39205 8.47136C8.99671 8.4324 9.50778 8.22715 9.79058 7.77921C10.0648 7.34488 10.0316 6.82539 9.89555 6.37009L8.9374 6.65635ZM8.35989 7.9724C8.26655 7.48119 8.2665 7.4812 8.26645 7.48121C8.26643 7.48121 8.26638 7.48122 8.26634 7.48123C8.26627 7.48124 8.26619 7.48126 8.26611 7.48127C8.26594 7.4813 8.26577 7.48134 8.26558 7.48137C8.2652 7.48144 8.26478 7.48153 8.26429 7.48162C8.26333 7.48181 8.26217 7.48203 8.26081 7.4823C8.25809 7.48284 8.25458 7.48354 8.25036 7.48441C8.24194 7.48613 8.23059 7.48853 8.21699 7.49158C8.19014 7.4976 8.15278 7.50653 8.11091 7.51826C8.0482 7.53582 7.90053 7.57898 7.77972 7.66248L8.34831 8.48511C8.32449 8.50156 8.31313 8.50403 8.32944 8.49769C8.34137 8.49305 8.35896 8.48727 8.3806 8.4812C8.40144 8.47537 8.42114 8.47063 8.43568 8.46737C8.44278 8.46578 8.44821 8.46464 8.45139 8.46399C8.45298 8.46367 8.45397 8.46347 8.45431 8.4634C8.45448 8.46337 8.45448 8.46337 8.4543 8.4634C8.45421 8.46342 8.45408 8.46344 8.4539 8.46348C8.45381 8.4635 8.45371 8.46352 8.4536 8.46354C8.45355 8.46355 8.45349 8.46356 8.45342 8.46357C8.45339 8.46358 8.45335 8.46359 8.45333 8.46359C8.45328 8.4636 8.45323 8.46361 8.35989 7.9724ZM8.56401 8.13135V8.07379H7.56401V8.13135H8.56401ZM7.69317 8.44758C7.65818 8.41326 7.56401 8.30609 7.56401 8.13135H8.56401C8.56401 7.92798 8.45448 7.79357 8.39339 7.73365L7.69317 8.44758ZM7.69317 7.73365C7.63208 7.79357 7.52254 7.92798 7.52254 8.13135H8.52254C8.52254 8.30609 8.42838 8.41326 8.39339 8.44758L7.69317 7.73365ZM8.52254 8.13135V8.07379H7.52254V8.13135H8.52254ZM7.72666 7.9724C7.63333 8.46361 7.63328 8.4636 7.63323 8.46359C7.63321 8.46359 7.63316 8.46358 7.63313 8.46357C7.63307 8.46356 7.63301 8.46355 7.63295 8.46354C7.63284 8.46352 7.63274 8.4635 7.63265 8.46348C7.63247 8.46344 7.63234 8.46342 7.63225 8.4634C7.63208 8.46337 7.63208 8.46337 7.63225 8.4634C7.63258 8.46347 7.63358 8.46367 7.63516 8.46399C7.63835 8.46464 7.64378 8.46578 7.65087 8.46737C7.66541 8.47063 7.68512 8.47537 7.70595 8.4812C7.7276 8.48727 7.74518 8.49305 7.75711 8.49769C7.77342 8.50403 7.76206 8.50156 7.73825 8.48511L8.30683 7.66248C8.18603 7.57898 8.03836 7.53582 7.97565 7.51826C7.93378 7.50653 7.89642 7.4976 7.86957 7.49158C7.85597 7.48853 7.84461 7.48613 7.8362 7.48441C7.83198 7.48354 7.82847 7.48284 7.82575 7.4823C7.82439 7.48203 7.82322 7.48181 7.82226 7.48162C7.82178 7.48153 7.82135 7.48144 7.82098 7.48137C7.82079 7.48134 7.82061 7.4813 7.82045 7.48127C7.82037 7.48126 7.82029 7.48124 7.82022 7.48123C7.82018 7.48122 7.82013 7.48121 7.82011 7.48121C7.82006 7.4812 7.82 7.48119 7.72666 7.9724ZM6.191 6.37009C6.05497 6.82539 6.02176 7.34488 6.29597 7.77921C6.57878 8.22715 7.08985 8.4324 7.69451 8.47136L7.75882 7.47343C7.31933 7.44511 7.18471 7.31371 7.14155 7.24536C7.08981 7.1634 7.05038 6.98695 7.14915 6.65635L6.191 6.37009ZM6.59802 5.08416C6.14675 5.29947 6.14667 5.29931 6.14659 5.29914C6.14657 5.29909 6.14649 5.29892 6.14644 5.29882C6.14634 5.29861 6.14625 5.29841 6.14616 5.29822C6.14598 5.29784 6.14582 5.2975 6.14567 5.29719C6.14538 5.29658 6.14517 5.29611 6.14502 5.29578C6.14471 5.29513 6.14468 5.29505 6.1449 5.29553C6.14532 5.29649 6.14673 5.29966 6.14891 5.30492C6.15329 5.31548 6.16074 5.33427 6.16976 5.36036C6.1879 5.41281 6.21181 5.49305 6.23026 5.59391C6.26734 5.79671 6.28033 6.07111 6.191 6.37009L7.14915 6.65635C7.29463 6.16941 7.27159 5.72929 7.21395 5.41404C7.18502 5.25587 7.1469 5.12621 7.11484 5.03351C7.09876 4.98703 7.08407 4.94943 7.07259 4.92175C7.06684 4.90789 7.06188 4.89648 7.05792 4.88763C7.05595 4.8832 7.05422 4.87942 7.05277 4.87628C7.05205 4.87472 7.05139 4.87331 7.05081 4.87207C7.05052 4.87146 7.05025 4.87088 7.04999 4.87034C7.04987 4.87007 7.04974 4.86981 7.04963 4.86957C7.04957 4.86944 7.04948 4.86926 7.04945 4.8692C7.04937 4.86903 7.04929 4.86885 6.59802 5.08416ZM6.64563 4.15182L6.18999 4.79519L7.00605 5.37314L7.4617 4.72977L6.64563 4.15182ZM7.52632 4.14191C7.55382 4.14191 7.5586 4.1475 7.53358 4.13871C7.51217 4.1312 7.48415 4.11852 7.45241 4.10138C7.42167 4.08478 7.39404 4.0676 7.37414 4.0545C7.36443 4.04811 7.35716 4.0431 7.35294 4.04014C7.35085 4.03867 7.34956 4.03775 7.34915 4.03745C7.34895 4.0373 7.34897 4.03732 7.34922 4.0375C7.34935 4.0376 7.34954 4.03773 7.34978 4.03791C7.34991 4.038 7.35004 4.03811 7.3502 4.03822C7.35027 4.03827 7.35035 4.03833 7.35044 4.0384C7.35048 4.03843 7.35055 4.03848 7.35057 4.03849C7.35064 4.03854 7.3507 4.03859 7.05367 4.4408C6.75663 4.843 6.7567 4.84305 6.75677 4.8431C6.75679 4.84312 6.75687 4.84318 6.75692 4.84321C6.75702 4.84329 6.75712 4.84337 6.75723 4.84345C6.75745 4.84361 6.75769 4.84378 6.75795 4.84397C6.75845 4.84434 6.75903 4.84477 6.75968 4.84524C6.76098 4.84619 6.76255 4.84733 6.76439 4.84866C6.76807 4.85131 6.77283 4.8547 6.77857 4.85874C6.79004 4.86678 6.8056 4.87747 6.82455 4.88993C6.86197 4.91455 6.91494 4.94764 6.97732 4.98132C7.07926 5.03636 7.29238 5.14191 7.52632 5.14191V4.14191ZM7.78101 4.02657C7.74149 4.04837 7.67557 4.08269 7.6082 4.11024C7.57475 4.12392 7.54715 4.13335 7.52675 4.13884C7.50329 4.14516 7.50539 4.14191 7.52632 4.14191V5.14191C7.70866 5.14191 7.88531 5.0773 7.98666 5.03586C8.10394 4.98791 8.20734 4.93345 8.26408 4.90215L7.78101 4.02657ZM8.52254 4.46436V4.4408H7.52254V4.46436H8.52254ZM8.02254 4.4408C7.76651 4.87027 7.76652 4.87028 7.76653 4.87028C7.76653 4.87028 7.76654 4.87029 7.76654 4.87029C7.76656 4.8703 7.76657 4.8703 7.76658 4.87031C7.7666 4.87032 7.76662 4.87034 7.76665 4.87035C7.76669 4.87038 7.76674 4.87041 7.76679 4.87044C7.7669 4.8705 7.76701 4.87056 7.76712 4.87063C7.76736 4.87077 7.76762 4.87093 7.76791 4.8711C7.7685 4.87145 7.76921 4.87187 7.77003 4.87235C7.77167 4.87332 7.77377 4.87456 7.77632 4.87604C7.78141 4.879 7.78828 4.88296 7.79672 4.88775L8.28984 4.01779C8.28497 4.01503 8.28147 4.01301 8.27952 4.01187C8.27854 4.0113 8.27796 4.01096 8.27779 4.01086C8.27771 4.01081 8.27773 4.01082 8.27786 4.0109C8.27792 4.01094 8.27802 4.01099 8.27813 4.01106C8.27819 4.0111 8.27826 4.01114 8.27833 4.01118C8.27837 4.0112 8.27841 4.01122 8.27845 4.01125C8.27847 4.01126 8.27849 4.01127 8.27851 4.01128C8.27852 4.01129 8.27853 4.0113 8.27854 4.0113C8.27854 4.0113 8.27855 4.01131 8.27856 4.01131C8.27856 4.01132 8.27857 4.01132 8.02254 4.4408Z" fill="#E8AA00" mask="url(#path-7-outside-1)"/>
<mask id="mask1" mask-type="alpha" maskUnits="userSpaceOnUse" x="6" y="3" width="5" height="6">
<mask id="path-9-outside-2" mask-type="luminance" maskUnits="userSpaceOnUse" x="5.58838" y="3.4408" width="5" height="6" fill="black">
<rect fill="white" x="5.58838" y="3.4408" width="5" height="6"/>
<path fill-rule="evenodd" clip-rule="evenodd" d="M8.04328 4.45277C8.05659 4.44522 8.06401 4.4408 8.06401 4.4408V4.46436C8.16027 4.51747 8.40264 4.64191 8.56023 4.64191C8.76058 4.64191 9.03289 4.4408 9.03289 4.4408L9.48854 5.08416C9.48854 5.08416 9.18168 5.72731 9.41648 6.51322C9.65128 7.29912 9.40405 7.90511 8.35989 7.9724C8.35989 7.9724 8.15415 8.01149 8.06401 8.07379V8.13135C8.06401 8.11703 8.05633 8.10342 8.04328 8.09062C8.03023 8.10342 8.02254 8.11703 8.02254 8.13135V8.07379C7.9324 8.01149 7.72666 7.9724 7.72666 7.9724C6.68251 7.90511 6.43528 7.29912 6.67008 6.51322C6.90488 5.72731 6.59802 5.08416 6.59802 5.08416L7.05367 4.4408C7.05367 4.4408 7.32598 4.64191 7.52632 4.64191C7.68391 4.64191 7.92628 4.51747 8.02254 4.46436V4.4408C8.02254 4.4408 8.02997 4.44522 8.04328 4.45277Z"/>
</mask>
<path fill-rule="evenodd" clip-rule="evenodd" d="M8.04328 4.45277C8.05659 4.44522 8.06401 4.4408 8.06401 4.4408V4.46436C8.16027 4.51747 8.40264 4.64191 8.56023 4.64191C8.76058 4.64191 9.03289 4.4408 9.03289 4.4408L9.48854 5.08416C9.48854 5.08416 9.18168 5.72731 9.41648 6.51322C9.65128 7.29912 9.40405 7.90511 8.35989 7.9724C8.35989 7.9724 8.15415 8.01149 8.06401 8.07379V8.13135C8.06401 8.11703 8.05633 8.10342 8.04328 8.09062C8.03023 8.10342 8.02254 8.11703 8.02254 8.13135V8.07379C7.9324 8.01149 7.72666 7.9724 7.72666 7.9724C6.68251 7.90511 6.43528 7.29912 6.67008 6.51322C6.90488 5.72731 6.59802 5.08416 6.59802 5.08416L7.05367 4.4408C7.05367 4.4408 7.32598 4.64191 7.52632 4.64191C7.68391 4.64191 7.92628 4.51747 8.02254 4.46436V4.4408C8.02254 4.4408 8.02997 4.44522 8.04328 4.45277Z" fill="white"/>
<path d="M8.06401 4.4408H8.56401V3.56062L7.80798 4.01132L8.06401 4.4408ZM8.04328 4.45277L7.79672 4.88775L8.04328 5.0275L8.28984 4.88775L8.04328 4.45277ZM8.06401 4.46436H7.56401V4.75955L7.82248 4.90215L8.06401 4.46436ZM9.03289 4.4408L9.44093 4.15182L9.14614 3.73558L8.73585 4.03859L9.03289 4.4408ZM9.48854 5.08416L9.9398 5.29947L10.0662 5.03464L9.89657 4.79519L9.48854 5.08416ZM9.41648 6.51322L8.9374 6.65635L8.9374 6.65635L9.41648 6.51322ZM8.35989 7.9724L8.32774 7.47343L8.29691 7.47542L8.26655 7.48119L8.35989 7.9724ZM8.06401 8.07379L7.77972 7.66248L7.56401 7.81157V8.07379H8.06401ZM8.04328 8.09062L8.39339 7.73365L8.04328 7.39026L7.69317 7.73365L8.04328 8.09062ZM8.02254 8.07379H8.52254V7.81157L8.30683 7.66248L8.02254 8.07379ZM7.72666 7.9724L7.82 7.48119L7.78965 7.47542L7.75882 7.47343L7.72666 7.9724ZM6.59802 5.08416L6.18999 4.79519L6.0204 5.03464L6.14675 5.29947L6.59802 5.08416ZM7.05367 4.4408L7.3507 4.03859L6.94042 3.73558L6.64563 4.15182L7.05367 4.4408ZM8.02254 4.46436L8.26408 4.90215L8.52254 4.75955V4.46436H8.02254ZM8.02254 4.4408L8.27857 4.01132L7.52254 3.56062V4.4408H8.02254ZM8.06401 4.4408C7.80798 4.01132 7.80799 4.01132 7.808 4.01131C7.808 4.01131 7.80801 4.0113 7.80802 4.0113C7.80803 4.0113 7.80804 4.01129 7.80805 4.01128C7.80807 4.01127 7.80809 4.01126 7.80811 4.01125C7.80815 4.01122 7.80819 4.0112 7.80822 4.01118C7.8083 4.01114 7.80836 4.0111 7.80842 4.01106C7.80854 4.01099 7.80863 4.01094 7.8087 4.0109C7.80882 4.01082 7.80885 4.01081 7.80876 4.01086C7.80859 4.01096 7.80801 4.0113 7.80704 4.01187C7.80508 4.01301 7.80158 4.01503 7.79672 4.01779L8.28984 4.88775C8.29828 4.88296 8.30515 4.879 8.31024 4.87604C8.31278 4.87456 8.31489 4.87332 8.31653 4.87235C8.31735 4.87187 8.31806 4.87145 8.31864 4.8711C8.31894 4.87093 8.3192 4.87077 8.31943 4.87063C8.31955 4.87056 8.31966 4.8705 8.31976 4.87044C8.31981 4.87041 8.31986 4.87038 8.31991 4.87035C8.31993 4.87034 8.31996 4.87032 8.31998 4.87031C8.31999 4.8703 8.32 4.8703 8.32001 4.87029C8.32002 4.87029 8.32003 4.87028 8.32003 4.87028C8.32004 4.87028 8.32004 4.87027 8.06401 4.4408ZM8.56401 4.46436V4.4408H7.56401V4.46436H8.56401ZM7.82248 4.90215C7.87922 4.93345 7.98262 4.98791 8.0999 5.03586C8.20125 5.0773 8.3779 5.14191 8.56023 5.14191V4.14191C8.58117 4.14191 8.58327 4.14516 8.55981 4.13884C8.53941 4.13335 8.51181 4.12392 8.47835 4.11024C8.41099 4.08269 8.34507 4.04837 8.30555 4.02657L7.82248 4.90215ZM8.56023 5.14191C8.79418 5.14191 9.0073 5.03636 9.10924 4.98132C9.17161 4.94764 9.22459 4.91455 9.26201 4.88993C9.28096 4.87747 9.29652 4.86678 9.30798 4.85874C9.31373 4.8547 9.31848 4.85131 9.32216 4.84866C9.324 4.84733 9.32558 4.84619 9.32687 4.84524C9.32752 4.84477 9.3281 4.84434 9.32861 4.84397C9.32887 4.84378 9.3291 4.84361 9.32932 4.84345C9.32943 4.84337 9.32954 4.84329 9.32964 4.84321C9.32969 4.84318 9.32976 4.84312 9.32979 4.8431C9.32986 4.84305 9.32993 4.843 9.03289 4.4408C8.73585 4.03859 8.73592 4.03854 8.73599 4.03849C8.73601 4.03848 8.73608 4.03843 8.73612 4.0384C8.7362 4.03833 8.73628 4.03827 8.73636 4.03822C8.73651 4.0381 8.73665 4.038 8.73677 4.03791C8.73702 4.03773 8.73721 4.0376 8.73733 4.0375C8.73759 4.03732 8.73761 4.0373 8.73741 4.03745C8.737 4.03775 8.73571 4.03867 8.73361 4.04014C8.7294 4.0431 8.72213 4.04811 8.71241 4.0545C8.69251 4.0676 8.66489 4.08478 8.63415 4.10138C8.60241 4.11852 8.57439 4.1312 8.55298 4.13871C8.52795 4.1475 8.53273 4.14191 8.56023 4.14191V5.14191ZM8.62486 4.72977L9.0805 5.37314L9.89657 4.79519L9.44093 4.15182L8.62486 4.72977ZM9.48854 5.08416C9.03727 4.86885 9.03719 4.86903 9.0371 4.8692C9.03707 4.86926 9.03699 4.86944 9.03693 4.86957C9.03681 4.86981 9.03669 4.87007 9.03656 4.87034C9.03631 4.87088 9.03604 4.87146 9.03575 4.87207C9.03516 4.87331 9.03451 4.87472 9.03378 4.87628C9.03234 4.87942 9.03061 4.8832 9.02863 4.88763C9.02468 4.89648 9.01972 4.90789 9.01397 4.92175C9.00249 4.94943 8.9878 4.98703 8.97172 5.03351C8.93966 5.12621 8.90153 5.25587 8.87261 5.41404C8.81496 5.72929 8.79192 6.16941 8.9374 6.65635L9.89555 6.37009C9.80623 6.07111 9.81922 5.79671 9.8563 5.59391C9.87474 5.49305 9.89866 5.41281 9.9168 5.36036C9.92582 5.33427 9.93327 5.31548 9.93765 5.30492C9.93983 5.29966 9.94123 5.29649 9.94166 5.29553C9.94187 5.29505 9.94184 5.29513 9.94154 5.29578C9.94139 5.29611 9.94117 5.29658 9.94088 5.29719C9.94074 5.2975 9.94058 5.29784 9.9404 5.29822C9.94031 5.29841 9.94021 5.29861 9.94011 5.29882C9.94006 5.29892 9.93999 5.29909 9.93996 5.29914C9.93988 5.29931 9.9398 5.29947 9.48854 5.08416ZM8.9374 6.65635C9.03617 6.98695 8.99675 7.1634 8.945 7.24536C8.90185 7.31371 8.76723 7.44511 8.32774 7.47343L8.39205 8.47136C8.99671 8.4324 9.50778 8.22715 9.79058 7.77921C10.0648 7.34488 10.0316 6.82539 9.89555 6.37009L8.9374 6.65635ZM8.35989 7.9724C8.26655 7.48119 8.2665 7.4812 8.26645 7.48121C8.26643 7.48121 8.26638 7.48122 8.26634 7.48123C8.26627 7.48124 8.26619 7.48126 8.26611 7.48127C8.26594 7.4813 8.26577 7.48134 8.26558 7.48137C8.2652 7.48144 8.26478 7.48153 8.26429 7.48162C8.26333 7.48181 8.26217 7.48203 8.26081 7.4823C8.25809 7.48284 8.25458 7.48354 8.25036 7.48441C8.24194 7.48613 8.23059 7.48853 8.21699 7.49158C8.19014 7.4976 8.15278 7.50653 8.11091 7.51826C8.0482 7.53582 7.90053 7.57898 7.77972 7.66248L8.34831 8.48511C8.32449 8.50156 8.31313 8.50403 8.32944 8.49769C8.34137 8.49305 8.35896 8.48727 8.3806 8.4812C8.40144 8.47537 8.42114 8.47063 8.43568 8.46737C8.44278 8.46578 8.44821 8.46464 8.45139 8.46399C8.45298 8.46367 8.45397 8.46347 8.45431 8.4634C8.45448 8.46337 8.45448 8.46337 8.4543 8.4634C8.45421 8.46342 8.45408 8.46344 8.4539 8.46348C8.45381 8.4635 8.45371 8.46352 8.4536 8.46354C8.45355 8.46355 8.45349 8.46356 8.45342 8.46357C8.45339 8.46358 8.45335 8.46359 8.45333 8.46359C8.45328 8.4636 8.45323 8.46361 8.35989 7.9724ZM8.56401 8.13135V8.07379H7.56401V8.13135H8.56401ZM7.69317 8.44758C7.65818 8.41326 7.56401 8.30609 7.56401 8.13135H8.56401C8.56401 7.92798 8.45448 7.79357 8.39339 7.73365L7.69317 8.44758ZM7.69317 7.73365C7.63208 7.79357 7.52254 7.92798 7.52254 8.13135H8.52254C8.52254 8.30609 8.42838 8.41326 8.39339 8.44758L7.69317 7.73365ZM8.52254 8.13135V8.07379H7.52254V8.13135H8.52254ZM7.72666 7.9724C7.63333 8.46361 7.63328 8.4636 7.63323 8.46359C7.63321 8.46359 7.63316 8.46358 7.63313 8.46357C7.63307 8.46356 7.63301 8.46355 7.63295 8.46354C7.63284 8.46352 7.63274 8.4635 7.63265 8.46348C7.63247 8.46344 7.63234 8.46342 7.63225 8.4634C7.63208 8.46337 7.63208 8.46337 7.63225 8.4634C7.63258 8.46347 7.63358 8.46367 7.63516 8.46399C7.63835 8.46464 7.64378 8.46578 7.65087 8.46737C7.66541 8.47063 7.68512 8.47537 7.70595 8.4812C7.7276 8.48727 7.74518 8.49305 7.75711 8.49769C7.77342 8.50403 7.76206 8.50156 7.73825 8.48511L8.30683 7.66248C8.18603 7.57898 8.03836 7.53582 7.97565 7.51826C7.93378 7.50653 7.89642 7.4976 7.86957 7.49158C7.85597 7.48853 7.84461 7.48613 7.8362 7.48441C7.83198 7.48354 7.82847 7.48284 7.82575 7.4823C7.82439 7.48203 7.82322 7.48181 7.82226 7.48162C7.82178 7.48153 7.82135 7.48144 7.82098 7.48137C7.82079 7.48134 7.82061 7.4813 7.82045 7.48127C7.82037 7.48126 7.82029 7.48124 7.82022 7.48123C7.82018 7.48122 7.82013 7.48121 7.82011 7.48121C7.82006 7.4812 7.82 7.48119 7.72666 7.9724ZM6.191 6.37009C6.05497 6.82539 6.02176 7.34488 6.29597 7.77921C6.57878 8.22715 7.08985 8.4324 7.69451 8.47136L7.75882 7.47343C7.31933 7.44511 7.18471 7.31371 7.14155 7.24536C7.08981 7.1634 7.05038 6.98695 7.14915 6.65635L6.191 6.37009ZM6.59802 5.08416C6.14675 5.29947 6.14667 5.29931 6.14659 5.29914C6.14657 5.29909 6.14649 5.29892 6.14644 5.29882C6.14634 5.29861 6.14625 5.29841 6.14616 5.29822C6.14598 5.29784 6.14582 5.2975 6.14567 5.29719C6.14538 5.29658 6.14517 5.29611 6.14502 5.29578C6.14471 5.29513 6.14468 5.29505 6.1449 5.29553C6.14532 5.29649 6.14673 5.29966 6.14891 5.30492C6.15329 5.31548 6.16074 5.33427 6.16976 5.36036C6.1879 5.41281 6.21181 5.49305 6.23026 5.59391C6.26734 5.79671 6.28033 6.07111 6.191 6.37009L7.14915 6.65635C7.29463 6.16941 7.27159 5.72929 7.21395 5.41404C7.18502 5.25587 7.1469 5.12621 7.11484 5.03351C7.09876 4.98703 7.08407 4.94943 7.07259 4.92175C7.06684 4.90789 7.06188 4.89648 7.05792 4.88763C7.05595 4.8832 7.05422 4.87942 7.05277 4.87628C7.05205 4.87472 7.05139 4.87331 7.05081 4.87207C7.05052 4.87146 7.05025 4.87088 7.04999 4.87034C7.04987 4.87007 7.04974 4.86981 7.04963 4.86957C7.04957 4.86944 7.04948 4.86926 7.04945 4.8692C7.04937 4.86903 7.04929 4.86885 6.59802 5.08416ZM6.64563 4.15182L6.18999 4.79519L7.00605 5.37314L7.4617 4.72977L6.64563 4.15182ZM7.52632 4.14191C7.55382 4.14191 7.5586 4.1475 7.53358 4.13871C7.51217 4.1312 7.48415 4.11852 7.45241 4.10138C7.42167 4.08478 7.39404 4.0676 7.37414 4.0545C7.36443 4.04811 7.35716 4.0431 7.35294 4.04014C7.35085 4.03867 7.34956 4.03775 7.34915 4.03745C7.34895 4.0373 7.34897 4.03732 7.34922 4.0375C7.34935 4.0376 7.34954 4.03773 7.34978 4.03791C7.34991 4.038 7.35004 4.03811 7.3502 4.03822C7.35027 4.03827 7.35035 4.03833 7.35044 4.0384C7.35048 4.03843 7.35055 4.03848 7.35057 4.03849C7.35064 4.03854 7.3507 4.03859 7.05367 4.4408C6.75663 4.843 6.7567 4.84305 6.75677 4.8431C6.75679 4.84312 6.75687 4.84318 6.75692 4.84321C6.75702 4.84329 6.75712 4.84337 6.75723 4.84345C6.75745 4.84361 6.75769 4.84378 6.75795 4.84397C6.75845 4.84434 6.75903 4.84477 6.75968 4.84524C6.76098 4.84619 6.76255 4.84733 6.76439 4.84866C6.76807 4.85131 6.77283 4.8547 6.77857 4.85874C6.79004 4.86678 6.8056 4.87747 6.82455 4.88993C6.86197 4.91455 6.91494 4.94764 6.97732 4.98132C7.07926 5.03636 7.29238 5.14191 7.52632 5.14191V4.14191ZM7.78101 4.02657C7.74149 4.04837 7.67557 4.08269 7.6082 4.11024C7.57475 4.12392 7.54715 4.13335 7.52675 4.13884C7.50329 4.14516 7.50539 4.14191 7.52632 4.14191V5.14191C7.70866 5.14191 7.88531 5.0773 7.98666 5.03586C8.10394 4.98791 8.20734 4.93345 8.26408 4.90215L7.78101 4.02657ZM8.52254 4.46436V4.4408H7.52254V4.46436H8.52254ZM8.02254 4.4408C7.76651 4.87027 7.76652 4.87028 7.76653 4.87028C7.76653 4.87028 7.76654 4.87029 7.76654 4.87029C7.76656 4.8703 7.76657 4.8703 7.76658 4.87031C7.7666 4.87032 7.76662 4.87034 7.76665 4.87035C7.76669 4.87038 7.76674 4.87041 7.76679 4.87044C7.7669 4.8705 7.76701 4.87056 7.76712 4.87063C7.76736 4.87077 7.76762 4.87093 7.76791 4.8711C7.7685 4.87145 7.76921 4.87187 7.77003 4.87235C7.77167 4.87332 7.77377 4.87456 7.77632 4.87604C7.78141 4.879 7.78828 4.88296 7.79672 4.88775L8.28984 4.01779C8.28497 4.01503 8.28147 4.01301 8.27952 4.01187C8.27854 4.0113 8.27796 4.01096 8.27779 4.01086C8.27771 4.01081 8.27773 4.01082 8.27786 4.0109C8.27792 4.01094 8.27802 4.01099 8.27813 4.01106C8.27819 4.0111 8.27826 4.01114 8.27833 4.01118C8.27837 4.0112 8.27841 4.01122 8.27845 4.01125C8.27847 4.01126 8.27849 4.01127 8.27851 4.01128C8.27852 4.01129 8.27853 4.0113 8.27854 4.0113C8.27854 4.0113 8.27855 4.01131 8.27856 4.01131C8.27856 4.01132 8.27857 4.01132 8.02254 4.4408Z" fill="white" mask="url(#path-9-outside-2)"/>
</mask>
<g mask="url(#mask1)">
<rect x="6.6521" y="4.36365" width="1.3913" height="1.90909" fill="#67BAFF"/>
<rect x="8.04346" y="4.36365" width="1.3913" height="1.90909" fill="white"/>
<rect x="6.47803" y="6.45459" width="3.47826" height="2.18182" fill="#C51918"/>
<path d="M8.71737 6.13755H8.54346V4.8302H8.71737V6.13755Z" fill="#C9A951"/>
<path d="M8.64669 5.54286L8.56191 5.6947L8.26172 5.52709L8.3465 5.37524L8.64669 5.54286Z" fill="#C9A951"/>
<path d="M8.64669 5.17921L8.56191 5.33105L8.26172 5.16344L8.3465 5.0116L8.64669 5.17921Z" fill="#C9A951"/>
<path d="M8.60966 5.54286L8.69444 5.6947L8.99463 5.52709L8.90984 5.37524L8.60966 5.54286Z" fill="#C9A951"/>
<path d="M8.60966 5.17921L8.69444 5.33105L8.99463 5.16344L8.90984 5.0116L8.60966 5.17921Z" fill="#C9A951"/>
<path fill-rule="evenodd" clip-rule="evenodd" d="M7.68805 4.78503C7.58322 4.87673 7.65085 5.21181 7.47907 5.21181C7.3073 5.21181 7.06556 4.9609 7.00469 5.12646C6.94382 5.29203 7.00469 5.2364 7.00469 5.37742C7.00469 5.51844 6.85889 5.91029 6.93179 5.97653C7.00469 6.04277 7.07939 6.21732 7.06645 6.13561C7.0535 6.0539 6.99839 5.93391 7.02135 5.80357C6.99915 5.6689 7.14421 5.53938 7.14421 5.53938C7.14421 5.53938 7.12847 5.67919 7.11705 5.73131C7.11705 5.73131 7.06922 5.83653 7.08864 5.90641C7.08864 5.90641 7.13775 6.10336 7.158 6.11697C7.158 6.11697 7.17115 5.65062 7.18611 5.57377C7.20106 5.49691 7.30767 5.66046 7.34314 5.64193C7.34314 5.64193 7.35531 5.96081 7.33687 5.99881C7.33687 5.99881 7.29948 6.07424 7.31339 6.09833C7.31339 6.09833 7.34807 6.18564 7.37766 6.16021C7.37766 6.16021 7.3787 6.15839 7.3937 6.07342C7.3937 6.07342 7.37627 6.02211 7.40355 5.90527C7.40355 5.90527 7.43227 5.64801 7.44416 5.70383C7.44416 5.70383 7.43882 5.82529 7.45252 5.8879C7.45252 5.8879 7.4744 6.04332 7.47879 6.06039C7.47879 6.06039 7.58374 6.20988 7.58653 6.14674C7.58653 6.14674 7.48593 6.02678 7.50748 5.93549C7.50748 5.93549 7.44988 5.67687 7.53028 5.61921C7.53028 5.61921 7.74359 5.52054 7.75642 5.35165C7.75642 5.35165 7.78732 5.15918 7.79287 5.07094C7.79287 5.07094 7.74608 5.045 7.8428 4.99944C7.8428 4.99944 7.9985 4.93968 7.90148 4.85658" fill="#D18219"/>
</g>
<path d="M6.1001 3.84326L6.48676 4.1531C5.98311 4.98186 6.1001 5.76167 6.1001 6.26312C6.1001 7.18781 6.79494 8.25503 8.00539 8.25503C8.90506 8.25503 9.88292 7.55468 10.1137 6.69896C10.2955 6.02517 9.87846 4.44188 9.56381 4.02865L9.93597 3.84326C10.4243 4.48461 11.3503 5.95424 11.0792 6.95938C10.7271 8.26476 9.34448 9.25503 8.00539 9.25503C6.13017 9.25503 5.1001 7.67294 5.1001 6.26312C5.1001 5.54714 5.50987 4.81448 6.1001 3.84326Z" fill="#00A854"/>
<path fill-rule="evenodd" clip-rule="evenodd" d="M8 7.59998C8.55228 7.59998 9 7.37612 9 7.09998C9 6.82383 8.55228 6.59998 8 6.59998C7.44772 6.59998 7 6.82383 7 7.09998C7 7.37612 7.44772 7.59998 8 7.59998Z" fill="#FDD200"/>
<rect x="6.5" y="8" width="3" height="1" fill="#CA0000"/>
</g>
</svg>
