<svg width="16" height="12" viewBox="0 0 16 12" fill="none" xmlns="http://www.w3.org/2000/svg">
<mask id="mask0" mask-type="alpha" maskUnits="userSpaceOnUse" x="0" y="0" width="16" height="12">
<rect width="16" height="12" fill="white"/>
</mask>
<g mask="url(#mask0)">
<path fill-rule="evenodd" clip-rule="evenodd" d="M0 0V12H16V0H0Z" fill="#F7FCFF"/>
<mask id="mask1" mask-type="alpha" maskUnits="userSpaceOnUse" x="0" y="0" width="16" height="12">
<path fill-rule="evenodd" clip-rule="evenodd" d="M0 0V12H16V0H0Z" fill="white"/>
</mask>
<g mask="url(#mask1)">
<path fill-rule="evenodd" clip-rule="evenodd" d="M0 0V4H16V0H0Z" fill="#3D58DB"/>
<path fill-rule="evenodd" clip-rule="evenodd" d="M0 8V12H16V8H0Z" fill="#3D58DB"/>
<path d="M9.71259 5.92917C9.71259 6.93482 8.89735 7.75007 7.8917 7.75007C6.88604 7.75007 6.0708 6.93482 6.0708 5.92917C6.0708 4.92352 6.88604 4.10828 7.8917 4.10828C8.89735 4.10828 9.71259 4.92352 9.71259 5.92917Z" stroke="#E8AA00" stroke-width="0.5"/>
<path fill-rule="evenodd" clip-rule="evenodd" d="M6.90523 4.83118C6.90523 4.83118 6.42896 5.61501 6.42896 6.15311C6.42896 6.69121 6.99905 7.36756 7.89598 7.36756C8.77089 7.36756 9.39973 6.84495 9.41875 6.15311C9.43776 5.46127 8.94809 4.96876 8.94809 4.96876C8.94809 4.96876 9.22522 5.96482 9.08666 6.36843C8.94809 6.77205 8.49957 7.26038 7.89598 7.19821C7.2924 7.13604 6.71959 6.39312 6.71959 6.15311C6.71959 5.9131 6.90523 4.83118 6.90523 4.83118Z" fill="#1E601B"/>
<path d="M7.08008 6.16417H8.68373" stroke="#188396" stroke-width="0.5"/>
<path d="M7.22949 5.90306H8.60926" stroke="#E8AA00" stroke-width="0.5"/>
<path d="M8.52467 6.20567H7.29657L7.91623 5.17751L8.52467 6.20567Z" stroke="#E8AA00" stroke-width="0.5"/>
</g>
</g>
</svg>
