<svg width="288" height="332" viewBox="0 0 288 332" fill="none" xmlns="http://www.w3.org/2000/svg">
<path d="M38.9645 231.99L44.3281 196.812H55.5284L45.5901 252.813H34.232L27.7642 219.843L21.2964 252.813H9.93832L0 196.812H11.2003L16.4061 231.99L23.0317 196.812H32.4967L38.9645 231.99Z" fill="#A70050"/>
<path d="M86.1321 234.199H71.4613V243.822H88.8139V252.813H60.5764V208.012H88.8139V217.004H71.4613V225.049H86.1321V234.199Z" fill="#A70050"/>
<path d="M95.168 252.813V208.012H110.312C115.518 208.012 119.462 209.116 122.301 211.167C125.141 213.218 126.403 216.373 126.403 220.317C126.403 222.525 125.929 224.576 124.825 226.311C123.879 228.046 122.301 229.308 120.408 230.097C122.459 230.728 124.194 231.832 125.298 233.568C126.403 235.303 127.034 237.354 127.034 239.878C127.034 244.295 125.772 247.608 123.09 249.658C120.566 251.709 116.622 252.656 111.416 252.656H95.168V252.813ZM106.053 226.627H111.259C114.098 226.627 115.676 225.049 115.676 222.052C115.676 220.317 115.36 219.055 114.571 218.266C113.783 217.477 112.678 217.162 111.259 217.162H106.053V226.627ZM106.053 234.199V243.822H111.574C113.152 243.822 114.256 243.348 115.045 242.56C115.833 241.771 116.307 240.667 116.307 239.089C116.307 235.776 115.045 234.199 112.363 234.041H106.053V234.199Z" fill="#A70050"/>
<path d="M171.318 234.041C171.002 240.351 169.267 245.241 165.954 248.554C162.641 251.867 157.909 253.444 151.914 253.444C145.604 253.444 140.714 251.394 137.401 247.134C134.088 243.033 132.353 237.038 132.353 229.308V219.843C132.353 212.114 134.088 206.277 137.559 202.017C141.03 197.916 145.92 195.707 152.072 195.707C158.224 195.707 162.799 197.443 165.954 200.755C169.109 204.226 170.845 209.116 171.318 215.426H159.96C159.802 211.483 159.329 208.801 158.067 207.223C156.962 205.646 154.912 205.015 151.914 205.015C148.917 205.015 146.709 206.119 145.447 208.17C144.185 210.221 143.554 213.691 143.396 218.581V229.151C143.396 234.672 144.027 238.458 145.289 240.667C146.551 242.717 148.602 243.822 151.757 243.822C154.754 243.822 156.805 243.033 157.909 241.613C159.013 240.193 159.644 237.511 159.802 233.725H171.318V234.041Z" fill="#A70050"/>
<path d="M212.333 231.201C212.333 235.618 211.544 239.404 210.124 242.717C208.705 246.03 206.496 248.712 203.814 250.447C201.133 252.34 197.978 253.129 194.507 253.129C191.037 253.129 187.882 252.182 185.2 250.447C182.518 248.712 180.309 246.03 178.732 242.717C177.154 239.404 176.523 235.461 176.523 231.044V229.308C176.523 224.891 177.312 220.947 178.732 217.635C180.152 214.322 182.36 211.64 185.042 209.905C187.724 208.012 190.879 207.223 194.349 207.223C199.397 207.223 203.657 209.116 206.969 212.744C210.282 216.53 212.017 221.421 212.333 227.731V231.201ZM201.448 229.466C201.448 225.207 200.817 222.052 199.555 219.685C198.293 217.477 196.558 216.215 194.349 216.215C191.983 216.215 190.248 217.319 188.986 219.685C187.724 221.894 187.251 225.207 187.251 229.466V231.201C187.251 235.461 187.882 238.773 189.144 240.982C190.406 243.19 192.141 244.452 194.349 244.452C196.558 244.452 198.293 243.348 199.555 240.982C200.817 238.616 201.448 235.461 201.448 231.359V229.466Z" fill="#A70050"/>
<path d="M252.717 252.813H241.832L229.212 225.049V252.813H218.328V208.012H229.212L241.832 235.776V208.012H252.717V252.813Z" fill="#A70050"/>
<path d="M285.529 235.303H270.701V252.656H259.816V208.012H287.107V217.004H270.701V226.311H285.529V235.303Z" fill="#A70050"/>
<path d="M8.72078 286.543V262.762H10.72V284.786H20.2971V286.543H8.72078ZM41.2092 286.543L47.9648 262.681H51.0443L57.7515 286.543H55.6716L53.8497 279.917H45.1271L43.2891 286.543H41.2092ZM45.6108 278.159H53.366L49.4965 264.116L45.6108 278.159ZM90.3938 264.519H84.0252V286.543H82.0421V264.519H75.6735V262.762H90.3938V264.519ZM108.343 286.543L115.098 262.681H118.178L124.885 286.543H122.805L120.983 279.917H112.261L110.423 286.543H108.343ZM112.744 278.159H120.5L116.63 264.116L112.744 278.159ZM163.202 262.762H166.62V286.543H164.718V264.632L158.172 286.543H155.27L148.708 264.632V286.543H146.805V262.762H150.223L156.705 284.899L163.202 262.762Z" fill="#272D5B"/>
<path d="M190.598 286.543V282.448C190.695 282.211 190.974 281.862 191.437 281.4C191.91 280.927 192.49 280.395 193.178 279.804C193.866 279.213 194.581 278.611 195.322 277.998C196.064 277.375 196.752 276.799 197.386 276.273C198.138 275.649 198.869 275.004 199.579 274.338C200.299 273.661 200.89 272.946 201.352 272.194C201.814 271.441 202.046 270.64 202.046 269.791C202.046 268.738 201.793 267.894 201.288 267.26C200.783 266.626 199.993 266.309 198.918 266.309C197.606 266.309 196.698 266.728 196.193 267.566C195.688 268.405 195.435 269.506 195.435 270.872H190.437C190.437 268.27 191.173 266.212 192.646 264.696C194.118 263.17 196.236 262.407 198.998 262.407C200.783 262.407 202.271 262.735 203.464 263.39C204.668 264.046 205.571 264.938 206.173 266.067C206.775 267.185 207.076 268.442 207.076 269.84C207.076 270.796 206.893 271.688 206.528 272.516C206.162 273.333 205.695 274.091 205.125 274.789C204.555 275.477 203.943 276.112 203.287 276.692C202.631 277.262 202.013 277.778 201.433 278.24C199.96 279.401 198.783 280.357 197.902 281.11C197.031 281.862 196.526 282.4 196.386 282.722H206.931V286.543H190.598ZM226.607 286.93C225.091 286.93 223.802 286.602 222.737 285.947C221.684 285.291 220.83 284.393 220.174 283.254C219.518 282.115 219.035 280.814 218.723 279.352C218.422 277.88 218.271 276.332 218.271 274.709C218.271 273.086 218.422 271.538 218.723 270.065C219.035 268.582 219.518 267.265 220.174 266.115C220.83 264.965 221.684 264.062 222.737 263.407C223.802 262.74 225.091 262.407 226.607 262.407C228.123 262.407 229.407 262.74 230.46 263.407C231.524 264.062 232.384 264.965 233.04 266.115C233.706 267.265 234.19 268.582 234.491 270.065C234.792 271.538 234.943 273.086 234.943 274.709C234.943 276.332 234.792 277.88 234.491 279.352C234.19 280.814 233.706 282.115 233.04 283.254C232.384 284.393 231.524 285.291 230.46 285.947C229.407 286.602 228.123 286.93 226.607 286.93ZM226.607 283.044C227.682 283.044 228.499 282.405 229.058 281.126C229.617 279.847 229.896 277.708 229.896 274.709C229.896 271.71 229.617 269.571 229.058 268.292C228.499 267.002 227.682 266.357 226.607 266.357C225.532 266.357 224.715 267.002 224.156 268.292C223.597 269.571 223.318 271.71 223.318 274.709C223.318 277.718 223.597 279.863 224.156 281.142C224.715 282.41 225.532 283.044 226.607 283.044ZM245.864 286.543V282.448C245.96 282.211 246.24 281.862 246.702 281.4C247.175 280.927 247.755 280.395 248.443 279.804C249.131 279.213 249.846 278.611 250.588 277.998C251.329 277.375 252.017 276.799 252.651 276.273C253.404 275.649 254.135 275.004 254.844 274.338C255.564 273.661 256.156 272.946 256.618 272.194C257.08 271.441 257.311 270.64 257.311 269.791C257.311 268.738 257.058 267.894 256.553 267.26C256.048 266.626 255.258 266.309 254.183 266.309C252.872 266.309 251.964 266.728 251.458 267.566C250.953 268.405 250.701 269.506 250.701 270.872H245.702C245.702 268.27 246.439 266.212 247.911 264.696C249.384 263.17 251.501 262.407 254.264 262.407C256.048 262.407 257.537 262.735 258.73 263.39C259.934 264.046 260.837 264.938 261.439 266.067C262.04 267.185 262.341 268.442 262.341 269.84C262.341 270.796 262.159 271.688 261.793 272.516C261.428 273.333 260.96 274.091 260.391 274.789C259.821 275.477 259.208 276.112 258.553 276.692C257.897 277.262 257.279 277.778 256.698 278.24C255.226 279.401 254.049 280.357 253.167 281.11C252.297 281.862 251.792 282.4 251.652 282.722H262.196V286.543H245.864ZM283.678 262.729V286.543H278.712V267.405C278.573 267.513 278.272 267.652 277.809 267.824C277.358 267.986 276.815 268.141 276.181 268.292C275.547 268.442 274.891 268.544 274.214 268.598V264.664C274.891 264.589 275.547 264.444 276.181 264.229C276.826 264.014 277.385 263.772 277.858 263.503C278.331 263.235 278.642 262.977 278.793 262.729H283.678Z" fill="#272D5B"/>
<path d="M150.712 180.337L232.414 108.054L210.295 0L158.437 45.931L193.362 106.361L150.712 180.337Z" fill="#3C467E"/>
<path d="M136.319 180.337L54.6165 108.054L76.6295 0L128.487 45.931L93.5625 106.361L136.319 180.337Z" fill="#3C467E"/>
<path d="M150.606 57.4668L143.515 45.2962L107.215 108.266L143.621 171.13L179.921 108.266L150.606 57.4668Z" fill="#A70050"/>
<g opacity="0.8">
<path d="M66.9875 322.582C66.9875 324.076 66.6526 325.181 65.9828 325.897C65.3181 326.608 64.3881 326.964 63.1927 326.964C61.9973 326.964 61.0647 326.608 60.3949 325.897C59.7302 325.181 59.3979 324.076 59.3979 322.582V315.417H60.3563V322.543C60.3563 323.8 60.5984 324.707 61.0828 325.264C61.5723 325.82 62.2756 326.098 63.1927 326.098C64.1099 326.098 64.8132 325.82 65.3027 325.264C65.7922 324.707 66.0369 323.8 66.0369 322.543V315.417H66.9875V322.582ZM70.2808 326.817H69.3456V315.417H70.9069L76.1547 326.09V315.417H77.0898V326.817H75.5055L70.2808 316.167V326.817ZM89.3062 325.975V326.817H83.3087V315.417H89.3062V316.26H84.2671V320.673H88.6029V321.523H84.2671V325.975H89.3062ZM94.3769 326.894L91.1772 315.417H92.2283L95.057 325.967L97.8548 315.417H98.9059L95.7449 326.894H94.3769ZM106.59 325.975V326.817H100.593V315.417H106.59V316.26H101.551V320.673H105.887V321.523H101.551V325.975H106.59ZM109.876 326.817H108.94V315.417H110.502L115.749 326.09V315.417H116.685V326.817H115.1L109.876 316.167V326.817ZM125.616 316.26H122.563V326.817H121.613V316.26H118.56V315.417H125.616V316.26ZM130.562 326.964C129.696 326.964 128.929 326.732 128.259 326.268C127.589 325.799 127.064 325.13 126.682 324.259C126.301 323.383 126.11 322.332 126.11 321.105C126.11 319.874 126.301 318.825 126.682 317.96C127.069 317.094 127.597 316.435 128.267 315.981C128.936 315.523 129.702 315.293 130.562 315.293C131.428 315.293 132.195 315.523 132.865 315.981C133.535 316.435 134.061 317.094 134.442 317.96C134.828 318.825 135.022 319.874 135.022 321.105C135.022 322.332 134.828 323.383 134.442 324.259C134.061 325.13 133.535 325.799 132.865 326.268C132.195 326.732 131.428 326.964 130.562 326.964ZM130.562 326.098C131.247 326.098 131.85 325.905 132.371 325.519C132.896 325.132 133.306 324.568 133.6 323.826C133.898 323.084 134.048 322.177 134.048 321.105C134.048 320.029 133.898 319.124 133.6 318.393C133.301 317.656 132.888 317.099 132.363 316.723C131.843 316.347 131.242 316.159 130.562 316.159C129.887 316.159 129.287 316.347 128.761 316.723C128.236 317.099 127.824 317.656 127.525 318.393C127.226 319.124 127.076 320.029 127.076 321.105C127.076 322.182 127.226 323.092 127.525 323.834C127.824 324.576 128.236 325.14 128.761 325.526C129.287 325.908 129.887 326.098 130.562 326.098ZM140.882 326.817V315.417H143.463C144.463 315.417 145.328 315.644 146.06 316.097C146.797 316.551 147.366 317.202 147.768 318.053C148.17 318.903 148.371 319.926 148.371 321.121C148.371 322.311 148.17 323.331 147.768 324.182C147.366 325.032 146.797 325.683 146.06 326.137C145.328 326.59 144.463 326.817 143.463 326.817H140.882ZM143.363 316.26H141.856V325.975H143.363C144.166 325.975 144.87 325.781 145.473 325.395C146.081 325.003 146.552 324.444 146.887 323.718C147.227 322.991 147.397 322.126 147.397 321.121C147.397 320.111 147.227 319.243 146.887 318.516C146.552 317.79 146.081 317.233 145.473 316.847C144.87 316.455 144.166 316.26 143.363 316.26ZM156.359 325.975V326.817H150.362V315.417H156.359V316.26H151.32V320.673H155.656V321.523H151.32V325.975H156.359Z" fill="#272D5B"/>
<path d="M192.061 322.951C192.008 324.086 191.687 324.944 191.097 325.526C190.507 326.108 189.672 326.4 188.592 326.402C187.458 326.402 186.589 326.032 185.985 325.292C185.381 324.551 185.08 323.496 185.082 322.125V320.45C185.082 319.084 185.393 318.031 186.017 317.291C186.64 316.551 187.507 316.181 188.619 316.181C189.711 316.181 190.541 316.484 191.108 317.091C191.675 317.697 191.997 318.566 192.074 319.697H190.044C190.025 319.002 189.916 318.518 189.716 318.245C189.517 317.984 189.152 317.846 188.619 317.846C188.393 317.826 188.167 317.868 187.964 317.967C187.761 318.067 187.59 318.22 187.469 318.409C187.248 318.787 187.125 319.407 187.111 320.272V322.151C187.111 323.14 187.223 323.818 187.445 324.187C187.567 324.374 187.738 324.525 187.941 324.622C188.143 324.72 188.368 324.76 188.592 324.739C189.117 324.739 189.49 324.611 189.692 324.353C189.895 324.095 190.008 323.629 190.036 322.957L192.061 322.951Z" fill="#272D5B"/>
<path d="M199.389 322.446C199.404 323.152 199.268 323.854 198.99 324.504C198.754 325.064 198.36 325.543 197.856 325.886C197.358 326.213 196.772 326.383 196.175 326.373C195.581 326.382 194.997 326.216 194.498 325.896C193.989 325.555 193.59 325.076 193.35 324.515C193.066 323.862 192.927 323.157 192.94 322.446V322.138C192.925 321.423 193.062 320.713 193.342 320.054C193.58 319.494 193.975 319.014 194.482 318.672C194.984 318.344 195.574 318.175 196.175 318.188C196.602 318.176 197.027 318.259 197.417 318.431C197.808 318.603 198.155 318.859 198.433 319.181C199.022 319.842 199.341 320.727 199.392 321.833L199.389 322.446ZM197.441 322.125C197.474 321.529 197.36 320.934 197.107 320.392C197.025 320.213 196.892 320.06 196.725 319.953C196.557 319.846 196.363 319.789 196.164 319.789C195.964 319.789 195.77 319.846 195.602 319.953C195.435 320.06 195.302 320.213 195.22 320.392C194.976 320.937 194.865 321.53 194.897 322.125V322.438C194.862 323.038 194.979 323.637 195.235 324.181C195.319 324.359 195.452 324.509 195.618 324.615C195.785 324.721 195.978 324.779 196.175 324.781C196.371 324.778 196.562 324.718 196.725 324.61C196.888 324.502 197.017 324.35 197.094 324.171C197.343 323.64 197.459 323.057 197.433 322.472L197.441 322.125Z" fill="#272D5B"/>
<path d="M200.655 326.266V316.319H203.307C204.476 316.319 205.408 316.688 206.103 317.424C206.799 318.164 207.153 319.173 207.167 320.457V322.071C207.167 323.375 206.816 324.401 206.116 325.148C205.416 325.895 204.466 326.268 203.265 326.266H200.655ZM202.679 317.995V324.598H203.286C203.961 324.598 204.433 324.421 204.709 324.077C204.985 323.733 205.129 323.116 205.142 322.253V320.512C205.142 319.584 205.013 318.936 204.751 318.568C204.488 318.201 204.045 318.01 203.417 317.992L202.679 317.995Z" fill="#272D5B"/>
<path d="M213.009 322.959H210.383V324.671H213.505V326.266H208.448V318.305H213.505V319.918H210.393V321.354H213.019L213.009 322.959Z" fill="#272D5B"/>
<path d="M219.363 324.228H216.603L216.065 326.266H213.925L217.058 316.322H218.909L222.059 326.266H219.899L219.363 324.228ZM217.042 322.555H218.914L217.969 319.011L217.042 322.555Z" fill="#272D5B"/>
<path d="M225.473 323.525H224.78V326.266H222.824V318.305H225.728C226.615 318.305 227.303 318.513 227.791 318.928C228.04 319.149 228.235 319.423 228.362 319.729C228.489 320.036 228.544 320.367 228.524 320.697C228.541 321.174 228.443 321.648 228.24 322.081C228.029 322.47 227.703 322.786 227.306 322.985L228.771 326.183V326.266H226.67L225.473 323.525ZM224.78 321.919H225.693C226.282 321.919 226.576 321.585 226.576 320.916C226.576 320.254 226.295 319.923 225.735 319.918H224.78V321.919Z" fill="#272D5B"/>
<path d="M168.931 331.82L179.126 322.863L176.416 309.665L170.028 315.276L174.323 322.668L168.931 331.82Z" fill="#272D5B"/>
<path d="M168.655 315.276L167.63 313.509L162.304 322.668L167.579 331.734L167.63 331.82L167.696 331.698L172.949 322.668L168.655 315.276Z" fill="#272D5B"/>
</g>
</svg>
