<?xml version="1.0" encoding="utf-8"?>
<!-- Generator: Adobe Illustrator 16.0.0, SVG Export Plug-In . SVG Version: 6.00 Build 0)  -->
<!DOCTYPE svg PUBLIC "-//W3C//DTD SVG 1.1//EN" "http://www.w3.org/Graphics/SVG/1.1/DTD/svg11.dtd">
<svg version="1.1" id="Layer_1" xmlns="http://www.w3.org/2000/svg" xmlns:xlink="http://www.w3.org/1999/xlink" x="0px" y="0px"
	 width="97.21px" height="47.338px" viewBox="0 0 97.21 47.338" enable-background="new 0 0 97.21 47.338" xml:space="preserve">
<g>
	<g>
		<path fill="#0093E1" d="M32.9,18.209c-0.021-0.346-0.042-0.693-0.061-1.042l-6.153,3.984c-0.1,2.771-0.273,5.818-0.519,9.144
			l6.424,4.649C33.041,28.967,33.143,23.389,32.9,18.209 M32.625,14.262c0.004,0.052,0.008,0.105,0.012,0.158
			c-0.002-0.053-0.006-0.107-0.012-0.162V14.262 M57.802,2.24c0.333,0.212,0.64,0.446,0.92,0.701
			c0.448,0.408,0.836,0.867,1.163,1.378c1.04,1.551,1.55,3.713,1.528,6.485c-0.02,4.426-2.129,8.107-6.331,11.045
			c-4.161,2.918-9.189,4.602-15.085,5.05c-1.467,2.591-2.089,5.345-1.865,8.261c8.646-1.633,15.377-4.682,20.192-9.148
			c4.589-4.264,6.913-9.313,6.976-15.146c0-2.467-0.668-4.587-2.002-6.359c-0.314-0.405-0.646-0.784-0.998-1.135
			c-0.224-0.184-0.438-0.368-0.64-0.551c-0.121-0.085-0.244-0.166-0.369-0.243C59.987,2.188,58.824,2.076,57.802,2.24 M30.849,4.044
			c-0.203-0.386-0.458-0.703-0.766-0.949c-0.118-0.088-0.237-0.169-0.357-0.243c-0.502-0.298-1.097-0.473-1.783-0.522
			c-0.368-0.041-0.765-0.03-1.192,0.032c-0.224,0.041-0.632,0.132-1.224,0.275c-0.219,0.058-0.438,0.127-0.657,0.207
			c0.967,1.558,1.563,4.613,1.787,9.164c0.273-0.176,0.545-0.351,0.819-0.523l3.936-2.484c0.18-0.114,0.359-0.226,0.539-0.336
			c-0.224-1.265-0.469-2.478-0.733-3.64C31.115,4.657,30.992,4.33,30.849,4.044 M95.986,4.624c-0.549-0.468-1.139-0.865-1.771-1.191
			c-1.264-0.633-2.753-1.072-4.467-1.317c1.446,1.613,2.2,4.745,2.262,9.395c2.57-0.857,4.303-2.316,5.201-4.377
			C96.945,6.235,96.537,5.399,95.986,4.624 M96.597,24.054c-1.896-1.694-3.589-2.378-5.078-2.051
			c-0.019,2.713-1.1,5.221-3.242,7.526c-2.222,2.344-4.732,3.672-7.531,3.984c1.399,0.424,2.959,0.584,4.678,0.479
			c-0.018,0.003-0.035,0.006-0.053,0.008c0.012-0.001,0.021-0.002,0.033-0.004c2.363-0.305,4.586-1.171,6.666-2.598
			C94.905,29.458,96.414,27.009,96.597,24.054z"/>
		<path fill="#0061AC" d="M32.839,17.167c-0.007-0.105-0.013-0.21-0.021-0.316c-0.06-0.81-0.121-1.621-0.182-2.432
			c-0.004-0.053-0.008-0.105-0.012-0.158c-0.016,0.01-0.032,0.021-0.049,0.032c-1.96,1.438-3.913,2.907-5.856,4.406
			c0,0.396-0.001,0.799-0.004,1.208l-0.029,1.244L32.839,17.167 M12.011,22.258v-0.004c0.018-0.022,0.036-0.045,0.053-0.069
			c-0.46,0.344-0.917,0.691-1.37,1.042c-1.288,1-2.575,1.999-3.862,2.999c-0.732,2.162-1.17,3.986-1.313,5.476
			c-0.205,1.306,0.1,2.029,0.916,2.173c0.081,0.021,0.164,0.032,0.248,0.032c-0.838-0.573-0.492-2.257,1.037-5.05
			C8.709,27.017,10.14,24.818,12.011,22.258 M57.802,2.24c1.021-0.165,2.185-0.053,3.489,0.336c-1.438-0.886-3.15-1.264-5.14-1.135
			C56.759,1.661,57.31,1.927,57.802,2.24 M95.986,4.624c-0.28-0.343-0.562-0.687-0.844-1.029C94.683,3.097,94.16,2.646,93.57,2.24
			c-1.196-0.765-2.266-1.281-3.21-1.548c-0.532-0.148-1.025-0.217-1.479-0.207c-1.191,0.027-2.012,0.068-2.464,0.125
			c-0.011,0.001-0.022,0.003-0.032,0.004c-0.012,0.001-0.021,0.003-0.033,0.004c1.387,0.081,2.519,0.58,3.396,1.496
			c1.714,0.246,3.203,0.685,4.467,1.317C94.847,3.759,95.437,4.156,95.986,4.624z"/>
		<g>
			<path fill="#00CCFF" d="M55.999,1.442c0.04,0,0.092,0,0.153,0c1.989-0.129,3.702,0.249,5.14,1.135
				c0.125,0.077,0.248,0.158,0.369,0.243c-0.94-0.735-2.021-1.327-3.243-1.775c-1.98-0.754-4.173-1.1-6.578-1.037
				c-2.326,0.059-4.561,0.497-6.703,1.313c-4.202,2.081-8.607,4.538-13.217,7.373c-0.168,0.103-0.337,0.205-0.507,0.308
				l-3.936,2.484c-0.273,0.172-0.546,0.347-0.819,0.523c-0.011,0.007-0.022,0.013-0.032,0.02c-0.651,0.43-1.304,0.858-1.958,1.285
				c-0.551,0.368-1.092,0.725-1.621,1.07c-3.772,2.551-7.434,5.151-10.984,7.802c-0.017,0.023-0.035,0.046-0.053,0.069v0.004
				c-1.871,2.56-3.302,4.759-4.292,6.599c-1.529,2.793-1.875,4.477-1.037,5.05c0.019,0,0.039,0,0.061,0
				c0.1,0,0.212-0.011,0.336-0.032c0.592-0.104,1.285-0.459,2.079-1.07c5.242-4.366,10.219-8.385,14.932-12.054
				c0.875-0.673,1.752-1.356,2.63-2.051c1.943-1.499,3.896-2.967,5.856-4.406c0.017-0.011,0.033-0.022,0.049-0.032v-0.004
				c2.449-1.832,4.897-3.625,7.344-5.378c5.18-3.713,9.635-6.038,13.367-6.976C54.276,1.658,55.164,1.504,55.999,1.442"/>
			<path fill="#00CCFF" d="M30.083,3.095c0.308,0.246,0.563,0.563,0.766,0.949c-0.286-0.938-0.908-1.723-1.864-2.355
				c-0.856-0.592-1.908-1.011-3.153-1.256c-1.162-0.243-2.314-0.315-3.457-0.215c-1.162,0.103-2.09,0.358-2.785,0.766
				c-4.588,2.713-8.525,6.252-11.811,10.619c-0.692,0.897-1.333,1.824-1.925,2.78C3.06,18.831,1.123,23.736,0.042,29.1
				c-0.125,0.591,0.028,1.214,0.458,1.868c0.386,0.592,0.947,1.143,1.682,1.654c0.735,0.488,1.5,0.846,2.294,1.069
				c0.632,0.202,1.367,0.274,2.205,0.215c-0.084,0-0.167-0.011-0.248-0.032c-0.816-0.144-1.121-0.867-0.916-2.173
				c0.143-1.489,0.581-3.313,1.313-5.476c0.205-0.57,0.42-1.162,0.644-1.775c1.203-3.099,2.691-6.117,4.467-9.054
				c0.203-0.349,0.406-0.687,0.612-1.013c1.816-2.854,3.702-5.239,5.658-7.158c2.246-2.224,4.459-3.682,6.643-4.374
				c0.005-0.002,0.011-0.004,0.016-0.008c0.219-0.08,0.438-0.149,0.657-0.207c0.591-0.143,1-0.235,1.224-0.275
				c0.427-0.062,0.824-0.073,1.192-0.032c0.687,0.05,1.281,0.224,1.783,0.522C29.846,2.926,29.965,3.007,30.083,3.095"/>
			<path fill="#00CCFF" d="M88.88,0.485c0.454-0.01,0.947,0.059,1.479,0.207c-1.388-0.416-2.938-0.624-4.652-0.624
				c-4.345,0.019-8.159,1.068-11.442,3.149c-1.102,0.673-2.082,1.438-2.938,2.294c-0.857,0.816-1.591,1.694-2.201,2.634
				c-0.838,1.203-1.49,2.537-1.958,4.004c-0.165,0.451-0.308,0.901-0.43,1.35c-0.062,0.306-0.134,0.6-0.215,0.884
				c-0.103,0.43-0.194,0.849-0.275,1.256c-0.081,0.43-0.142,0.858-0.183,1.285c-0.124,0.838-0.186,1.654-0.186,2.448
				c0,2.916,0.714,5.577,2.144,7.984c0.367,0.633,0.775,1.225,1.224,1.775c0.691,0.838,1.477,1.582,2.355,2.233
				c0.51,0.386,1.062,0.733,1.653,1.042c2.283,1.264,4.863,1.896,7.741,1.896c1.49,0,2.947-0.102,4.373-0.305
				c0.018-0.002,0.035-0.005,0.053-0.008c-1.719,0.105-3.278-0.055-4.678-0.479c-0.008-0.002-0.016-0.006-0.023-0.008
				c-3.021-0.916-5.306-2.935-6.854-6.055c-0.879-1.775-1.43-3.775-1.654-5.999c-0.202-1.916-0.15-3.792,0.154-5.629
				c0.081-0.489,0.182-0.969,0.304-1.439c0.471-1.956,1.235-3.822,2.294-5.597c1.184-1.978,2.632-3.651,4.346-5.018
				c1.653-1.345,3.418-2.273,5.293-2.784c0.572-0.162,1.154-0.284,1.746-0.365c0.012-0.001,0.021-0.003,0.033-0.004
				c0.01-0.001,0.021-0.002,0.032-0.004C86.869,0.554,87.689,0.512,88.88,0.485"/>
		</g>
	</g>
	<path fill="#00CCFF" d="M20.356,41.891c-0.103-0.04-0.215-0.061-0.336-0.061c-0.143,0-0.287,0.03-0.43,0.089
		c-0.143,0.063-0.287,0.145-0.43,0.248c-0.122,0.121-0.234,0.273-0.336,0.457v-0.672h-0.64v3.887h0.64v-1.93
		c0-0.529,0.112-0.906,0.336-1.131c0.227-0.205,0.462-0.309,0.706-0.309c0.184,0,0.347,0.031,0.49,0.094V41.891 M27.943,42.349
		c-0.368-0.346-0.796-0.519-1.285-0.519c-0.51,0-0.95,0.173-1.317,0.519c-0.346,0.346-0.519,0.856-0.519,1.532
		c0,0.691,0.173,1.21,0.519,1.556c0.367,0.35,0.807,0.523,1.317,0.523c0.489,0,0.917-0.174,1.285-0.523
		c0.367-0.346,0.551-0.864,0.551-1.556C28.495,43.206,28.311,42.695,27.943,42.349 M26.658,42.382c0.346,0,0.622,0.141,0.827,0.425
		c0.224,0.265,0.336,0.623,0.336,1.074c0,0.468-0.112,0.833-0.336,1.099c-0.206,0.286-0.481,0.43-0.827,0.43
		c-0.367,0-0.652-0.144-0.855-0.43c-0.206-0.266-0.308-0.631-0.308-1.099c0-0.451,0.103-0.81,0.308-1.074
		C26.006,42.523,26.291,42.382,26.658,42.382 M13.685,43.881c0,0.691,0.174,1.21,0.523,1.556c0.365,0.35,0.802,0.523,1.313,0.523
		c0.489,0,0.917-0.174,1.285-0.523c0.368-0.346,0.551-0.864,0.551-1.556c0-0.676-0.184-1.187-0.551-1.532
		c-0.367-0.346-0.795-0.519-1.285-0.519c-0.511,0-0.948,0.173-1.313,0.519C13.859,42.695,13.685,43.206,13.685,43.881 M14.666,44.98
		c-0.206-0.266-0.308-0.631-0.308-1.099c0-0.451,0.103-0.81,0.308-1.074c0.203-0.284,0.487-0.425,0.855-0.425
		c0.349,0,0.625,0.141,0.827,0.425c0.225,0.265,0.336,0.623,0.336,1.074c0,0.468-0.112,0.833-0.336,1.099
		c-0.202,0.286-0.478,0.43-0.827,0.43C15.153,45.41,14.868,45.266,14.666,44.98 M12.797,42.807c-0.141-0.324-0.333-0.569-0.58-0.733
		c-0.246-0.162-0.511-0.243-0.794-0.243c-0.165,0-0.328,0.03-0.49,0.089c-0.143,0.041-0.276,0.112-0.397,0.215
		c-0.124,0.103-0.256,0.266-0.397,0.49v-0.672H9.494v5.386h0.645v-2.173c0.141,0.244,0.273,0.406,0.397,0.486
		c0.1,0.104,0.222,0.175,0.365,0.215c0.165,0.063,0.329,0.094,0.491,0.094c0.511,0,0.909-0.204,1.196-0.611
		c0.283-0.39,0.425-0.879,0.425-1.468C13.012,43.492,12.94,43.134,12.797,42.807 M12.339,43.91c0,0.489-0.101,0.866-0.304,1.131
		c-0.225,0.246-0.491,0.369-0.799,0.369c-0.346,0-0.61-0.144-0.794-0.43c-0.202-0.284-0.304-0.65-0.304-1.099
		c0-0.286,0.05-0.553,0.15-0.798c0.084-0.244,0.216-0.428,0.397-0.552c0.165-0.122,0.349-0.183,0.551-0.183
		c0.287,0,0.542,0.112,0.766,0.336C12.227,42.91,12.339,43.318,12.339,43.91 M23.967,40.209h-0.645v5.63h0.645V40.209
		 M74.906,41.953h-0.641v3.887h0.641V41.953 M78.732,41.953l-1.285,3.06l-1.256-3.06h-0.673l1.56,3.887h0.674l1.621-3.887H78.732
		 M80.596,41.953h-0.64v3.887h0.64V41.953 M62.792,43.881c0-0.676-0.185-1.187-0.552-1.532s-0.795-0.519-1.284-0.519
		c-0.511,0-0.948,0.173-1.313,0.519c-0.349,0.346-0.523,0.856-0.523,1.532c0,0.691,0.175,1.21,0.523,1.556
		c0.365,0.35,0.803,0.523,1.313,0.523c0.489,0,0.917-0.174,1.284-0.523C62.607,45.091,62.792,44.573,62.792,43.881 M62.119,43.881
		c0,0.468-0.112,0.833-0.336,1.099c-0.206,0.286-0.481,0.43-0.827,0.43c-0.368,0-0.653-0.144-0.855-0.43
		c-0.206-0.266-0.308-0.631-0.308-1.099c0-0.451,0.102-0.81,0.308-1.074c0.202-0.284,0.487-0.425,0.855-0.425
		c0.346,0,0.621,0.141,0.827,0.425C62.006,43.072,62.119,43.43,62.119,43.881 M66.341,42.807c0-0.243-0.102-0.468-0.308-0.673
		c-0.202-0.203-0.548-0.304-1.038-0.304c-0.491,0-0.859,0.122-1.102,0.364c-0.246,0.225-0.369,0.49-0.369,0.799
		c0,0.448,0.256,0.765,0.766,0.948l0.459,0.122l0.215,0.089l0.336,0.093c0.326,0.104,0.49,0.267,0.49,0.49
		c0,0.184-0.082,0.348-0.247,0.491c-0.162,0.122-0.387,0.183-0.673,0.183c-0.283,0-0.497-0.052-0.641-0.154
		c-0.121-0.121-0.182-0.264-0.182-0.426v-0.032h-0.645v0.032c0,0.225,0.061,0.418,0.182,0.58c0.125,0.162,0.299,0.294,0.523,0.396
		c0.202,0.104,0.467,0.154,0.794,0.154c0.489,0,0.866-0.133,1.131-0.396c0.265-0.246,0.397-0.553,0.397-0.921
		c0-0.162-0.021-0.304-0.061-0.425c-0.061-0.104-0.141-0.195-0.244-0.276c-0.08-0.062-0.163-0.113-0.246-0.153
		c-0.082-0.041-0.275-0.102-0.58-0.184l-0.243-0.092l-0.308-0.062c-0.203-0.062-0.355-0.134-0.459-0.215
		c-0.08-0.081-0.121-0.184-0.121-0.308c0-0.141,0.071-0.273,0.215-0.397c0.141-0.101,0.334-0.149,0.58-0.149
		c0.224,0,0.407,0.04,0.551,0.121c0.121,0.059,0.182,0.16,0.182,0.304H66.341 M55.784,40.209h-0.641v5.63h0.641v-1.897
		c0-0.389,0.052-0.675,0.153-0.858c0.104-0.203,0.236-0.367,0.398-0.491c0.184-0.1,0.367-0.149,0.551-0.149
		c0.164,0,0.317,0.04,0.458,0.121c0.124,0.081,0.206,0.193,0.247,0.336c0.06,0.144,0.089,0.389,0.089,0.734v2.205h0.645v-2.48
		c0-0.428-0.052-0.732-0.153-0.916c-0.122-0.206-0.275-0.359-0.459-0.463c-0.205-0.1-0.43-0.149-0.672-0.149
		c-0.165,0-0.318,0.03-0.459,0.089c-0.143,0.041-0.275,0.112-0.396,0.215c-0.125,0.103-0.258,0.266-0.401,0.49V40.209
		 M79.957,40.424v0.673h0.64v-0.673H79.957 M74.265,41.097h0.641v-0.673h-0.641V41.097 M71.818,40.822
		c0.224,0,0.408,0.029,0.551,0.088c0.162,0.063,0.283,0.154,0.365,0.276c0.084,0.124,0.125,0.247,0.125,0.368v0.029H73.5v-0.029
		c0-0.205-0.072-0.42-0.215-0.645c-0.143-0.224-0.348-0.386-0.612-0.485c-0.243-0.103-0.538-0.154-0.888-0.154
		c-0.691,0-1.252,0.245-1.682,0.733c-0.427,0.471-0.641,1.184-0.641,2.141c0,0.939,0.214,1.654,0.641,2.144
		c0.43,0.468,0.99,0.701,1.682,0.701c0.35,0,0.645-0.05,0.888-0.149c0.265-0.104,0.47-0.267,0.612-0.49
		c0.143-0.206,0.215-0.421,0.215-0.645v-0.029h-0.641v0.029c0,0.184-0.082,0.357-0.247,0.522c-0.162,0.162-0.427,0.243-0.794,0.243
		c-0.552,0-0.959-0.225-1.225-0.673c-0.286-0.43-0.43-0.981-0.43-1.653c0-0.674,0.144-1.234,0.43-1.683
		C70.859,41.035,71.266,40.822,71.818,40.822 M46.575,41.891c-0.103-0.04-0.215-0.061-0.336-0.061c-0.144,0-0.287,0.03-0.43,0.089
		c-0.141,0.063-0.282,0.145-0.426,0.248c-0.124,0.121-0.236,0.273-0.336,0.457v-0.672h-0.644v3.887h0.644v-1.93
		c0-0.529,0.112-0.906,0.336-1.131c0.225-0.205,0.458-0.309,0.701-0.309c0.184,0,0.347,0.031,0.491,0.094V41.891 M50.154,42.625
		c-0.141-0.265-0.334-0.457-0.58-0.579c-0.224-0.144-0.488-0.215-0.794-0.215c-0.532,0-0.971,0.204-1.317,0.612
		c-0.327,0.387-0.491,0.875-0.491,1.467s0.154,1.081,0.462,1.467c0.324,0.39,0.782,0.584,1.374,0.584
		c0.287,0,0.553-0.051,0.799-0.154c0.225-0.103,0.396-0.234,0.519-0.396c0.144-0.184,0.215-0.367,0.215-0.552V44.83h-0.645v0.028
		c0,0.144-0.071,0.276-0.215,0.397c-0.122,0.103-0.325,0.154-0.612,0.154c-0.408,0-0.713-0.133-0.916-0.397
		c-0.224-0.286-0.336-0.634-0.336-1.042h2.752v-0.215C50.369,43.267,50.297,42.89,50.154,42.625 M49.757,43.419v0.061h-2.112
		c0.063-0.346,0.196-0.61,0.401-0.795c0.203-0.202,0.427-0.303,0.673-0.303c0.203,0,0.376,0.04,0.519,0.121
		c0.162,0.081,0.285,0.203,0.369,0.365C49.707,43.052,49.757,43.236,49.757,43.419 M54.134,42.382
		c-0.125-0.166-0.299-0.299-0.523-0.402c-0.202-0.1-0.457-0.149-0.762-0.149c-0.572,0-1.012,0.184-1.317,0.552
		c-0.306,0.364-0.458,0.863-0.458,1.499c0,0.651,0.152,1.161,0.458,1.528s0.745,0.551,1.317,0.551c0.305,0,0.56-0.051,0.762-0.154
		c0.225-0.103,0.398-0.234,0.523-0.396c0.121-0.184,0.182-0.367,0.182-0.552V44.83h-0.641v0.028c0,0.144-0.062,0.276-0.186,0.397
		c-0.122,0.103-0.326,0.154-0.612,0.154c-0.327,0-0.603-0.123-0.827-0.369c-0.202-0.243-0.304-0.63-0.304-1.159
		c0-0.532,0.102-0.911,0.304-1.135c0.225-0.243,0.5-0.364,0.827-0.364c0.286,0,0.49,0.049,0.612,0.149
		c0.124,0.103,0.186,0.226,0.186,0.368v0.062h0.641V42.9C54.316,42.716,54.255,42.544,54.134,42.382 M32.012,42.807
		c0-0.243-0.103-0.468-0.308-0.673c-0.203-0.203-0.549-0.304-1.038-0.304c-0.489,0-0.857,0.122-1.103,0.364
		c-0.246,0.225-0.369,0.49-0.369,0.799c0,0.448,0.255,0.765,0.766,0.948l0.458,0.122l0.215,0.089l0.336,0.093
		c0.327,0.104,0.491,0.267,0.491,0.49c0,0.184-0.081,0.348-0.243,0.491c-0.165,0.122-0.389,0.183-0.673,0.183
		c-0.287,0-0.501-0.052-0.645-0.154c-0.122-0.121-0.183-0.264-0.183-0.426v-0.032h-0.645v0.032c0,0.225,0.063,0.418,0.187,0.58
		c0.122,0.162,0.294,0.294,0.519,0.396c0.203,0.104,0.467,0.154,0.794,0.154c0.489,0,0.866-0.133,1.131-0.396
		c0.268-0.246,0.401-0.553,0.401-0.921c0-0.162-0.021-0.304-0.061-0.425c-0.062-0.104-0.145-0.195-0.248-0.276
		c-0.081-0.062-0.162-0.113-0.243-0.153c-0.081-0.041-0.275-0.102-0.583-0.184l-0.243-0.092l-0.308-0.062
		c-0.203-0.062-0.355-0.134-0.458-0.215c-0.081-0.081-0.122-0.184-0.122-0.308c0-0.141,0.072-0.273,0.215-0.397
		c0.143-0.101,0.336-0.149,0.58-0.149c0.225,0,0.408,0.04,0.551,0.121c0.122,0.059,0.183,0.16,0.183,0.304H32.012 M41.099,45.012
		c-0.224-0.286-0.336-0.634-0.336-1.042h2.752v-0.215c0-0.488-0.072-0.865-0.215-1.131c-0.141-0.265-0.334-0.457-0.58-0.579
		c-0.225-0.144-0.489-0.215-0.794-0.215c-0.53,0-0.969,0.204-1.317,0.612c-0.327,0.387-0.49,0.875-0.49,1.467
		s0.154,1.081,0.462,1.467c0.324,0.39,0.782,0.584,1.374,0.584c0.286,0,0.553-0.051,0.798-0.154
		c0.224-0.103,0.397-0.234,0.519-0.396c0.143-0.184,0.215-0.367,0.215-0.552V44.83h-0.645v0.028c0,0.144-0.072,0.276-0.215,0.397
		c-0.122,0.103-0.326,0.154-0.612,0.154C41.607,45.41,41.302,45.277,41.099,45.012 M40.792,43.48
		c0.062-0.346,0.196-0.61,0.401-0.795c0.203-0.202,0.427-0.303,0.673-0.303c0.203,0,0.375,0.04,0.519,0.121
		c0.162,0.081,0.285,0.203,0.369,0.365c0.1,0.184,0.15,0.367,0.15,0.551v0.061H40.792 M36.815,40.424h-1.5v5.415h1.593
		c0.673,0,1.182-0.113,1.528-0.337c0.349-0.246,0.604-0.573,0.766-0.981c0.184-0.386,0.275-0.854,0.275-1.406
		c0-0.592-0.092-1.082-0.275-1.471c-0.206-0.408-0.47-0.713-0.794-0.916C38.06,40.525,37.529,40.424,36.815,40.424 M36.021,40.971
		h0.794c0.529,0,0.928,0.083,1.196,0.247c0.243,0.162,0.425,0.406,0.547,0.734c0.124,0.346,0.187,0.754,0.187,1.224
		s-0.072,0.858-0.215,1.163c-0.122,0.305-0.316,0.529-0.583,0.673c-0.244,0.162-0.609,0.243-1.099,0.243h-0.827V40.971
		 M86.32,42.625c-0.145-0.265-0.337-0.457-0.58-0.579c-0.225-0.144-0.49-0.215-0.799-0.215c-0.529,0-0.967,0.204-1.313,0.612
		c-0.327,0.387-0.49,0.875-0.49,1.467s0.152,1.081,0.457,1.467c0.327,0.39,0.787,0.584,1.379,0.584c0.286,0,0.551-0.051,0.794-0.154
		c0.224-0.103,0.397-0.234,0.519-0.396c0.144-0.184,0.215-0.367,0.215-0.552V44.83h-0.641v0.028c0,0.144-0.071,0.276-0.215,0.397
		c-0.121,0.103-0.325,0.154-0.611,0.154c-0.408,0-0.713-0.133-0.916-0.397c-0.227-0.286-0.341-0.634-0.341-1.042h2.757v-0.215
		C86.535,43.267,86.462,42.89,86.32,42.625 M85.768,42.869c0.103,0.184,0.153,0.367,0.153,0.551v0.061H83.81
		c0.063-0.346,0.195-0.61,0.397-0.795c0.206-0.202,0.43-0.303,0.673-0.303c0.205,0,0.38,0.04,0.523,0.121
		C85.566,42.584,85.687,42.707,85.768,42.869 M90.113,42.807c0-0.243-0.102-0.468-0.304-0.673c-0.206-0.203-0.553-0.304-1.042-0.304
		c-0.488,0-0.856,0.122-1.103,0.364c-0.243,0.225-0.364,0.49-0.364,0.799c0,0.448,0.254,0.765,0.762,0.948l0.462,0.122l0.211,0.089
		l0.337,0.093c0.326,0.104,0.49,0.267,0.49,0.49c0,0.184-0.082,0.348-0.244,0.491c-0.164,0.122-0.389,0.183-0.672,0.183
		c-0.287,0-0.502-0.052-0.645-0.154c-0.122-0.121-0.183-0.264-0.183-0.426v-0.032h-0.645v0.032c0,0.225,0.063,0.418,0.187,0.58
		c0.121,0.162,0.295,0.294,0.519,0.396c0.206,0.104,0.47,0.154,0.794,0.154c0.49,0,0.868-0.133,1.136-0.396
		c0.265-0.246,0.397-0.553,0.397-0.921c0-0.162-0.021-0.304-0.062-0.425c-0.062-0.104-0.145-0.195-0.247-0.276
		c-0.081-0.062-0.162-0.113-0.243-0.153c-0.081-0.041-0.275-0.102-0.583-0.184l-0.244-0.092l-0.304-0.062
		c-0.205-0.062-0.359-0.134-0.462-0.215c-0.081-0.081-0.121-0.184-0.121-0.308c0-0.141,0.071-0.273,0.215-0.397
		c0.143-0.101,0.336-0.149,0.579-0.149c0.224,0,0.408,0.04,0.552,0.121c0.123,0.059,0.186,0.16,0.186,0.304H90.113 M82.283,40.209
		h-0.645v5.63h0.645V40.209z"/>
</g>
</svg>
