<svg width="227" height="102" viewBox="0 0 227 102" fill="none" xmlns="http://www.w3.org/2000/svg">
<path d="M5.89997 91.2C5.99997 91.1 6.19997 91 6.39997 90.9C6.19997 91.2 5.79997 91.6 5.29997 92C10.3 88.5 15.4 82.4 18.3 78.1C19.6 76.8 20.6 75.4 20.4 75C20.2 74.6 19 75.3 17.7 76.6C17.4 76.9 17 77.2 16.8 77.3C14.5 78.7 11.9 80.7 9.09997 83C9.69997 82.6 10.3 82.2 10.8 81.8C9.99997 82.5 9.19997 83.1 8.39997 83.9C8.49997 83.9 8.69997 83.8 8.79997 83.8C5.89997 85.9 2.59997 89.5 1.39997 91.8C0.199973 94.1 1.59997 94.3 4.49997 92.2L5.89997 91.2Z" fill="#F28066"/>
<path d="M12.3 88.3C10.6 89.6 8.89996 90.8 7.29996 92.1L6.89996 92.3L7.49996 92.7V92.6C8.49996 90.9 10.5 88.5 12.5 86.3L13.2 85.5C13.5 85.1 13.6 84.8 13.6 84.6C13.5 84.2 12.7 84.6 11.7 85.6L10.6 86.7C7.59996 89.1 3.39996 93.3 2.69996 95.6C2.49996 96.1 3.09996 96.1 3.39996 96.2C3.59996 96.6 4.89996 95.9 6.19996 94.5C7.59996 93.2 8.49996 91.8 8.29996 91.4C8.49996 91.2 8.79996 91 9.09996 90.8C8.99996 91 8.79996 91.2 8.69996 91.4C8.79996 90.8 9.99996 89.5 10.7 88.4L12 87H10.3L9.69996 87.8C9.79996 87.8 9.89996 87.7 9.89996 87.7C8.69996 89.2 7.69996 90.7 6.29996 92.3L4.69996 94.4C4.29996 95 4.59996 95.2 5.29996 94.8L6.29996 94.1C6.09996 94.2 5.99996 94.3 5.79996 94.4C7.89996 92.7 9.99996 90.8 12 89C12.3 88.7 12.7 88.3 12.8 88.1C12.8 88 12.6 88 12.3 88.3Z" fill="#F28066"/>
<path d="M5.7 95.1C5.3 95.4 5 95.6 4.6 96C4.5 96.1 4.5 96.2 4.5 96.2C4.7 96.1 5 95.9 5.2 95.7C5.6 95.5 5.8 95.2 5.7 95.1Z" fill="#F28066"/>
<path d="M4.39998 96.3C4.19998 96.4 4.09998 96.5 4.09998 96.5C4.19998 96.5 4.19998 96.4 4.39998 96.3Z" fill="#F28066"/>
<path d="M97.7 6.4C97.5 20.7 97.3 34.4 97.2 48C97.2 48.5 97.2 48.8 97.3 48.9C97.4 48.9 97.4 48.6 97.4 48.1C97.5 34.4 97.7 20.5 97.9 6.1C97.9 5.6 97.9 5.3 97.8 5.4C97.7 5.5 97.7 5.9 97.7 6.4Z" fill="#F28066"/>
<path d="M91.4 86.1C91.4 85.9 91.3 85.9 91.2 86.1C91.2 86.3 91.2 86.6 91.2 86.8C91.2 87 91.3 87 91.4 86.8C91.5 86.6 91.5 86.3 91.4 86.1Z" fill="#F28066"/>
<path d="M86.5 84.3C86.4 83.1 86.3 82 86.1 81C86.1 80.8 86.1 80.6 86.1 80.5C86 80.6 85.9 80.3 85.9 79.9C85.1 71.6 84.7 62.6 84.3 53.8C84.2 53.7 84.1 53.6 84.1 53.4C83.8 52.8 83.7 51.6 83.8 50.3V49.9V49.6C83.9 47.4 84.1 45.2 84.2 43C84.1 42.7 84 42.2 84 41.7C83.7 40.2 83.4 39 83.2 37.8C83.1 38 83 38.3 83 38.4C82.8 38.8 82.6 38.8 82.6 38.4V37.8L82.4 39.9C82.4 40 82.4 40.1 82.4 40.2C82.4 40.8 82.4 41.4 82.4 42C82.4 43.3 82.5 44.5 82.7 45.9C82.9 47.4 83 48.8 83.1 50.3C83.5 56.6 83.9 62.7 84.4 68.8C84.4 69 84.4 69.3 84.4 69.5C84.3 69.6 84.3 69.6 84.2 69.4C83.7 65.5 83 61.9 82.4 58.2C82.1 56.3 81.8 54.4 81.6 52.5C81.5 52 81.5 51.5 81.4 51L81.3 50.2V49.8V49.7C81.2 49.4 81.1 49.1 81 48.8C80.3 46.4 79.6 45.5 79.1 45.4C78.9 45.8 78.6 46.1 78.4 46.5C77.9 47 77.3 47.7 77 48.4C76.8 48.7 76.7 49 76.6 49.2C76.8 49.1 76.1 49.8 75.7 50.3C75.2 50.8 74.8 51.3 74.3 51.8C73.4 52.8 72.4 53.8 71.4 54.9C60.8 66.1 50.6 76.4 40 87.1C36.1 91.2 31.9 94.2 30.4 93.8C29.5 93.5 29.9 92.1 31.2 90.1C30.9 90.4 30.5 90.7 30.2 91.1L28.6 92.5C27 93.8 25.6 94.9 24.5 95.3L23.1 96C20.9 96.7 18 98.4 16.1 98.8V98.3L15.7 98.5C14.6 99.2 13.7 99.5 13.2 99.5L12.9 99C12.7 98.4 12.8 97.6 13.2 96.5C13 96.4 13 96.1 13 95.8C12 96.1 11.4 96 11.4 95.1C10.9 95.4 10.8 95.2 11.2 94.6C11.3 94.4 11.5 94.2 11.7 94C11.4 94.1 11.3 94.2 10.9 94.3C10.5 94.8 10.3 95 10.3 95C9.2 95.9 9.2 95.9 8.3 96.7C7.4 97.3 6.8 97.6 6.8 97.6C5.4 97.8 5.4 97.8 5.2 97.4C5.2 97.3 5.3 97.2 5.3 97.2C4.6 97.8 4.5 97.8 4.3 98C4.1 98.1 3.9 98.2 3.9 98.2C3.7 98 3.7 98 3.6 98.1C3.5 98.1 3.5 98 3.5 98C3.7 97.5 3.7 97.5 3.7 97.4C3.7 97.3 3.8 97.1 3.8 97.1C4.2 96.6 4.3 96.4 4.4 96.4C5.7 95.8 5.7 95.8 5.7 95.8C5.8 95.5 5.8 95.5 5.8 95.5C6.2 95.5 6.2 95.5 6.2 95.5C5.9 95.5 5.9 95.5 5.9 95.5C6.5 95.1 6.5 95.1 6.5 95.1C5.8 95.5 5.8 95.5 5.8 95.5C7 94.5 7 94.5 7.4 94C7.9 93.6 8.2 93.1 8.3 93.1C8.1 93 8 93 8 93C9.2 91.9 9.2 91.9 10.5 90.8C10.6 90.7 10.8 90.7 10.9 90.6C11 90.4 11.2 90.2 11.4 90L12 89.4C12 89.3 12.1 89.3 12.1 89.2C12.3 89 12.4 88.8 12.5 88.6C12.6 88.5 12.6 88.5 12.6 88.5C12.9 88.1 13.3 87.5 14.5 86C14.9 85.7 15.2 85.4 15.6 85.1C15.5 85.2 15.4 85.2 15.2 85.3C15 85.4 15 85.1 14.9 85.2C12.1 87.4 9.2 90.1 6.4 92.6C5.9 93.1 5.4 93.5 5.2 93.4C5 93.3 5.3 92.9 5.8 92.4C10.5 86.2 17.4 79.5 23.6 74.5C25.1 73.1 26.7 71.7 28.3 70.2L28 70.3L29.3 69.2L29.4 69.1L28.3 69.7L27.6 70.2C24 73.6 20.5 76.3 16.9 79.4C15 81.1 13.2 82.4 11.3 83.9C10.8 84.3 10.5 84.5 10.4 84.4C10.4 84.3 10.7 83.8 11.1 83.4C16.6 77.5 23.3 71.2 28.7 67.5C29.7 66.5 30.8 65.5 31.8 64.9C31.5 65 31.2 65.2 31 65.3C31.8 64.6 32.4 64.3 33.2 63.7C33 63.7 32.8 63.7 32.7 63.7C36.7 60 40.8 55.8 44.7 52.7C44.9 52.6 45 52.4 45.1 52.3C46.4 50.6 47.8 48.8 49.6 47C49 47.6 48.3 48.2 47.7 48.7C48.9 47.3 50.1 45.9 51.5 44.5C55.3 40.7 60 36.9 62.8 35.6C68.6 29.7 74.4 23.9 80.1 18C86 12.1 91.9 6.1 97.8 0V1.8C97.8 2.7 97.7 3.7 97.6 4.1C97.5 4.5 97.4 4.1 97.3 3.3C97.3 2.6 97.2 1.9 97.2 1.2C88.8 10.1 80.8 18.4 72.9 26.5C80.2 19.7 87 13.2 94 6.2L96.2 4V4.7C96.2 5.9 96.2 7.3 96.1 8.6C96.1 15 96.1 21.2 96.1 27.4C96.1 33.6 96.2 39.8 96.3 46.3C96.3 47.6 96.4 49 96.4 50.3C96.4 51.2 96.5 52 96.5 52.9C96.6 54.6 96.6 56.3 96.7 58C96.9 61.4 97 64.8 97.2 68.4C97.7 78.5 98.3 87.7 98.3 97.8C98.3 99.1 98.1 100.4 97.8 100.5C97.5 100.7 97.2 99.7 97.2 98.4C96.7 88 96.2 77.6 95.8 67.2C95.6 62 95.4 56.7 95.3 51.4C95.3 47.7 95.2 44 95.2 40.3C95.2 36.4 95.2 32.4 95.2 28.4C95.2 24.9 95.2 21.5 95.3 18.1C95.3 18.2 95.2 18.3 95.2 18.4C95 18.7 94.9 18.6 94.7 18.4C94.7 22.2 94.6 26 94.5 29.8C94.7 34.7 94.9 39.9 95 45.2C95 47.6 95.1 49.9 95.1 52.3C95.1 54.2 95.1 56.1 95.1 58.1C95 63.5 94.6 68.4 94.3 73.3C94.5 79.6 94.7 85.9 94.9 92.3C94.9 92.6 94.9 92.8 94.8 92.9C94.7 93 94.7 92.9 94.7 92.6C94.3 88.2 94 83.7 93.8 79.2C93.6 79.9 93.4 80.3 93.1 80.3C92.8 80.2 92.6 79.7 92.4 78.8V81.9C92.4 82.5 92.3 83 92.1 83C91.9 83 91.8 82.5 91.8 81.9C91.8 77.7 91.8 73.5 91.9 69.3C91.8 64.3 91.6 59.3 91.5 54.2C91.3 54.9 91.1 55.4 90.8 55.7C90.8 56.5 90.8 57.3 90.8 58C91.6 72.2 92 86.8 91.9 101.4C91.9 101.7 91.9 101.9 91.8 101.9C91.7 101.9 91.7 101.7 91.7 101.4C91.7 97 91.7 92.6 91.7 88.2C91.7 88.4 91.6 88.4 91.5 88.2C91.5 88 91.5 87.7 91.5 87.5C91.5 87.3 91.6 87.3 91.7 87.5C91.6 79.3 91.3 71.2 90.9 63.1C91 70.6 91 78 90.9 85.5C91 86.3 91.1 87.1 91.1 87.9C91.1 88.1 91.1 88.4 91 88.5C90.9 88.6 90.9 88.4 90.9 88.2L90.8 87.5C90.8 88.9 90.5 90 90.2 90C89.9 89.9 89.6 88.7 89.6 87.2C89.5 83.3 89.5 79.4 89.5 75.4L89.4 74.1L89.2 72.8C89 78.9 88.9 85 88.7 91C88.7 91.5 88.6 92 88.5 92C88.4 92 88.3 91.6 88.3 91.1C87.8 80.5 87.5 69.7 87.3 58.9C87 57.1 86.8 55.3 86.5 53.6C86.4 52.7 86.2 51.8 86.1 50.9L86 50.5C86 50.3 85.9 50 85.9 49.9L85.7 49C85.7 49.3 85.7 49.6 85.7 50C85.7 61.6 87.2 71.7 87.5 83.1C87.5 83.4 87.5 83.6 87.4 83.7C87.3 83.7 87.3 83.5 87.3 83.2C87.1 77.6 86.6 72.6 86.2 67.1C85.9 62.5 85.6 58.2 85.2 53.9C85.3 62.6 86 70.9 86.3 79.5C86.3 79.9 86.3 80.3 86.2 80.5C86.2 80.5 86.3 80.6 86.3 80.7C86.5 81.8 86.6 82.9 86.7 84.1C86.7 84.3 86.7 84.6 86.6 84.7C86.6 84.7 86.5 84.6 86.5 84.3ZM25.5 78.4C25.4 78.4 25.4 78.5 25.3 78.5C25.5 78.4 25.7 78.2 25.9 78C25.9 78 25.9 78 27 77.6C27 77.7 26.2 78 25.5 78.4ZM17.3 89.1C16.9 89.2 16.7 89.3 16.7 89.3C17 89.2 17.2 89.1 17.3 89.1ZM79.8 20.6C74.9 25.5 70.1 30.1 64.9 34.8C66.1 33.6 67.3 32.3 68.5 31.1C72.4 27.5 76.2 24 79.8 20.6ZM17.9 83.4C18.9 82.7 19.8 82.3 20.7 81.9C21.2 81.3 21.8 80.7 22.4 80.1C24 78.5 25.6 77 27.2 75.6C26.9 75.7 27.3 75.3 27.4 75.1C27.6 74.9 27.8 74.7 27.9 74.5C26.2 76 24.5 77.6 22.7 79.1C21.1 80.6 19.4 82.1 17.9 83.4ZM7 95.2C6.9 95.2 6.9 95.3 6.8 95.3C6.8 95.3 6.8 95.3 6.9 94.8C6.9 94.8 7 95 7 95.2ZM6.8 96C6.9 95.9 7 95.9 7.1 95.8C7.1 96 7 96 6.8 96ZM9.2 94.1C9 94.2 8.9 94.2 8.8 94.3C9.2 94.1 9.2 94.1 9.2 94.1ZM16 97.9L15.9 96.2V98L16 97.9Z" fill="#F28066"/>
<path d="M6.09998 91C6.29998 90.9 6.39998 90.8 6.59998 90.7C6.39998 91 5.99998 91.4 5.49998 91.8C10.7 88.1 16.2 81.7 19.2 77.2C20.6 75.9 21.6 74.4 21.4 74C21.2 73.6 20 74.3 18.5 75.7C18.2 76 17.8 76.3 17.5 76.5C15.1 78 12.3 80.1 9.39998 82.5C9.99998 82.1 10.6 81.6 11.2 81.2C10.4 81.9 9.49998 82.6 8.69998 83.4C8.79998 83.4 8.99998 83.3 9.19998 83.3C6.19998 85.5 2.69998 89.3 1.39998 91.7C0.0999844 94.1 1.59998 94.3 4.59998 92L6.09998 91Z" fill="#F28066"/>
<path d="M12.8 87.8C11 89.2 9.29998 90.5 7.49998 91.8L7.09998 92L7.69998 92.4V92.3C8.69998 90.5 10.9 88 13 85.7L13.7 84.9C14 84.5 14.2 84.1 14.1 84C14.1 83.6 13.2 84.1 12.1 85L11 86.1C7.89998 88.7 3.39998 93.1 2.59998 95.5C2.39998 96 2.99998 95.9 3.29998 96C3.49998 96.4 4.79998 95.6 6.29998 94.2C7.69998 92.8 8.69998 91.4 8.49998 91C8.79998 90.8 8.99998 90.6 9.29998 90.3C9.09998 90.5 8.99998 90.8 8.79998 91C8.89998 90.3 10.2 89 11 87.9L12.4 86.4L10.9 86.5L10.2 87.3C10.3 87.3 10.4 87.2 10.4 87.2C9.19998 88.8 7.99998 90.4 6.59998 92L4.89998 94.2C4.49998 94.9 4.79998 95 5.49998 94.6L6.49998 93.9C6.29998 94 6.19998 94.1 5.99998 94.2C8.19998 92.4 10.4 90.3 12.5 88.5C12.8 88.2 13.2 87.8 13.3 87.6C13.4 87.4 13.1 87.5 12.8 87.8Z" fill="#F28066"/>
<path d="M5.8 95C5.4 95.3 5 95.5 4.6 96C4.5 96.1 4.5 96.2 4.5 96.3C4.7 96.2 5 96 5.3 95.8C5.8 95.3 5.9 95 5.8 95Z" fill="#F28066"/>
<path d="M4.50001 96.2C4.30001 96.3 4.20001 96.4 4.20001 96.4C4.30001 96.4 4.40001 96.3 4.40001 96.3C4.40001 96.3 4.40001 96.3 4.50001 96.2C4.40001 96.3 4.40001 96.3 4.50001 96.2Z" fill="#F28066"/>
<path d="M99.6 11.9C108.4 12.1 117.2 12.3 126 12.4C126.3 12.4 126.5 12.4 126.6 12.3C126.6 12.2 126.4 12.2 126.1 12.2C117.3 12.1 108.5 11.9 99.7 11.7C99.4 11.7 99.2 11.7 99.1 11.8C99.1 11.8 99.3 11.9 99.6 11.9Z" fill="#F28066"/>
<path d="M165.4 18.1C165.2 18.1 165.2 18.2 165.4 18.3C165.6 18.3 165.9 18.3 166.1 18.3C166.3 18.3 166.3 18.2 166.1 18.1C165.9 18.1 165.6 18.1 165.4 18.1Z" fill="#F28066"/>
<path d="M163.5 23C162.3 23.1 161.1 23.2 160.1 23.4C159.9 23.4 159.7 23.4 159.5 23.4C159.6 23.5 159.3 23.6 158.9 23.6C150.1 24.4 140.7 24.8 131.4 25.2C131.3 25.3 131.2 25.4 131 25.4C130.4 25.7 129.1 25.8 127.7 25.7L126.7 25.6C122.6 25.5 118.6 25.3 114.5 25.2C113.7 25.3 112.7 25.4 111.7 25.4C108.2 25.7 104.7 26 101.1 26.2C101.3 26.3 101.5 26.4 101.5 26.4C101.4 26.6 100.6 26.8 99.6 26.8H98.1C99.5 26.9 100.9 26.9 102.3 27C102.5 27 102.7 27 102.9 27C104.4 27 106 27 107.6 27C121.4 26.8 134.4 26 147.3 25C147.5 25 147.8 25 148 25C148.1 25.1 148.1 25.1 147.9 25.2C139.8 26.3 132.7 27.7 123.6 28.5C118.1 28.9 112.7 29.3 107.2 29.7C104.5 29.9 101.7 30 99 30.2C97.6 30.3 96.2 30.4 94.8 30.4C94.7 30.4 94.7 30.4 94.7 30.4H94.6L94.5 30.5L94.2 30.6H94.1C94 30.7 93.9 30.9 93.7 31V31.1C93.7 31.1 93.7 31.1 93.6 31.2L92.9 31.9L91.5 33.4C89.6 35.4 87.7 37.4 85.8 39.4C82 43.4 78.3 47.5 74.3 51.7C63.3 63.5 52.5 74.3 41.4 85.6C37.3 89.9 32.9 93.1 31.4 92.7C30.5 92.5 31 91 32.3 88.9C32 89.2 31.6 89.6 31.3 89.9L29.6 91.4C28 92.8 26.4 93.9 25.3 94.4L23.8 95.2C21.6 96 18.5 97.8 16.5 98.3V97.7L16 98.2C14.8 99 13.9 99.3 13.4 99.3L13.1 98.9C12.9 98.3 13 97.4 13.4 96.3C13.2 96.2 13.2 95.9 13.2 95.6C12.2 95.9 11.5 95.8 11.6 94.9C11.1 95.2 11 95 11.4 94.4C11.5 94.2 11.7 94 11.9 93.8C11.6 93.9 11.5 94 11.1 94.2C10.7 94.6 10.4 94.8 10.4 94.8C9.29999 95.8 9.29999 95.8 8.29999 96.6C7.39999 97.3 6.69999 97.6 6.69999 97.6C5.19999 97.8 5.19999 97.8 5.09999 97.4C5.09999 97.3 5.19999 97.2 5.19999 97.2C4.39999 97.8 4.39999 97.8 4.09999 98C3.89999 98.1 3.69999 98.2 3.69999 98.2C3.49999 98.1 3.49999 98.1 3.39999 98.2C3.29999 98.2 3.29999 98.1 3.29999 98.1C3.49999 97.6 3.49999 97.6 3.49999 97.5C3.49999 97.4 3.59999 97.2 3.59999 97.2C3.99999 96.7 4.19999 96.5 4.19999 96.4C5.49999 95.8 5.49999 95.8 5.49999 95.8C5.59999 95.5 5.59999 95.5 5.59999 95.5C5.99999 95.4 5.99999 95.4 5.99999 95.4C5.69999 95.4 5.69999 95.4 5.69999 95.4C6.29999 95 6.29999 95 6.29999 95C5.59999 95.4 5.59999 95.4 5.59999 95.4C6.99999 94.2 6.99999 94.2 7.49999 93.8C7.99999 93.3 8.39999 92.9 8.39999 92.8C8.29999 92.8 8.29999 92.8 8.29999 92.8C9.59999 91.6 9.59999 91.6 10.9 90.5C11 90.4 11.2 90.4 11.3 90.3C11.4 90.1 11.6 89.9 11.8 89.7L12.5 89.1C12.5 89 12.6 89 12.6 88.9C12.8 88.7 12.9 88.5 13.1 88.3C13.2 88.2 13.2 88.2 13.2 88.2C13.5 87.8 14 87.2 15.2 85.6C15.6 85.2 16 84.9 16.3 84.6C16.2 84.7 16 84.8 15.9 84.8C15.7 84.9 15.7 84.6 15.6 84.7C12.7 87.1 9.59999 89.8 6.59999 92.5C6.09999 93 5.49999 93.4 5.39999 93.4C5.19999 93.4 5.49999 92.9 5.99999 92.3C11 85.8 18.2 78.8 24.8 73.4C26.4 71.9 28.1 70.4 29.7 68.9L29.3 69L30.6 67.9L30.7 67.8L29.5 68.5L28.9 69C25.1 72.6 21.4 75.5 17.7 78.8C15.7 80.6 13.8 82 11.8 83.6C11.3 84 10.9 84.3 10.9 84.1C10.9 83.9 11.2 83.4 11.7 83C17.5 76.8 24.5 70.2 30.2 66.2C31.3 65.1 32.4 64.1 33.5 63.4H33.6C33.3 63.6 33 63.7 32.7 63.9C33.6 63.1 34.2 62.9 35 62.2C34.8 62.2 34.6 62.2 34.4 62.2C38.6 58.3 42.9 53.9 47 50.6C47.2 50.5 47.3 50.3 47.5 50.2C48.9 48.4 50.3 46.6 52.2 44.6C51.5 45.2 50.9 45.8 50.2 46.4C51.5 44.9 52.8 43.4 54.2 42C58.2 38 63.2 34 66 32.6C72.7 25.7 79.5 18.8 86.2 11.9C88.2 11.9 90.3 11.9 92.3 11.8L97 11.7C97.6 11.7 98.1 11.8 98.2 11.9C98.3 12 97.9 12.1 97.3 12.2C95.5 12.3 90.4 12.4 86.5 12.5C82.1 17.1 77.7 21.8 73.2 26.5C75.1 24.7 77.1 22.8 79.1 21L80.6 19.6L82.5 17.8C84 16.3 85.5 14.9 87 13.4C89.1 13.4 91.2 13.4 93.3 13.4C94.4 13.4 95.4 13.4 96.5 13.3C97.4 13.3 98.2 13.3 99.1 13.4C107.9 13.4 116.2 13.5 125.1 13.2C132.7 12.9 139.4 12.7 147 12.3C157.7 11.8 167.4 11.2 177.9 11.2C179.3 11.2 180.6 11.4 180.8 11.7C181 12 180 12.3 178.5 12.3C156.5 13.2 134.9 14.4 112 14.2C109.5 14.2 107.1 14.2 104.7 14.1L104.8 14.2C104.8 14.4 104.6 14.5 104.2 14.7C107 14.7 109.7 14.8 112.5 14.9C120.2 14.5 128 14.2 136.3 14.4C142 14.5 147.1 14.9 152.3 15.2C158.9 15 165.6 14.8 172.3 14.6C172.6 14.6 172.8 14.6 172.9 14.7C173 14.8 172.9 14.8 172.6 14.8C168 15.2 163.3 15.5 158.5 15.7C159.3 15.9 159.7 16.1 159.6 16.4C159.5 16.7 159 16.9 158.1 17.1H161.3C162 17.1 162.5 17.2 162.5 17.4C162.5 17.6 162 17.7 161.3 17.7C156.9 17.7 152.5 17.7 148.1 17.6C142.8 17.7 137.5 17.9 132.2 18C132.9 18.2 133.5 18.4 133.7 18.7C134.5 18.7 135.3 18.7 136.2 18.7C151.2 17.9 166.5 17.5 181.9 17.6C182.2 17.6 182.5 17.6 182.5 17.7C182.5 17.8 182.3 17.8 182 17.8C177.3 17.8 172.7 17.8 168 17.8C168.2 17.8 168.2 17.9 168 18C167.8 18 167.5 18 167.3 18C167.1 18 167.1 17.9 167.3 17.8C158.7 17.9 150.1 18.2 141.6 18.6C149.5 18.5 157.3 18.5 165.2 18.6C166.1 18.5 166.9 18.4 167.8 18.4C168 18.4 168.3 18.4 168.4 18.5C168.5 18.6 168.3 18.6 168 18.6L167.3 18.7C168.8 18.7 169.9 19 169.9 19.3C169.8 19.6 168.5 19.9 167 19.9C162.9 20 158.7 20 154.6 20L153.3 20.1L152 20.3C158.4 20.5 164.8 20.6 171.2 20.8C171.7 20.8 172.2 20.9 172.2 21C172.2 21.1 171.8 21.2 171.2 21.2C160 21.7 148.6 22 137.3 22.2C133.6 22.7 129.8 23.2 126 23.7C126.5 23.7 127 23.7 127.5 23.7C139.9 23.7 150.4 22.2 162.4 21.9C162.7 21.9 163 21.9 163 22C163 22.1 162.8 22.1 162.5 22.1C156.6 22.3 151.3 22.8 145.5 23.2C140.7 23.5 136.1 23.8 131.6 24.2C140.7 24.1 149.5 23.4 158.6 23.1C159 23.1 159.4 23.1 159.6 23.2C159.6 23.2 159.7 23.1 159.8 23.1C160.9 22.9 162.2 22.8 163.4 22.7C163.6 22.7 163.9 22.7 164.1 22.8C163.9 23 163.8 23 163.5 23ZM26.6 77.3C26.5 77.3 26.5 77.4 26.4 77.4C26.6 77.3 26.8 77.1 27.1 76.9C27.1 76.9 27.1 76.9 28.2 76.5C28.2 76.5 27.4 76.9 26.6 77.3ZM17.9 88.5C17.5 88.6 17.3 88.8 17.3 88.8C17.6 88.6 17.8 88.5 17.9 88.5ZM78.2 22.3C74.8 25.7 71.3 29 67.8 32.1L70.2 29.6C72.8 27.1 75.5 24.7 78.2 22.3ZM18.6 82.6C19.7 81.9 20.6 81.4 21.5 81C22 80.4 22.6 79.7 23.3 79.1C25 77.5 26.7 75.9 28.3 74.3C28 74.4 28.4 74 28.6 73.8C28.8 73.6 29 73.4 29.2 73.2C27.4 74.8 25.6 76.4 23.7 78.1C22 79.6 20.3 81.3 18.6 82.6ZM7.19999 95.1C7.09999 95.1 7.09999 95.2 6.99999 95.2C6.99999 95.2 6.99999 95.2 7.09999 94.7C7.09999 94.7 7.09999 94.8 7.19999 95.1ZM6.99999 95.9C7.09999 95.8 7.19999 95.8 7.29999 95.7C7.19999 95.8 7.09999 95.9 6.99999 95.9ZM9.39999 93.9C9.29999 93.9 9.09999 94 8.99999 94.1C9.39999 93.9 9.39999 93.9 9.39999 93.9ZM16.4 97.6V95.8L16.3 97.6H16.4Z" fill="#F28066"/>
<path d="M125.3 53.8H127.9L133.6 68.7H130.6L129.2 65H124L122.6 68.7H119.6L125.3 53.8ZM128.6 62.9L126.5 57.1L124.4 62.9H128.6Z" fill="black"/>
<path d="M148.5 59.1V68.6H145.6V53.8H147.8L155.6 63.6V53.9H158.5V68.8H156.2L148.5 59.1Z" fill="black"/>
<path d="M172.4 68.7V53.8H175.3V68.7H172.4Z" fill="black"/>
<path d="M200.4 68.7V58.8L196.6 66.1H195L191.2 58.8V68.7H188.3V53.8H191.4L195.8 62.3L200.2 53.8H203.3V68.7H200.4Z" fill="black"/>
<path d="M218.6 53.8H221.2L226.9 68.7H223.9L222.5 65H217.3L215.9 68.7H212.9L218.6 53.8ZM221.9 62.9L219.8 57.1L217.7 62.9H221.9Z" fill="black"/>
<path d="M133.5 78.9L123.1 93.8H120L130.4 78.9H133.5Z" fill="black"/>
<path d="M147 93.8V78.9H157V81.4H149.9V85.2H155.8V87.5H149.9V93.7H147V93.8Z" fill="black"/>
<path d="M172.4 93.8V78.9H175.3V93.8H172.4Z" fill="black"/>
<path d="M192.3 84.3V93.8H189.4V78.9H191.6L199.4 88.7V79H202.3V93.9H200L192.3 84.3Z" fill="black"/>
<path d="M218.4 93.8V78.9H221.3V93.8H218.4Z" fill="black"/>
</svg>
