<svg width="298" height="48" viewBox="0 0 298 48" fill="none" xmlns="http://www.w3.org/2000/svg">
<g clip-path="url(#clip0)">
<path d="M69.5591 46.2207C67.4035 47.4064 64.602 47.9992 61.1547 47.9992C58.5697 47.9992 56.1669 47.5236 53.9472 46.5766C51.7275 45.6279 49.8191 44.3452 48.2253 42.7267C46.6315 41.109 45.3831 39.2125 44.4776 37.0339C43.5729 34.8569 43.1201 32.5384 43.1201 30.0801V29.9503C43.1201 27.4928 43.5729 25.1626 44.4776 22.9655C45.3831 20.7659 46.6315 18.8468 48.2253 17.2082C49.8191 15.5696 51.7275 14.2752 53.9472 13.3265C56.1669 12.3787 58.6113 11.9039 61.2846 11.9039C64.5579 11.9039 67.2736 12.4214 69.4284 13.4563C71.5823 14.4903 73.4799 15.9154 75.1162 17.7257L69.1046 24.1938C67.9836 23.03 66.8325 22.1023 65.6465 21.4123C64.4614 20.7232 62.9841 20.3782 61.218 20.3782C59.9687 20.3782 58.8368 20.6261 57.8256 21.1209C56.8119 21.6175 55.9272 22.2973 55.1748 23.1598C54.4208 24.0239 53.839 25.0261 53.4287 26.1682C53.0184 27.3103 52.8153 28.5285 52.8153 29.8222V29.9511C52.8153 31.2883 53.0184 32.5392 53.4287 33.7039C53.839 34.8678 54.4308 35.8817 55.2064 36.7433C55.9821 37.6074 56.9093 38.2873 57.9854 38.7821C59.0632 39.2778 60.27 39.5265 61.6075 39.5265C63.2446 39.5265 64.6777 39.1933 65.9045 38.5226C67.1338 37.8552 68.3506 36.961 69.5582 35.8382L75.3117 41.6616C73.6305 43.5154 71.7138 45.0351 69.5591 46.2207Z" fill="#F9495C"/>
<path d="M117.394 36.9702C116.446 39.1489 115.133 41.0571 113.451 42.6957C111.771 44.3343 109.788 45.6279 107.503 46.5774C105.22 47.5252 102.721 48 100.006 48C97.3331 48 94.8554 47.5353 92.5716 46.6092C90.287 45.6815 88.3153 44.4096 86.6575 42.792C84.9987 41.1743 83.6929 39.277 82.7457 37.0992C81.7978 34.9222 81.3242 32.5819 81.3242 30.0809V29.9503C81.3242 27.4493 81.7986 25.1098 82.7457 22.9312C83.6929 20.7542 85.0079 18.846 86.6899 17.2074C88.3694 15.5679 90.3519 14.2743 92.6365 13.3256C94.9211 12.3778 97.4196 11.9031 100.135 11.9031C102.806 11.9031 105.284 12.3669 107.569 13.293C109.852 14.2207 111.824 15.4934 113.483 17.1086C115.142 18.7262 116.445 20.6244 117.394 22.8014C118.342 24.98 118.817 27.3195 118.817 29.8205V29.9494C118.816 32.453 118.342 34.7924 117.394 36.9702ZM109.12 29.9511C109.12 28.6575 108.903 27.4392 108.475 26.2963C108.042 25.1542 107.418 24.1402 106.599 23.256C105.78 22.3727 104.809 21.6719 103.69 21.1527C102.569 20.6353 101.34 20.3782 100.006 20.3782C98.5831 20.3782 97.3231 20.6261 96.2245 21.1209C95.1259 21.6174 94.1871 22.2973 93.4122 23.1598C92.6365 24.023 92.0448 25.0253 91.6345 26.1682C91.2242 27.3103 91.0211 28.5285 91.0211 29.823V29.9519C91.0211 31.2456 91.2358 32.4655 91.6661 33.6068C92.0972 34.7505 92.7214 35.7645 93.542 36.6479C94.3602 37.532 95.3198 38.2329 96.4184 38.7503C97.517 39.2678 98.7554 39.5273 100.135 39.5273C101.557 39.5273 102.818 39.2787 103.916 38.7821C105.015 38.2881 105.954 37.6074 106.729 36.7441C107.503 35.8826 108.096 34.8803 108.506 33.7374C108.915 32.5945 109.12 31.3754 109.12 30.0826V29.9511Z" fill="#F9495C"/>
<path d="M152.234 47.223V42.2854C151.028 43.9106 149.572 45.2486 147.872 46.2961C146.169 47.3444 144.026 47.8685 141.439 47.8685C139.413 47.8685 137.452 47.4817 135.557 46.7055C133.659 45.9285 131.979 44.7747 130.515 43.2441C129.049 41.7135 127.874 39.838 126.991 37.6158C126.107 35.3953 125.667 32.8407 125.667 29.9503V29.8213C125.667 26.9318 126.107 24.3764 126.991 22.1567C127.874 19.9362 129.039 18.0589 130.481 16.5275C131.926 14.9969 133.595 13.8431 135.492 13.0661C137.388 12.2908 139.371 11.9022 141.439 11.9022C144.067 11.9022 146.233 12.4138 147.936 13.4429C149.639 14.4694 151.072 15.6684 152.234 17.0357V0H162.061V47.223H152.234ZM152.364 29.8213C152.364 28.3879 152.139 27.0758 151.685 25.8818C151.233 24.6878 150.627 23.668 149.875 22.8207C149.12 21.975 148.236 21.3236 147.224 20.8672C146.212 20.4117 145.124 20.1823 143.96 20.1823C142.796 20.1823 141.708 20.4117 140.696 20.8672C139.684 21.3236 138.79 21.9741 138.013 22.8207C137.238 23.668 136.625 24.677 136.172 25.85C135.72 27.0214 135.492 28.346 135.492 29.8222V29.9511C135.492 31.3854 135.72 32.6983 136.172 33.8923C136.625 35.0863 137.238 36.1061 138.013 36.9518C138.791 37.7992 139.684 38.4506 140.696 38.9069C141.709 39.3624 142.797 39.5901 143.96 39.5901C145.124 39.5901 146.212 39.3632 147.224 38.9069C148.237 38.4506 149.121 37.8 149.875 36.9518C150.627 36.1061 151.233 35.0855 151.685 33.8923C152.138 32.6983 152.364 31.3854 152.364 29.9511V29.8213Z" fill="#F9495C"/>
<path d="M204.432 32.0862C204.411 32.432 204.377 32.8415 204.336 33.3154H180.223C180.698 35.5585 181.677 37.2499 183.165 38.3928C184.653 39.5366 186.495 40.1076 188.692 40.1076C190.329 40.1076 191.795 39.8271 193.089 39.2669C194.381 38.7076 195.715 37.8025 197.096 36.5499L202.72 41.531C201.081 43.5598 199.1 45.1431 196.772 46.286C194.445 47.4281 191.708 48.0008 188.562 48.0008C185.976 48.0008 183.574 47.5688 181.355 46.7064C179.134 45.844 177.219 44.6148 175.603 43.0197C173.986 41.4247 172.726 39.5374 171.822 37.3596C170.917 35.1826 170.463 32.7561 170.463 30.0826V29.952C170.463 27.4945 170.883 25.1643 171.723 22.9672C172.565 20.7676 173.737 18.8485 175.247 17.2099C176.754 15.5705 178.553 14.2768 180.645 13.3282C182.734 12.3803 185.049 11.9056 187.592 11.9056C190.48 11.9056 192.979 12.423 195.092 13.4571C197.203 14.492 198.959 15.8836 200.36 17.6302C201.759 19.376 202.795 21.3813 203.462 23.6462C204.13 25.9103 204.464 28.2707 204.464 30.7298V30.8588C204.465 31.3318 204.454 31.7413 204.432 32.0862ZM192.571 21.8326C191.32 20.4737 189.662 19.7947 187.592 19.7947C185.525 19.7947 183.855 20.4653 182.583 21.8008C181.311 23.138 180.483 24.9282 180.094 27.1696H194.898C194.596 24.97 193.82 23.1916 192.571 21.8326Z" fill="#F9495C"/>
<path d="M233.425 22.1885C230.15 22.1885 227.575 23.1807 225.699 25.1634C223.825 27.1478 222.888 30.2325 222.888 34.414V47.2222H213.063V12.5495H222.889V19.5359C223.879 17.1647 225.237 15.2665 226.96 13.8431C228.683 12.4205 231.012 11.7725 233.942 11.9031V22.1885H233.425Z" fill="#F9495C"/>
<path d="M241.569 0H251.914V8.73306H241.569V0ZM241.828 12.5495H251.653V47.223H241.828V12.5495Z" fill="#F9495C"/>
<path d="M296.578 36.9702C295.63 39.1489 294.316 41.0571 292.634 42.6957C290.954 44.3343 288.972 45.6279 286.687 46.5774C284.403 47.5252 281.905 48 279.189 48C276.516 48 274.038 47.5353 271.754 46.6092C269.47 45.6815 267.499 44.4096 265.841 42.792C264.182 41.1743 262.876 39.277 261.929 37.0992C260.981 34.9222 260.507 32.5819 260.507 30.0809V29.9503C260.507 27.4493 260.981 25.1098 261.929 22.9312C262.876 20.7542 264.19 18.846 265.873 17.2074C267.554 15.5679 269.535 14.2743 271.82 13.3256C274.105 12.3778 276.602 11.9031 279.318 11.9031C281.99 11.9031 284.467 12.3669 286.753 13.293C289.036 14.2207 291.006 15.4934 292.666 17.1086C294.326 18.7262 295.629 20.6244 296.578 22.8014C297.526 24.98 298 27.3195 298 29.8205V29.9494C298 32.453 297.527 34.7924 296.578 36.9702ZM288.304 29.9511C288.304 28.6575 288.088 27.4392 287.658 26.2963C287.225 25.1542 286.601 24.1402 285.783 23.256C284.964 22.3727 283.994 21.6719 282.874 21.1527C281.754 20.6353 280.525 20.3782 279.191 20.3782C277.768 20.3782 276.508 20.6261 275.41 21.1209C274.311 21.6174 273.372 22.2973 272.597 23.1598C271.822 24.023 271.229 25.0253 270.82 26.1682C270.41 27.3103 270.206 28.5285 270.206 29.823V29.9519C270.206 31.2456 270.421 32.4655 270.851 33.6068C271.282 34.7505 271.907 35.7645 272.726 36.6479C273.545 37.532 274.505 38.2329 275.604 38.7503C276.702 39.2678 277.941 39.5273 279.32 39.5273C280.742 39.5273 282.002 39.2787 283.101 38.7821C284.2 38.2881 285.139 37.6074 285.914 36.7441C286.689 35.8826 287.281 34.8803 287.691 33.7374C288.1 32.5945 288.305 31.3754 288.305 30.0826V29.9511H288.304Z" fill="#F9495C"/>
<path d="M33.9261 40.0113H0V47.897H33.9261V40.0113Z" fill="#F9495C"/>
</g>
<defs>
<clipPath id="clip0">
<rect width="298" height="48" fill="white"/>
</clipPath>
</defs>
</svg>
