<svg width="199" height="67" viewBox="0 0 199 67" fill="none" xmlns="http://www.w3.org/2000/svg">
<path d="M89.092 40.1794C88.9348 43.61 87.9731 46.2053 86.2069 47.9653C84.4408 49.7253 81.9409 50.6079 78.7073 50.6131C75.3112 50.6131 72.7092 49.4941 70.9011 47.256C69.093 45.018 68.1916 41.8264 68.1968 37.6812V32.6141C68.1968 28.4847 69.1297 25.301 70.9954 23.0629C72.8611 20.8248 75.458 19.7058 78.7859 19.7058C82.0562 19.7058 84.5403 20.6226 86.2383 22.4561C87.9364 24.2896 88.9007 26.9165 89.1313 30.3366H83.0545C82.9969 28.2351 82.6693 26.772 82.0719 25.9472C81.4744 25.1591 80.3817 24.7415 78.7859 24.7415C78.1114 24.6808 77.4332 24.8076 76.8258 25.1078C76.2184 25.4081 75.7053 25.8703 75.3427 26.4436C74.6823 27.5863 74.3128 29.4619 74.2735 32.0782V37.76C74.2735 40.7494 74.6063 42.8009 75.2719 43.9147C75.6372 44.4816 76.1507 44.9372 76.7565 45.2318C77.3622 45.5264 78.037 45.6487 78.7073 45.5854C80.2795 45.5854 81.3958 45.1992 82.0011 44.4191C82.6065 43.6389 82.9445 42.2283 83.031 40.1951L89.092 40.1794Z" fill="white"/>
<path d="M111.033 38.6505C111.078 40.787 110.671 42.909 109.838 44.8761C109.131 46.5673 107.952 48.0178 106.442 49.0527C104.953 50.0441 103.198 50.5581 101.411 50.5264C99.631 50.5528 97.8832 50.051 96.3873 49.0843C94.8634 48.0543 93.6701 46.6035 92.9519 44.9076C92.1021 42.9336 91.6839 40.8 91.7256 38.6505V37.7206C91.6784 35.5576 92.0883 33.4091 92.9283 31.4162C93.639 29.7226 94.8241 28.2719 96.3401 27.2395C97.8432 26.2473 99.6114 25.7362 101.411 25.7737C102.689 25.7387 103.96 25.99 105.129 26.5094C106.299 27.0288 107.338 27.8032 108.171 28.7762C109.932 30.7779 110.889 33.452 111.041 36.7986L111.033 38.6505ZM105.2 37.6812C105.3 35.8788 104.957 34.0793 104.201 32.4406C103.954 31.897 103.557 31.436 103.056 31.1127C102.554 30.7895 101.971 30.6176 101.375 30.6176C100.779 30.6176 100.196 30.7895 99.6949 31.1127C99.1938 31.436 98.796 31.897 98.5491 32.4406C97.8187 34.0865 97.4874 35.8823 97.5822 37.6812V38.6268C97.4797 40.4412 97.8282 42.2528 98.5963 43.8989C98.8478 44.4359 99.2453 44.8908 99.7431 45.2114C100.241 45.532 100.819 45.7053 101.411 45.7114C101.998 45.7021 102.569 45.5231 103.058 45.196C103.546 44.8689 103.929 44.4076 104.162 43.8674C104.905 42.2606 105.253 40.4986 105.176 38.7293L105.2 37.6812Z" fill="white"/>
<path d="M114.822 50.2034V20.1235H122.762C126.263 20.1235 129.053 21.2373 131.134 23.4649C133.217 25.7029 134.278 28.7527 134.318 32.6378V37.5158C134.318 41.4613 133.27 44.5636 131.173 46.8227C129.077 49.0818 126.231 50.2087 122.636 50.2034H114.822ZM120.883 25.1907V45.1599H122.699C124.719 45.1599 126.134 44.624 126.96 43.5838C127.785 42.5436 128.217 40.6759 128.257 38.0674V32.8033C128.257 29.9978 127.872 28.0356 127.085 26.9244C126.299 25.8133 124.971 25.238 123.092 25.1828L120.883 25.1907Z" fill="white"/>
<path d="M151.809 40.203H143.948V45.3805H153.295V50.2033H138.154V26.1284H153.295V31.0064H143.979V35.3486H151.84L151.809 40.203Z" fill="white"/>
<path d="M170.833 44.0408H162.571L160.96 50.2033H154.553L163.931 20.1313H169.473L178.907 50.2033H172.437L170.833 44.0408ZM163.884 38.9815H169.489L166.659 28.264L163.884 38.9815Z" fill="white"/>
<path d="M189.126 41.9131H187.051V50.2033H181.194V26.1284H189.889C192.546 26.1284 194.606 26.7589 196.068 28.0119C196.812 28.6806 197.395 29.5092 197.775 30.4357C198.155 31.3623 198.321 32.3628 198.261 33.3627C198.311 34.8051 198.02 36.239 197.412 37.5473C196.78 38.7243 195.803 39.6787 194.613 40.2818L199 49.9512V50.2033H192.711L189.126 41.9131ZM187.051 37.0587H189.787C191.548 37.0587 192.428 36.0473 192.428 34.0247C192.428 32.023 191.587 31.0222 189.912 31.0064H187.051V37.0587Z" fill="white"/>
<path d="M19.842 67L50.3665 39.9121L42.2513 0L23.1273 16.9681L35.9854 39.3232L19.842 67Z" fill="white"/>
<path d="M19.0153 16.9682L15.9476 11.6248L0 39.3233L15.7953 66.7384L15.9476 67.0001L16.1434 66.6293L31.8734 39.3233L19.0153 16.9682Z" fill="white"/>
</svg>
