<svg width="1693" height="223" viewBox="0 0 1693 223" fill="none" xmlns="http://www.w3.org/2000/svg">
<path d="M14.4805 106.383L20.8522 111.403L24.7139 114.493L29.1542 117.968L33.208 121.057L39.1943 125.691L43.8279 129.359L49.4266 133.8L54.0601 137.276L58.1151 140.558L63.5205 144.806L70.2788 150.018L74.7191 153.493L80.7043 158.128L85.9176 162.182L91.5163 166.623L96.1499 170.29L101.556 174.345L108.314 179.559L114.879 184.771L120.091 188.826L122.409 190.564C122.409 190.564 122.409 190.564 122.409 191.722L120.091 194.811L117.774 197.708L114.299 202.341C112.175 205.237 110.052 207.94 107.735 210.643C105.418 213.346 105.225 213.925 103.873 215.663L100.398 220.297C100.398 221.262 99.0465 221.841 97.888 221.648H95.378C95.378 221.648 95.378 221.648 94.2196 221.648L89.0063 217.787L82.6357 212.767L75.8775 207.554L69.8923 202.728L65.452 199.445L59.66 194.811L55.0253 191.143L49.0401 186.509L45.1796 183.42L39.3864 178.979L33.981 174.925L28.189 170.29L24.1341 167.202L19.3073 163.533L13.3221 158.9L7.33686 154.073L2.7033 150.404L0 148.088V119.705L5.59869 115.265L11.9704 110.245L14.4805 106.383Z" fill="black"/>
<path d="M1678.38 106.383L1683.01 110.052L1688.03 113.913L1691.31 116.617C1691.76 116.528 1692.22 116.528 1692.67 116.617V146.736L1688.42 150.404L1682.43 155.231L1677.99 158.706L1672.01 163.34L1667.37 166.815L1661 171.835L1657.33 174.539L1652.7 178.207L1649.42 180.91L1643.43 185.544L1639.57 188.632L1633.78 193.074L1628.18 197.321L1621.81 202.341L1615.24 207.361L1609.26 212.188L1604.63 215.663L1598.83 220.297H1597.48H1594.97C1594.52 220.333 1594.06 220.244 1593.65 220.04C1593.24 219.836 1592.9 219.524 1592.65 219.138C1591.5 217.401 1590.14 215.856 1588.99 214.312L1585.32 209.678C1584.16 207.94 1582.81 206.396 1581.46 204.658C1580.08 202.771 1578.6 200.965 1577.02 199.251L1573.54 194.618L1571.03 191.143C1571.03 191.143 1571.03 191.143 1571.03 190.177L1577.98 184.771L1584.16 179.944L1591.11 174.539L1597.29 169.712L1601.54 166.43L1607.91 161.41L1612.54 157.935L1618.33 153.301L1622.97 149.825L1628.76 145.191L1634.55 140.751L1638.99 137.082L1642.08 134.766L1648.45 129.939L1656.76 123.567L1661.97 119.32L1667.18 115.265L1673.55 110.245L1678.38 106.383Z" fill="black"/>
<path d="M56.569 125.884L22.7812 99.6261L28.7665 94.9926C31.2764 93.2549 33.5932 91.3246 35.9101 89.3939L42.6683 84.1805L49.8119 78.5807L55.9904 73.9471L62.9407 68.5417L68.9259 63.7149L75.8763 58.3083L82.0547 53.6747L89.0051 48.2693L93.6386 44.4076C94.0007 44.2359 94.3963 44.146 94.797 44.146C95.1977 44.146 95.5934 44.2359 95.9554 44.4076H97.3071C98.4655 44.4076 99.0448 44.4076 99.8171 45.566L105.224 52.7096L110.244 59.2734L116.229 66.8035L120.283 72.0169C120.573 72.619 120.725 73.2785 120.725 73.9471C120.725 74.6157 120.573 75.2764 120.283 75.8786C119.581 77.1267 118.588 78.186 117.387 78.9672L110.629 84.3738L100.204 92.4825L89.9702 100.591L81.8615 106.576L70.0843 115.845L61.0093 122.795L56.569 125.884Z" fill="#F3D63E"/>
<path d="M1669.69 99.6266L1635.9 125.884L1631.66 122.602L1626.06 118.162L1618.53 112.369L1609.65 105.419L1597.29 95.9581L1586.67 87.6562L1576.63 79.5474C1575.46 78.8205 1574.36 77.9797 1573.35 77.0374C1572.54 76.1101 1572 74.9718 1571.8 73.7543C1571.76 73.1117 1571.86 72.4689 1572.1 71.8688C1572.33 71.2687 1572.69 70.7258 1573.15 70.2791L1578.56 63.1355L1584.35 55.7987C1586.86 52.5164 1589.37 49.4273 1591.69 46.145C1592.31 45.591 1592.83 44.9391 1593.24 44.2148C1593.61 44.1074 1594.01 44.1074 1594.39 44.2148H1598.26L1605.98 50.2L1615.44 57.7301L1622.77 63.3288L1631.08 69.8938C1632.99 71.4815 1634.99 72.9635 1637.06 74.3341L1644.01 79.9328L1653.09 86.8843L1662.16 94.0279L1669.69 99.6266Z" fill="#F3D63E"/>
<path d="M289.803 0H300.615V218.172H289.803V188.825C281.361 201.966 268.695 211.84 253.891 216.82C248.15 218.675 242.161 219.652 236.128 219.717H233.811C224.911 219.549 216.148 217.501 208.095 213.708C200.043 209.915 192.884 204.461 187.088 197.706C174.881 184.188 168.017 166.686 167.78 148.473V146.735C167.644 136.083 169.817 125.528 174.15 115.795C178.483 106.063 184.873 97.3848 192.88 90.3579C204.424 80.4108 219.152 74.9311 234.391 74.9123C244.653 75.0198 254.74 77.5815 263.809 82.3847C272.878 87.188 280.666 94.0931 286.521 102.522L288.837 105.804V0H289.803ZM179.944 147.7C179.816 163.047 185.232 177.924 195.196 189.596C199.995 195.181 205.91 199.699 212.561 202.858C219.211 206.018 226.45 207.748 233.811 207.939C242.091 207.876 250.236 205.826 257.56 201.963C264.884 198.099 271.174 192.535 275.901 185.736C284.158 174.564 288.562 161.013 288.451 147.121C288.574 137.695 286.553 128.365 282.539 119.835C278.525 111.305 272.624 103.8 265.282 97.8869C256.199 90.883 245.086 87.0217 233.618 86.8828C225.336 86.9716 217.193 89.0109 209.847 92.835C202.5 96.659 196.158 102.159 191.335 108.892C183.499 120.284 179.509 133.881 179.944 147.7Z" fill="black"/>
<path d="M401.784 76.6502C411.542 76.7474 421.143 79.1193 429.823 83.577C438.504 88.0346 446.026 94.4554 451.79 102.329C461.313 115.116 466.519 130.6 466.656 146.542V148.666C466.608 167.723 459.128 186.011 445.805 199.637C440.04 205.727 433.095 210.579 425.394 213.899C417.693 217.218 409.398 218.935 401.012 218.945C391.112 218.841 381.375 216.41 372.587 211.848C363.8 207.287 356.21 200.724 350.427 192.687C341.108 179.758 336.107 164.218 336.139 148.281C335.7 129.368 342.622 111.024 355.446 97.1159C361.293 90.6336 368.444 85.46 376.429 81.9331C384.414 78.4062 393.055 76.6057 401.784 76.6502ZM348.496 146.736C348.334 156.026 350.283 165.232 354.196 173.66C358.109 182.088 363.883 189.519 371.085 195.39C379.959 202.346 390.896 206.149 402.171 206.202C409.625 205.993 416.943 204.156 423.613 200.821C430.283 197.486 436.145 192.733 440.785 186.895C450.315 175.477 455.451 161.028 455.266 146.156C455.394 130.984 449.968 116.289 440.012 104.839C435.251 99.239 429.336 94.7344 422.67 91.635C416.005 88.5357 408.748 86.9153 401.397 86.8836C392.885 87.0706 384.544 89.3089 377.082 93.4097C369.62 97.5106 363.257 103.352 358.536 110.438C351.695 121.288 348.203 133.913 348.496 146.736Z" fill="black"/>
<path d="M558.945 76.6505C568.278 76.768 577.468 78.9597 585.849 83.067C594.231 87.1744 601.595 93.0941 607.406 100.398L612.233 107.542C609.219 109.848 605.986 111.854 602.579 113.528C597.961 105.907 591.478 99.5871 583.743 95.1624C576.009 90.7376 567.275 88.3529 558.365 88.2344C549.842 88.3724 541.483 90.5905 534.013 94.6957C526.543 98.8009 520.189 104.669 515.503 111.79C508.426 122.355 504.661 134.791 504.691 147.508C504.529 156.799 506.478 166.005 510.391 174.433C514.304 182.86 520.079 190.291 527.281 196.163C536.169 203.092 547.095 206.892 558.365 206.975C567.159 206.87 575.784 204.551 583.444 200.232C591.104 195.912 597.553 189.733 602.193 182.262V180.91C605.609 182.717 608.842 184.85 611.846 187.281C603.761 200.591 591.255 210.638 576.514 215.663C570.258 217.585 563.751 218.561 557.207 218.559C548.324 218.513 539.555 216.559 531.493 212.828C523.432 209.097 516.267 203.677 510.483 196.934C498.546 183.4 492.016 165.941 492.141 147.894C491.952 128.809 499.308 110.42 512.607 96.7297C518.488 90.3176 525.654 85.2162 533.638 81.7566C541.622 78.2971 550.244 76.5573 558.945 76.6505Z" fill="black"/>
<path d="M655.676 0H667.26V77.2291H709.543V88.813H667.453V181.488C667.2 187.88 669.03 194.18 672.666 199.443C673.763 201.094 675.213 202.48 676.913 203.498C679.989 205.816 683.686 207.161 687.532 207.36C693.517 206.87 699.351 205.231 704.716 202.533H706.454L711.473 213.152C707.758 214.989 703.88 216.476 699.889 217.592C696.133 218.788 692.241 219.503 688.305 219.717H686.374C680.803 219.486 675.399 217.751 670.735 214.697C668.579 213.297 666.574 211.68 664.749 209.87C661.71 206.599 659.406 202.714 657.992 198.478C656.178 193.532 655.263 188.301 655.289 183.033V88.813H627.487V77.2291H655.289L655.676 0Z" fill="black"/>
<path d="M799.898 76.6501C809.997 76.794 819.914 79.3589 828.817 84.1295C837.72 88.9001 845.349 95.7367 851.062 104.066L852.993 107.156V78.5803H863.805V216.821H852.993V188.053C845.125 200.879 833.044 210.57 818.818 215.469C812.566 217.427 806.062 218.467 799.511 218.558C789.611 218.454 779.875 216.024 771.088 211.463C762.3 206.901 754.708 200.337 748.926 192.3C739.607 179.372 734.607 163.831 734.639 147.894C734.2 128.981 741.122 110.637 753.946 96.7292C759.784 90.3656 766.888 85.293 774.801 81.8351C782.714 78.3773 791.262 76.6109 799.898 76.6501ZM746.416 147.507C746.292 156.811 748.277 166.023 752.223 174.45C756.169 182.877 761.974 190.3 769.2 196.162C778.074 203.117 789.01 206.921 800.284 206.974C807.749 206.818 815.085 205.004 821.763 201.665C828.441 198.326 834.295 193.545 838.899 187.667C848.575 176.32 853.791 161.84 853.572 146.929C853.7 131.756 848.275 117.061 838.319 105.611C833.558 100.011 827.642 95.506 820.977 92.4067C814.312 89.3074 807.055 87.687 799.704 87.6553C791.182 87.7933 782.822 90.0115 775.352 94.1166C767.882 98.2218 761.528 104.089 756.843 111.21C750.031 121.806 746.411 134.139 746.416 146.736V147.507Z" fill="black"/>
<path d="M1046.45 0.193359V218.559H1018.46V204.658L1013.63 209.485C1011.14 211.608 1008.49 213.544 1005.72 215.277C1002.49 217.202 999.058 218.756 995.483 219.91C989.218 221.813 982.722 222.853 976.176 223H974.246C961.175 222.976 948.382 219.225 937.368 212.188C935.051 210.837 932.542 208.905 929.646 206.781C926.322 203.867 923.223 200.705 920.378 197.321C917.161 193.48 914.317 189.343 911.882 184.964C905.8 173.833 902.614 161.351 902.615 148.666C902.605 139.218 904.374 129.852 907.829 121.057C911.263 112.285 916.304 104.231 922.694 97.3095C925.199 94.7227 927.842 92.2734 930.611 89.9727C943.183 79.8232 958.86 74.302 975.018 74.3338C988.569 74.1534 1001.76 78.7306 1012.28 87.2694C1014.56 89.0278 1016.58 91.1092 1018.27 93.4478V1.15967H1047.03L1046.45 0.193359ZM1007.84 118.74C1006.36 116.647 1004.61 114.764 1002.63 113.142C1000 110.638 997.005 108.554 993.745 106.963C987.777 103.862 981.163 102.208 974.438 102.136C968.216 102.083 962.057 103.386 956.389 105.953C950.721 108.521 945.68 112.291 941.616 117.003C934.427 125.547 930.464 136.342 930.418 147.508C930.519 154.185 932.032 160.765 934.858 166.815C936.831 171.001 939.364 174.899 942.388 178.4C946.411 182.79 951.304 186.292 956.756 188.686C962.207 191.079 968.099 192.31 974.052 192.301C980.319 192.234 986.502 190.853 992.201 188.247C995.025 186.704 997.734 184.962 1000.31 183.034L1003.01 180.524C1005 178.577 1006.87 176.514 1008.61 174.345C1014.27 166.466 1017.3 157.013 1017.3 147.316C1017.53 136.954 1014.11 126.839 1007.65 118.74H1007.84Z" fill="black"/>
<path d="M1145.11 73.3687H1149.55C1165.18 73.8075 1180.1 79.9937 1191.45 90.7445C1196.8 95.6567 1201.42 101.314 1205.16 107.542C1212.17 119.767 1215.9 133.605 1215.97 147.701V152.335C1215.97 155.038 1215.97 156.39 1215.97 156.39H1109.01C1110.48 165.283 1114.42 173.581 1120.4 180.331C1123.77 184.326 1127.97 187.548 1132.7 189.78C1137.43 192.012 1142.59 193.201 1147.82 193.266C1154.46 193.126 1160.95 191.276 1166.66 187.894C1172.38 184.512 1177.13 179.711 1180.44 173.959C1181.24 172.193 1182.21 170.512 1183.34 168.94L1209.41 180.717C1206.84 186.324 1203.67 191.633 1199.94 196.549C1193.83 204.471 1185.99 210.898 1177.03 215.346C1168.07 219.795 1158.21 222.148 1148.2 222.227C1137.87 222.13 1127.71 219.618 1118.52 214.891C1109.33 210.164 1101.38 203.354 1095.3 195.004C1085.41 181.43 1080.07 165.075 1080.05 148.281C1079.89 137.064 1082.21 125.949 1086.85 115.735C1091.49 105.521 1098.33 96.4603 1106.88 89.2008C1117.55 79.8799 1130.98 74.3177 1145.11 73.3687ZM1111.13 129.359H1183.53C1180.89 122.842 1176.95 116.931 1171.95 111.983C1165.11 105.947 1156.35 102.528 1147.24 102.33C1140.2 102.528 1133.35 104.647 1127.42 108.459C1121.5 112.27 1116.74 117.629 1113.64 123.954L1111.13 129.359Z" fill="black"/>
<path d="M1265.78 75.4922C1265.78 75.4922 1268.29 81.0919 1272.15 90.5524L1299.38 152.335L1310 176.084L1331.04 127.815L1353.82 75.4922H1387.23L1354.98 147.123L1334.52 192.688L1322.93 218.559H1297.25C1295.48 215.32 1293.94 211.967 1292.62 208.52L1265.4 148.088L1236.24 83.2156L1232.77 75.4922H1265.78Z" fill="black"/>
<path d="M1466.39 67.3839C1483.5 66.9146 1500.14 72.9915 1512.92 84.3744C1515.1 86.3835 1517.1 88.5794 1518.9 90.9382L1520.84 93.8348L1512.73 98.8549L1496.51 109.087C1494.86 107.2 1493.05 105.457 1491.1 103.875C1484.04 98.7536 1475.49 96.1063 1466.77 96.3449C1457.82 95.9067 1448.98 98.4908 1441.68 103.682C1440.15 104.849 1438.89 106.334 1437.99 108.034C1437.09 109.733 1436.57 111.608 1436.46 113.529C1436.44 114.527 1436.68 115.514 1437.15 116.393C1437.63 117.273 1438.32 118.015 1439.17 118.548C1442.61 120.844 1446.39 122.602 1450.36 123.761C1461.9 127.126 1473.64 129.769 1485.5 131.676C1490.09 132.599 1494.55 134.024 1498.83 135.925C1502.49 137.411 1505.99 139.287 1509.25 141.523C1511.64 143.359 1513.9 145.359 1516.01 147.508C1522.95 154.715 1526.83 164.337 1526.82 174.346C1526.73 184.959 1522.66 195.153 1515.43 202.92C1513.43 205.24 1511.16 207.315 1508.67 209.099C1505.54 211.27 1502.25 213.207 1498.83 214.892C1488.64 219.531 1477.58 221.902 1466.39 221.842C1451.89 222.016 1437.65 217.92 1425.46 210.065C1422.36 208.013 1419.45 205.686 1416.77 203.113C1414.63 201.058 1412.63 198.866 1410.78 196.55C1408.91 194.067 1407.17 191.489 1405.57 188.826L1430.48 174.346L1431.64 176.469C1433.18 178.624 1434.93 180.628 1436.85 182.455C1441.58 186.824 1447.37 189.885 1453.65 191.336C1457.93 192.432 1462.35 192.952 1466.77 192.881C1474.94 193.033 1482.99 191.036 1490.14 187.089C1491.87 186.039 1493.49 184.809 1494.96 183.421C1497.29 180.873 1498.65 177.596 1498.83 174.153C1498.83 168.553 1494.58 164.306 1486.08 161.217C1481.12 159.626 1476.01 158.527 1470.83 157.935C1458.55 155.905 1446.52 152.605 1434.92 148.088C1431.38 146.666 1428.01 144.852 1424.88 142.682C1417.69 138.319 1412.39 131.435 1410.01 123.374C1408.84 119.89 1408.25 116.237 1408.27 112.562C1408.44 102.74 1412.22 93.3237 1418.89 86.1114C1420.84 83.9321 1422.97 81.9292 1425.26 80.1262C1428.25 77.8765 1431.41 75.8748 1434.72 74.141C1444.68 69.6765 1455.48 67.3739 1466.39 67.3839Z" fill="black"/>
</svg>
