<svg xmlns="http://www.w3.org/2000/svg" viewBox="0 0 133.165 53.177">
    <defs>
        <style>.logo-path{fill:#4facfe;}</style>
    </defs>
    <title>Eryx Logo</title>
    <path class="logo-path"
          d="M163.755,1.412q-8.235,0-12.859,5.347-4.476,5.2-4.478,14.45,0,9.68,4.624,14.877,4.621,5.35,12.86,5.349a18.377,18.377,0,0,0,11.268-3.326,15.757,15.757,0,0,0,6.069-9.246h-7.226a4.152,4.152,0,0,0-2.672.725,6.774,6.774,0,0,0-1.081,1.156,6.351,6.351,0,0,1-1.59,1.3,8.277,8.277,0,0,1-4.191,1.012,6.829,6.829,0,0,1-5.634-2.314q-2.024-2.164-2.169-6.646h25a2.533,2.533,0,0,0,.146-1.013V21.5q0-9.543-4.624-14.884Q172.422,1.411,163.755,1.412Zm-7.079,16.183a8.293,8.293,0,0,1,2.169-5.78,7.048,7.048,0,0,1,5.2-2.021,6.944,6.944,0,0,1,5.345,2.021,9.373,9.373,0,0,1,2.024,5.78Z"
          transform="translate(-146.418 -1.412)"/>
    <path class="logo-path"
          d="M197.542,3.291a17.887,17.887,0,0,0-6.429,3.178,15.688,15.688,0,0,0-4.551,6.142,23.777,23.777,0,0,0-1.663,9.462V40.713h10.113v-19.8q0-4.336,2.024-6.355c1.349-1.349,3.266-1.961,6.022-2.023L206.451,2.28h-1.322A28.526,28.526,0,0,0,197.542,3.291Z"
          transform="translate(-146.418 -1.412)"/>
    <path class="logo-path"
          d="M236.239,2.28q-3.763,0-4.625,3.467l-6.794,23.7L216.991,2.277l-10.537,0,12.81,38.489c.737,1.819.522,3.291-.582,4.2a6.95,6.95,0,0,1-4.553,1.375h-2.744V54.41c.284.058,1.544.157,2.166.175.289.008.624,0,1.011,0h1.012q5.921,0,8.524-1.732,2.6-2.028,4.335-6.8L243.172,2.28Z"
          transform="translate(-146.418 -1.412)"/>
    <path class="logo-path"
          d="M266.868,21.062,279.032,2.33H270.6a4.645,4.645,0,0,0-4.332,2.6l-5.328,8.907L254.3,2.28H243.174l11.844,18.637-12.571,19.8h11.7l7.08-12.137,6.786,12.137h11.563Z"
          transform="translate(-146.418 -1.412)"/>
</svg>