<svg width="33" height="32" viewBox="0 0 33 32" fill="none" xmlns="http://www.w3.org/2000/svg">
<path fill-rule="evenodd" clip-rule="evenodd" d="M13.2001 0.300095C6.83005 1.5201 1.68005 6.6101 0.360051 12.9601C-1.42995 21.5401 3.69005 29.3501 11.2701 31.9601C12.0901 32.1601 12.2901 31.5501 12.2901 31.1401C12.2901 30.7301 12.2901 29.7101 12.2901 28.2701C7.78005 29.2901 6.76005 26.2201 6.76005 26.2201C5.94005 24.3801 4.92005 23.7601 4.92005 23.7601C3.49005 22.7401 5.12005 22.7401 5.12005 22.7401C6.76005 22.9401 7.58005 24.3801 7.58005 24.3801C9.01005 27.0401 11.4701 26.2201 12.2901 25.8101C12.4901 24.7901 12.9001 23.9701 13.3101 23.5601C9.62005 23.1501 5.93005 21.7201 5.93005 15.3701C5.93005 13.5301 6.54005 12.0901 7.57005 11.0701C7.37005 10.6601 6.75005 9.0201 7.77005 6.7701C7.77005 6.7701 9.20005 6.3601 12.2801 8.4101C13.51 8.0001 14.9401 7.8001 16.3801 7.8001C17.8201 7.8001 19.2501 8.0001 20.4801 8.4101C23.5501 6.3601 24.9901 6.7701 24.9901 6.7701C25.8101 9.0201 25.4001 10.6601 25.1901 11.0701C26.2101 12.3001 26.8301 13.7301 26.8301 15.3701C26.8301 21.7201 22.9401 22.9501 19.2501 23.3601C19.8601 24.1801 20.4801 25.2001 20.4801 26.6401C20.4801 28.8901 20.4801 30.5301 20.4801 31.1501C20.4801 31.5601 20.68 32.1701 21.7101 31.9701C28.2701 29.7201 32.98 23.5701 32.98 16.4001C32.76 6.3301 23.6 -1.6799 13.2001 0.300095Z" fill="#A70050"/>
</svg>
