<svg width="17" height="16" viewBox="0 0 17 16" fill="none" xmlns="http://www.w3.org/2000/svg">
<path d="M8.66406 1.4391C10.7927 1.4391 11.0526 1.44909 11.892 1.48407C12.7765 1.45409 13.636 1.7639 14.2955 2.35353C14.8852 3.01312 15.2 3.87258 15.17 4.75703C15.21 5.6015 15.22 5.85634 15.22 7.99001C15.22 10.1237 15.21 10.3785 15.175 11.218C15.205 12.1024 14.8902 12.9619 14.3005 13.6215C13.6409 14.2111 12.7815 14.5259 11.897 14.4959C11.0526 14.5359 10.8027 14.5409 8.66905 14.5409C6.53539 14.5409 6.28055 14.5309 5.44108 14.4959C4.55663 14.5259 3.69717 14.2111 3.03758 13.6215C2.44795 12.9619 2.13314 12.1024 2.16313 11.218C2.12315 10.3735 2.11315 10.1237 2.11315 7.99001C2.11315 5.85634 2.12315 5.6015 2.15812 4.76202C2.12814 3.87758 2.43795 3.01811 3.02758 2.35853C3.68717 1.76889 4.55163 1.45409 5.43607 1.48907C6.27555 1.44909 6.53039 1.4391 8.66406 1.4391ZM8.66406 0C6.49541 0 6.22058 0.00999376 5.36612 0.0499688C4.1219 0.0249844 2.91765 0.489694 2.00822 1.34416C1.15875 2.25359 0.694039 3.45784 0.714027 4.70206C0.674052 5.55653 0.664062 5.82636 0.664062 8C0.664062 10.1736 0.674052 10.4435 0.714027 11.2979C0.689042 12.5422 1.15375 13.7464 2.00822 14.6558C2.91765 15.5053 4.1219 15.97 5.36612 15.95C6.22058 15.99 6.49042 16 8.66406 16C10.8377 16 11.1075 15.99 11.962 15.95C13.2062 15.975 14.4105 15.5103 15.3199 14.6558C16.1694 13.7464 16.6341 12.5422 16.6141 11.2979C16.6541 10.4435 16.6641 10.1736 16.6641 8C16.6641 5.82636 16.6541 5.55653 16.6141 4.70206C16.6391 3.45784 16.1744 2.25359 15.3199 1.34416C14.4105 0.494691 13.2062 0.0299813 11.962 0.0499688C11.1075 0.00999376 10.8327 0 8.66406 0Z" fill="white"/>
<path d="M8.66407 3.89258C6.39549 3.89258 4.55664 5.73143 4.55664 8.00001C4.55664 10.2686 6.39549 12.1074 8.66407 12.1074C10.9327 12.1074 12.7715 10.2686 12.7715 8.00001C12.7715 5.73143 10.9327 3.89258 8.66407 3.89258ZM8.66407 10.6583C7.19499 10.6583 6.00074 9.46909 6.00074 7.99501C6.00074 6.52094 7.19 5.33168 8.66407 5.33168C10.1332 5.33168 11.3274 6.52094 11.3274 7.99501C11.3274 9.46909 10.1382 10.6583 8.66407 10.6583Z" fill="white"/>
<path d="M12.9313 4.68711C13.4612 4.68711 13.8907 4.25757 13.8907 3.72771C13.8907 3.19785 13.4612 2.76831 12.9313 2.76831C12.4015 2.76831 11.9719 3.19785 11.9719 3.72771C11.9719 4.25757 12.4015 4.68711 12.9313 4.68711Z" fill="white"/>
</svg>
