<svg width="17" height="16" viewBox="0 0 17 16" fill="none" xmlns="http://www.w3.org/2000/svg">
<path d="M16.1875 0H1.56245C1.18745 0 0.887451 0.3 0.887451 0.675V15.35C0.887451 15.7 1.18745 16 1.56245 16H16.2124C16.5874 16 16.8875 15.7 16.8875 15.325V0.675C16.8625 0.3 16.5625 0 16.1875 0ZM5.63745 13.75H3.13745V6H5.63745V13.75ZM4.45245 4.995C3.70245 4.995 3.07745 4.37 3.07745 3.62C3.07745 2.87 3.70245 2.245 4.45245 2.245C5.20245 2.245 5.82745 2.87 5.82745 3.62C5.82745 4.395 5.22745 4.995 4.45245 4.995ZM14.6375 13.75H12.1375V10.05C12.1375 9.175 12.1125 8.025 10.8675 8.025C9.59745 8.025 9.38745 9 9.38745 9.975V13.75H7.13745V6H9.38745V7.25H9.41245C9.74745 6.655 10.5375 6.04 11.7175 6.04C14.1775 6.04 14.6375 7.595 14.6375 9.625V13.75Z" fill="white"/>
</svg>
