<svg width="487" height="68" viewBox="0 0 487 68" fill="none" xmlns="http://www.w3.org/2000/svg">
<path d="M377.092 40.1794C376.935 43.61 375.973 46.2053 374.207 47.9653C372.441 49.7253 369.941 50.6079 366.707 50.6131C363.311 50.6131 360.709 49.4941 358.901 47.256C357.093 45.018 356.192 41.8264 356.197 37.6812V32.6141C356.197 28.4847 357.13 25.301 358.995 23.0629C360.861 20.8248 363.458 19.7058 366.786 19.7058C370.056 19.7058 372.54 20.6226 374.238 22.4561C375.936 24.2896 376.901 26.9165 377.131 30.3366H371.055C370.997 28.2351 370.669 26.772 370.072 25.9472C369.474 25.1591 368.382 24.7415 366.786 24.7415C366.111 24.6808 365.433 24.8076 364.826 25.1078C364.218 25.4081 363.705 25.8703 363.343 26.4436C362.682 27.5863 362.313 29.4619 362.274 32.0782V37.76C362.274 40.7494 362.606 42.8009 363.272 43.9147C363.637 44.4816 364.151 44.9372 364.756 45.2318C365.362 45.5264 366.037 45.6487 366.707 45.5854C368.28 45.5854 369.396 45.1992 370.001 44.4191C370.606 43.6389 370.944 42.2283 371.031 40.1951L377.092 40.1794Z" fill="white"/>
<path d="M399.033 38.6505C399.078 40.787 398.671 42.909 397.838 44.8761C397.131 46.5673 395.952 48.0178 394.442 49.0527C392.953 50.0441 391.198 50.5581 389.411 50.5264C387.631 50.5528 385.883 50.051 384.387 49.0843C382.863 48.0543 381.67 46.6035 380.952 44.9076C380.102 42.9336 379.684 40.8 379.726 38.6505V37.7206C379.678 35.5576 380.088 33.4091 380.928 31.4162C381.639 29.7226 382.824 28.2719 384.34 27.2395C385.843 26.2473 387.611 25.7362 389.411 25.7737C390.689 25.7387 391.96 25.99 393.129 26.5094C394.299 27.0288 395.338 27.8032 396.171 28.7762C397.932 30.7779 398.889 33.452 399.041 36.7986L399.033 38.6505ZM393.2 37.6812C393.3 35.8788 392.957 34.0793 392.201 32.4406C391.954 31.897 391.557 31.436 391.056 31.1127C390.554 30.7895 389.971 30.6176 389.375 30.6176C388.779 30.6176 388.196 30.7895 387.695 31.1127C387.194 31.436 386.796 31.897 386.549 32.4406C385.819 34.0865 385.487 35.8823 385.582 37.6812V38.6268C385.48 40.4412 385.828 42.2528 386.596 43.8989C386.848 44.4359 387.245 44.8908 387.743 45.2114C388.241 45.532 388.819 45.7053 389.411 45.7114C389.998 45.7021 390.569 45.5231 391.058 45.196C391.546 44.8689 391.929 44.4076 392.162 43.8674C392.905 42.2606 393.253 40.4986 393.176 38.7293L393.2 37.6812Z" fill="white"/>
<path d="M402.822 50.2034V20.1235H410.762C414.263 20.1235 417.053 21.2373 419.134 23.4649C421.217 25.7029 422.278 28.7527 422.318 32.6378V37.5158C422.318 41.4613 421.27 44.5636 419.173 46.8227C417.077 49.0818 414.231 50.2087 410.636 50.2034H402.822ZM408.883 25.1907V45.1599H410.699C412.719 45.1599 414.134 44.624 414.96 43.5838C415.785 42.5436 416.217 40.6759 416.257 38.0674V32.8033C416.257 29.9978 415.872 28.0356 415.085 26.9244C414.299 25.8133 412.971 25.238 411.092 25.1828L408.883 25.1907Z" fill="white"/>
<path d="M439.809 40.203H431.948V45.3805H441.295V50.2033H426.154V26.1284H441.295V31.0064H431.979V35.3486H439.84L439.809 40.203Z" fill="white"/>
<path d="M458.833 44.0408H450.571L448.96 50.2033H442.553L451.931 20.1313H457.473L466.907 50.2033H460.437L458.833 44.0408ZM451.884 38.9815H457.489L454.659 28.264L451.884 38.9815Z" fill="white"/>
<path d="M477.126 41.9131H475.051V50.2033H469.194V26.1284H477.889C480.546 26.1284 482.606 26.7589 484.068 28.0119C484.812 28.6806 485.395 29.5092 485.775 30.4357C486.155 31.3623 486.321 32.3628 486.261 33.3627C486.311 34.8051 486.02 36.239 485.412 37.5473C484.78 38.7243 483.803 39.6787 482.613 40.2818L487 49.9512V50.2033H480.711L477.126 41.9131ZM475.051 37.0587H477.787C479.548 37.0587 480.428 36.0473 480.428 34.0247C480.428 32.023 479.587 31.0222 477.912 31.0064H475.051V37.0587Z" fill="white"/>
<path d="M307.842 67L338.367 39.9121L330.251 0L311.127 16.9681L323.985 39.3232L307.842 67Z" fill="white"/>
<path d="M307.015 16.9682L303.948 11.6248L288 39.3233L303.795 66.7384L303.948 67.0001L304.143 66.6293L319.873 39.3233L307.015 16.9682Z" fill="white"/>
<path d="M95.284 31.839L98.1101 13.3037H104.011L98.775 42.8106H92.7905L89.3827 25.4389L85.9748 42.8106H79.9903L74.7539 13.3037H80.6553L83.3982 31.839L86.8891 13.3037H91.8762L95.284 31.839Z" fill="white"/>
<path d="M120.136 33.0027H112.406V38.0729H121.549V42.8106H106.671V19.2051H121.549V23.9428H112.406V28.1818H120.136V33.0027Z" fill="white"/>
<path d="M124.897 42.8106V19.2051H132.877C135.62 19.2051 137.698 19.7869 139.194 20.8674C140.69 21.948 141.355 23.6103 141.355 25.6883C141.355 26.8519 141.105 27.9325 140.524 28.8468C140.025 29.7611 139.194 30.426 138.196 30.8416C139.277 31.1741 140.191 31.7559 140.773 32.6702C141.355 33.5845 141.687 34.665 141.687 35.9949C141.687 38.3222 141.022 40.0677 139.609 41.1482C138.279 42.2288 136.202 42.7275 133.459 42.7275H124.897V42.8106ZM130.633 29.013H133.375C134.872 29.013 135.703 28.1818 135.703 26.6026C135.703 25.6883 135.537 25.0233 135.121 24.6077C134.705 24.1922 134.124 24.0259 133.375 24.0259H130.633V29.013ZM130.633 33.0027V38.0729H133.542C134.373 38.0729 134.955 37.8235 135.37 37.4079C135.786 36.9923 136.035 36.4105 136.035 35.5793C136.035 33.8338 135.37 33.0027 133.957 32.9195H130.633V33.0027Z" fill="white"/>
<path d="M165.02 32.9196C164.854 36.2443 163.94 38.821 162.194 40.5665C160.449 42.3119 157.955 43.1431 154.797 43.1431C151.472 43.1431 148.895 42.0626 147.15 39.8184C145.404 37.6573 144.49 34.4988 144.49 30.4261V25.439C144.49 21.3662 145.404 18.2908 147.233 16.0466C149.061 13.8856 151.638 12.7219 154.88 12.7219C158.121 12.7219 160.532 13.6362 162.194 15.3817C163.856 17.2103 164.771 19.787 165.02 23.1117H159.036C158.953 21.0337 158.703 19.6207 158.038 18.7895C157.456 17.9584 156.376 17.6259 154.797 17.6259C153.217 17.6259 152.054 18.2077 151.389 19.2882C150.724 20.3688 150.391 22.1974 150.308 24.774V30.3429C150.308 33.2521 150.641 35.2469 151.306 36.4106C151.971 37.4911 153.051 38.0729 154.714 38.0729C156.293 38.0729 157.373 37.6573 157.955 36.9093C158.537 36.1612 158.869 34.7482 158.953 32.7534H165.02V32.9196Z" fill="white"/>
<path d="M186.631 31.4235C186.631 33.7508 186.215 35.7456 185.467 37.4911C184.719 39.2366 183.555 40.6496 182.142 41.5639C180.729 42.5613 179.067 42.9769 177.238 42.9769C175.41 42.9769 173.747 42.4782 172.334 41.5639C170.921 40.6496 169.758 39.2366 168.927 37.4911C168.095 35.7456 167.763 33.6677 167.763 31.3404V30.4261C167.763 28.0988 168.179 26.0208 168.927 24.2753C169.675 22.5299 170.838 21.1169 172.251 20.2026C173.664 19.2051 175.327 18.7896 177.155 18.7896C179.815 18.7896 182.059 19.787 183.805 21.6987C185.55 23.6935 186.464 26.2702 186.631 29.5949V31.4235ZM180.896 30.5092C180.896 28.265 180.563 26.6026 179.898 25.3559C179.233 24.1922 178.319 23.5273 177.155 23.5273C175.909 23.5273 174.994 24.1091 174.329 25.3559C173.664 26.5195 173.415 28.265 173.415 30.5092V31.4235C173.415 33.6677 173.747 35.4131 174.412 36.5768C175.077 37.7405 175.992 38.4054 177.155 38.4054C178.319 38.4054 179.233 37.8236 179.898 36.5768C180.563 35.33 180.896 33.6677 180.896 31.5066V30.5092Z" fill="white"/>
<path d="M207.909 42.8106H202.174L195.524 28.1818V42.8106H189.789V19.2051H195.524L202.174 33.8338V19.2051H207.909V42.8106Z" fill="white"/>
<path d="M225.197 33.5845H217.384V42.7275H211.649V19.2051H226.029V23.9428H217.384V28.8468H225.197V33.5845Z" fill="white"/>
<path d="M79.3489 60.4104V47.8801H80.4023V59.4844H85.4484V60.4104H79.3489ZM96.4668 60.4104L100.026 47.8376H101.649L105.183 60.4104H104.087L103.127 56.9189H98.5311L97.5627 60.4104H96.4668ZM98.786 55.9929H102.872L100.833 48.5937L98.786 55.9929ZM122.382 48.8061H119.026V60.4104H117.981V48.8061H114.626V47.8801H122.382V48.8061ZM131.839 60.4104L135.398 47.8376H137.021L140.555 60.4104H139.459L138.499 56.9189H133.903L132.935 60.4104H131.839ZM134.158 55.9929H138.244L136.206 48.5937L134.158 55.9929ZM160.744 47.8801H162.545V60.4104H161.543V48.8655L158.094 60.4104H156.564L153.107 48.8655V60.4104H152.105V47.8801H153.906L157.321 59.5439L160.744 47.8801Z" fill="white"/>
<path d="M175.179 60.4104V58.2526C175.23 58.128 175.377 57.944 175.621 57.7005C175.87 57.4513 176.176 57.1709 176.538 56.8594C176.901 56.548 177.277 56.2308 177.668 55.908C178.059 55.5795 178.421 55.2765 178.755 54.999C179.152 54.6705 179.537 54.3307 179.911 53.9796C180.29 53.6228 180.602 53.2462 180.845 52.8497C181.089 52.4533 181.21 52.0314 181.21 51.584C181.21 51.029 181.077 50.5844 180.811 50.2502C180.545 49.9161 180.129 49.749 179.562 49.749C178.871 49.749 178.393 49.9699 178.127 50.4116C177.86 50.8534 177.727 51.4339 177.727 52.1531H175.094C175.094 50.7826 175.482 49.6981 176.258 48.8995C177.034 48.0953 178.149 47.6932 179.605 47.6932C180.545 47.6932 181.329 47.8659 181.958 48.2114C182.592 48.5569 183.068 49.0269 183.385 49.6216C183.702 50.2106 183.861 50.8732 183.861 51.6095C183.861 52.1135 183.765 52.5836 183.572 53.0196C183.379 53.4501 183.133 53.8493 182.833 54.2175C182.533 54.5799 182.21 54.9141 181.865 55.2199C181.519 55.52 181.193 55.7919 180.888 56.0354C180.112 56.6471 179.492 57.1511 179.027 57.5475C178.568 57.944 178.302 58.2272 178.229 58.3971H183.784V60.4104H175.179ZM194.152 60.6143C193.353 60.6143 192.674 60.4415 192.113 60.0961C191.558 59.7506 191.108 59.2777 190.762 58.6774C190.417 58.0771 190.162 57.3918 189.998 56.6216C189.839 55.8457 189.76 55.0302 189.76 54.175C189.76 53.3198 189.839 52.5043 189.998 51.7284C190.162 50.9468 190.417 50.2531 190.762 49.6471C191.108 49.0411 191.558 48.5654 192.113 48.2199C192.674 47.8688 193.353 47.6932 194.152 47.6932C194.95 47.6932 195.627 47.8688 196.182 48.2199C196.743 48.5654 197.196 49.0411 197.541 49.6471C197.892 50.2531 198.147 50.9468 198.306 51.7284C198.464 52.5043 198.544 53.3198 198.544 54.175C198.544 55.0302 198.464 55.8457 198.306 56.6216C198.147 57.3918 197.892 58.0771 197.541 58.6774C197.196 59.2777 196.743 59.7506 196.182 60.0961C195.627 60.4415 194.95 60.6143 194.152 60.6143ZM194.152 58.567C194.718 58.567 195.148 58.23 195.443 57.556C195.737 56.8821 195.885 55.7551 195.885 54.175C195.885 52.5949 195.737 51.4679 195.443 50.7939C195.148 50.1143 194.718 49.7745 194.152 49.7745C193.585 49.7745 193.155 50.1143 192.86 50.7939C192.566 51.4679 192.419 52.5949 192.419 54.175C192.419 55.7607 192.566 56.8906 192.86 57.5645C193.155 58.2328 193.585 58.567 194.152 58.567ZM204.298 60.4104V58.2526C204.349 58.128 204.496 57.944 204.74 57.7005C204.989 57.4513 205.295 57.1709 205.657 56.8594C206.02 56.548 206.396 56.2308 206.787 55.908C207.178 55.5795 207.54 55.2765 207.874 54.999C208.271 54.6705 208.656 54.3307 209.03 53.9796C209.409 53.6228 209.721 53.2462 209.964 52.8497C210.208 52.4533 210.329 52.0314 210.329 51.584C210.329 51.029 210.196 50.5844 209.93 50.2502C209.664 49.9161 209.248 49.749 208.681 49.749C207.99 49.749 207.512 49.9699 207.246 50.4116C206.98 50.8534 206.846 51.4339 206.846 52.1531H204.213C204.213 50.7826 204.601 49.6981 205.377 48.8995C206.153 48.0953 207.268 47.6932 208.724 47.6932C209.664 47.6932 210.448 47.8659 211.077 48.2114C211.711 48.5569 212.187 49.0269 212.504 49.6216C212.821 50.2106 212.98 50.8732 212.98 51.6095C212.98 52.1135 212.884 52.5836 212.691 53.0196C212.499 53.4501 212.252 53.8493 211.952 54.2175C211.652 54.5799 211.329 54.9141 210.984 55.2199C210.638 55.52 210.312 55.7919 210.007 56.0354C209.231 56.6471 208.611 57.1511 208.146 57.5475C207.687 57.944 207.421 58.2272 207.348 58.3971H212.903V60.4104H204.298ZM224.222 47.8631V60.4104H221.606V50.3267C221.532 50.3833 221.373 50.4569 221.13 50.5476C220.892 50.6325 220.606 50.7146 220.272 50.7939C219.938 50.8732 219.592 50.927 219.235 50.9553V48.8825C219.592 48.8429 219.938 48.7664 220.272 48.6532C220.612 48.5399 220.906 48.4125 221.155 48.2709C221.405 48.1293 221.569 47.9934 221.648 47.8631H224.222Z" fill="white"/>
<path d="M32.5046 68L60.1408 43.5499L52.659 7L35.1179 22.5364L46.9313 42.9771L32.5046 68Z" fill="white"/>
<path d="M27.6361 68L0 43.5499L7.44601 7L24.9871 22.5364L13.1737 42.9771L27.6361 68Z" fill="white"/>
<path d="M32.4689 26.4383L30.0704 22.3215L17.7916 43.6214L30.1062 64.8855L42.3849 43.6214L32.4689 26.4383Z" fill="white"/>
</svg>
