<svg width="20" height="16" viewBox="0 0 20 16" fill="none" xmlns="http://www.w3.org/2000/svg">
<path d="M19.783 1.87497C19.058 2.20496 18.2781 2.40495 17.4881 2.47995C18.3231 1.99496 18.943 1.21998 19.243 0.305003C18.4531 0.774992 17.5931 1.09998 16.6981 1.26998C15.9681 0.469999 14.9381 0.0100103 13.8582 1.05077e-05C11.6582 -0.00498937 9.86826 1.77497 9.86326 3.97992C9.86326 3.98492 9.86326 4.02991 9.86326 4.03491C9.87326 4.34491 9.91326 4.6549 9.98826 4.95989C6.72333 4.7849 3.6784 3.23993 1.60845 0.704994C1.23846 1.31998 1.04847 2.02496 1.05347 2.73995C1.06347 4.09491 1.72845 5.35488 2.84342 6.12987C2.19344 6.12487 1.55845 5.95487 0.998467 5.63488V5.79987C1.00847 7.70483 2.35844 9.33979 4.23339 9.70478C3.8934 9.77478 3.54341 9.81478 3.19342 9.82478C2.94842 9.83478 2.70343 9.81478 2.45843 9.76478C2.98842 11.3897 4.47339 12.5147 6.18335 12.5797C4.75838 13.7097 2.99342 14.3147 1.17346 14.2897C0.848471 14.2997 0.518479 14.2797 0.198486 14.2297C2.07344 15.3746 4.22839 15.9846 6.42834 15.9996C12.6882 16.0496 17.7981 11.0147 17.8481 4.7549C17.8481 4.6949 17.8481 4.4699 17.8481 4.40991V3.92992C18.5831 3.33493 19.233 2.64495 19.783 1.87497Z" fill="white"/>
</svg>
