<svg width="227" height="61" viewBox="0 0 227 61" fill="none" xmlns="http://www.w3.org/2000/svg">
<path d="M95.284 24.839L98.1101 6.30371H104.011L98.775 35.8106H92.7905L89.3827 18.4389L85.9748 35.8106H79.9903L74.7539 6.30371H80.6553L83.3982 24.839L86.8891 6.30371H91.8762L95.284 24.839Z" fill="white"/>
<path d="M120.136 26.0027H112.406V31.0729H121.549V35.8106H106.671V12.2051H121.549V16.9428H112.406V21.1818H120.136V26.0027Z" fill="white"/>
<path d="M124.897 35.8106V12.2051H132.877C135.62 12.2051 137.698 12.7869 139.194 13.8674C140.69 14.948 141.355 16.6103 141.355 18.6883C141.355 19.8519 141.105 20.9325 140.524 21.8468C140.025 22.7611 139.194 23.426 138.196 23.8416C139.277 24.1741 140.191 24.7559 140.773 25.6702C141.355 26.5845 141.687 27.665 141.687 28.9949C141.687 31.3222 141.022 33.0677 139.609 34.1482C138.279 35.2288 136.202 35.7275 133.459 35.7275H124.897V35.8106ZM130.633 22.013H133.375C134.872 22.013 135.703 21.1818 135.703 19.6026C135.703 18.6883 135.537 18.0233 135.121 17.6077C134.705 17.1922 134.124 17.0259 133.375 17.0259H130.633V22.013ZM130.633 26.0027V31.0729H133.542C134.373 31.0729 134.955 30.8235 135.37 30.4079C135.786 29.9923 136.035 29.4105 136.035 28.5793C136.035 26.8338 135.37 26.0027 133.957 25.9195H130.633V26.0027Z" fill="white"/>
<path d="M165.02 25.9196C164.854 29.2443 163.94 31.821 162.194 33.5665C160.449 35.3119 157.955 36.1431 154.797 36.1431C151.472 36.1431 148.895 35.0626 147.15 32.8184C145.404 30.6573 144.49 27.4988 144.49 23.4261V18.439C144.49 14.3662 145.404 11.2908 147.233 9.04664C149.061 6.88558 151.638 5.72192 154.88 5.72192C158.121 5.72192 160.532 6.63622 162.194 8.3817C163.856 10.2103 164.771 12.787 165.02 16.1117H159.036C158.953 14.0337 158.703 12.6207 158.038 11.7895C157.456 10.9584 156.376 10.6259 154.797 10.6259C153.217 10.6259 152.054 11.2077 151.389 12.2882C150.724 13.3688 150.391 15.1974 150.308 17.774V23.3429C150.308 26.2521 150.641 28.2469 151.306 29.4106C151.971 30.4911 153.051 31.0729 154.714 31.0729C156.293 31.0729 157.373 30.6573 157.955 29.9093C158.537 29.1612 158.869 27.7482 158.953 25.7534H165.02V25.9196Z" fill="white"/>
<path d="M186.631 24.4235C186.631 26.7508 186.215 28.7456 185.467 30.4911C184.719 32.2366 183.555 33.6496 182.142 34.5639C180.729 35.5613 179.067 35.9769 177.238 35.9769C175.41 35.9769 173.747 35.4782 172.334 34.5639C170.921 33.6496 169.758 32.2366 168.927 30.4911C168.095 28.7456 167.763 26.6677 167.763 24.3404V23.4261C167.763 21.0988 168.179 19.0208 168.927 17.2753C169.675 15.5299 170.838 14.1169 172.251 13.2026C173.664 12.2051 175.327 11.7896 177.155 11.7896C179.815 11.7896 182.059 12.787 183.805 14.6987C185.55 16.6935 186.464 19.2702 186.631 22.5949V24.4235ZM180.896 23.5092C180.896 21.265 180.563 19.6026 179.898 18.3559C179.233 17.1922 178.319 16.5273 177.155 16.5273C175.909 16.5273 174.994 17.1091 174.329 18.3559C173.664 19.5195 173.415 21.265 173.415 23.5092V24.4235C173.415 26.6677 173.747 28.4131 174.412 29.5768C175.077 30.7405 175.992 31.4054 177.155 31.4054C178.319 31.4054 179.233 30.8236 179.898 29.5768C180.563 28.33 180.896 26.6677 180.896 24.5066V23.5092Z" fill="white"/>
<path d="M207.909 35.8106H202.174L195.524 21.1818V35.8106H189.789V12.2051H195.524L202.174 26.8338V12.2051H207.909V35.8106Z" fill="white"/>
<path d="M225.197 26.5845H217.384V35.7275H211.649V12.2051H226.029V16.9428H217.384V21.8468H225.197V26.5845Z" fill="white"/>
<path d="M79.3489 53.4104V40.8801H80.4023V52.4844H85.4484V53.4104H79.3489ZM96.4668 53.4104L100.026 40.8376H101.649L105.183 53.4104H104.087L103.127 49.9189H98.5311L97.5627 53.4104H96.4668ZM98.786 48.9929H102.872L100.833 41.5937L98.786 48.9929ZM122.382 41.8061H119.026V53.4104H117.981V41.8061H114.626V40.8801H122.382V41.8061ZM131.839 53.4104L135.398 40.8376H137.021L140.555 53.4104H139.459L138.499 49.9189H133.903L132.935 53.4104H131.839ZM134.158 48.9929H138.244L136.206 41.5937L134.158 48.9929ZM160.744 40.8801H162.545V53.4104H161.543V41.8655L158.094 53.4104H156.564L153.107 41.8655V53.4104H152.105V40.8801H153.906L157.321 52.5439L160.744 40.8801Z" fill="white"/>
<path d="M175.179 53.4104V51.2526C175.23 51.128 175.377 50.944 175.621 50.7005C175.87 50.4513 176.176 50.1709 176.538 49.8594C176.901 49.548 177.277 49.2308 177.668 48.908C178.059 48.5795 178.421 48.2765 178.755 47.999C179.152 47.6705 179.537 47.3307 179.911 46.9796C180.29 46.6228 180.602 46.2462 180.845 45.8497C181.089 45.4533 181.21 45.0314 181.21 44.584C181.21 44.029 181.077 43.5844 180.811 43.2502C180.545 42.9161 180.129 42.749 179.562 42.749C178.871 42.749 178.393 42.9699 178.127 43.4116C177.86 43.8534 177.727 44.4339 177.727 45.1531H175.094C175.094 43.7826 175.482 42.6981 176.258 41.8995C177.034 41.0953 178.149 40.6932 179.605 40.6932C180.545 40.6932 181.329 40.8659 181.958 41.2114C182.592 41.5569 183.068 42.0269 183.385 42.6216C183.702 43.2106 183.861 43.8732 183.861 44.6095C183.861 45.1135 183.765 45.5836 183.572 46.0196C183.379 46.4501 183.133 46.8493 182.833 47.2175C182.533 47.5799 182.21 47.9141 181.865 48.2199C181.519 48.52 181.193 48.7919 180.888 49.0354C180.112 49.6471 179.492 50.1511 179.027 50.5475C178.568 50.944 178.302 51.2272 178.229 51.3971H183.784V53.4104H175.179ZM194.152 53.6143C193.353 53.6143 192.674 53.4415 192.113 53.0961C191.558 52.7506 191.108 52.2777 190.762 51.6774C190.417 51.0771 190.162 50.3918 189.998 49.6216C189.839 48.8457 189.76 48.0302 189.76 47.175C189.76 46.3198 189.839 45.5043 189.998 44.7284C190.162 43.9468 190.417 43.2531 190.762 42.6471C191.108 42.0411 191.558 41.5654 192.113 41.2199C192.674 40.8688 193.353 40.6932 194.152 40.6932C194.95 40.6932 195.627 40.8688 196.182 41.2199C196.743 41.5654 197.196 42.0411 197.541 42.6471C197.892 43.2531 198.147 43.9468 198.306 44.7284C198.464 45.5043 198.544 46.3198 198.544 47.175C198.544 48.0302 198.464 48.8457 198.306 49.6216C198.147 50.3918 197.892 51.0771 197.541 51.6774C197.196 52.2777 196.743 52.7506 196.182 53.0961C195.627 53.4415 194.95 53.6143 194.152 53.6143ZM194.152 51.567C194.718 51.567 195.148 51.23 195.443 50.556C195.737 49.8821 195.885 48.7551 195.885 47.175C195.885 45.5949 195.737 44.4679 195.443 43.7939C195.148 43.1143 194.718 42.7745 194.152 42.7745C193.585 42.7745 193.155 43.1143 192.86 43.7939C192.566 44.4679 192.419 45.5949 192.419 47.175C192.419 48.7607 192.566 49.8906 192.86 50.5645C193.155 51.2328 193.585 51.567 194.152 51.567ZM204.298 53.4104V51.2526C204.349 51.128 204.496 50.944 204.74 50.7005C204.989 50.4513 205.295 50.1709 205.657 49.8594C206.02 49.548 206.396 49.2308 206.787 48.908C207.178 48.5795 207.54 48.2765 207.874 47.999C208.271 47.6705 208.656 47.3307 209.03 46.9796C209.409 46.6228 209.721 46.2462 209.964 45.8497C210.208 45.4533 210.329 45.0314 210.329 44.584C210.329 44.029 210.196 43.5844 209.93 43.2502C209.664 42.9161 209.248 42.749 208.681 42.749C207.99 42.749 207.512 42.9699 207.246 43.4116C206.98 43.8534 206.846 44.4339 206.846 45.1531H204.213C204.213 43.7826 204.601 42.6981 205.377 41.8995C206.153 41.0953 207.268 40.6932 208.724 40.6932C209.664 40.6932 210.448 40.8659 211.077 41.2114C211.711 41.5569 212.187 42.0269 212.504 42.6216C212.821 43.2106 212.98 43.8732 212.98 44.6095C212.98 45.1135 212.884 45.5836 212.691 46.0196C212.499 46.4501 212.252 46.8493 211.952 47.2175C211.652 47.5799 211.329 47.9141 210.984 48.2199C210.638 48.52 210.312 48.7919 210.007 49.0354C209.231 49.6471 208.611 50.1511 208.146 50.5475C207.687 50.944 207.421 51.2272 207.348 51.3971H212.903V53.4104H204.298ZM224.222 40.8631V53.4104H221.606V43.3267C221.532 43.3833 221.373 43.4569 221.13 43.5476C220.892 43.6325 220.606 43.7146 220.272 43.7939C219.938 43.8732 219.592 43.927 219.235 43.9553V41.8825C219.592 41.8429 219.938 41.7664 220.272 41.6532C220.612 41.5399 220.906 41.4125 221.155 41.2709C221.405 41.1293 221.569 40.9934 221.648 40.8631H224.222Z" fill="white"/>
<path d="M32.5046 61L60.1408 36.5499L52.659 0L35.1179 15.5364L46.9313 35.9771L32.5046 61Z" fill="white"/>
<path d="M27.6361 61L0 36.5499L7.44601 0L24.9871 15.5364L13.1737 35.9771L27.6361 61Z" fill="white"/>
<path d="M32.4689 19.4383L30.0704 15.3215L17.7916 36.6214L30.1062 57.8855L42.3849 36.6214L32.4689 19.4383Z" fill="white"/>
</svg>
